<svg width="499" height="366" viewBox="0 0 499 366" fill="none" xmlns="http://www.w3.org/2000/svg">
<path d="M100.02 100.019L398.419 160.083" stroke="#B1A5D8" stroke-width="200" stroke-linecap="round"/>
<path d="M127.533 265.931L397.991 160.023" stroke="#E48DCB" stroke-width="200" stroke-linecap="round"/>
<path d="M97.1395 133.818H239.85C244.552 133.818 248.589 137.924 249.586 143.696L276.466 301.618C277.795 309.354 273.046 316.673 266.73 316.673H121.645C116.896 316.673 112.812 312.448 111.909 306.617L87.4039 148.694C86.1691 140.958 90.8707 133.818 97.1395 133.818Z" fill="#B2B2B2"/>
<path d="M88.9237 133.818H231.587C236.288 133.818 240.325 137.924 241.323 143.696L268.202 301.618C269.532 309.354 264.831 316.673 258.467 316.673H113.429C108.68 316.673 104.596 312.448 103.693 306.617L79.1881 148.694C77.9533 140.958 82.6549 133.818 88.9237 133.818Z" fill="#D1D1D1"/>
<path d="M272.571 303.166H370.07C373.062 303.166 375.437 306.2 375.437 309.89C375.437 313.638 373.015 316.614 370.07 316.614H270.671L272.571 303.166Z" fill="#B2B2B2"/>
<path d="M177.257 221.11C177.257 231.88 170.323 240.568 161.727 240.568C153.131 240.568 146.198 231.821 146.198 221.11C146.198 210.34 153.179 201.652 161.727 201.652C170.323 201.652 177.257 210.34 177.257 221.11Z" fill="white"/>
<path d="M409.259 120.198C414.776 119.922 417.182 126.23 413.869 132.125C391.912 171.302 373.577 205.92 358.358 236.702C356.502 240.469 354.186 244.576 350.428 245.396C348.021 245.917 345.579 244.95 343.367 243.947L314.345 231.395C311.585 230.16 310.26 226.452 311.472 223.216C323.279 192.798 338.813 159.539 358.877 122.908C360.66 119.713 363.694 117.783 366.46 118.217C379.695 120.271 394.038 120.919 409.259 120.198Z" fill="#666666"/>
<path d="M393.425 135.199C397.088 135.142 398.73 139.387 396.597 143.307C382.133 170.135 369.583 194.76 358.717 217.486C357.393 220.341 355.678 223.5 352.926 224.21C351.138 224.659 349.356 224.039 347.713 223.343L326.073 214.718C323.995 213.906 323.007 211.077 323.985 208.677C333.157 185.904 344.742 161.808 359.107 136.277C360.312 134.108 362.426 132.86 364.369 133.214C373.537 134.751 383.26 135.451 393.425 135.199Z" fill="white"/>
<path d="M362.212 140.255C362.641 139.572 363.116 138.775 363.821 138.486C364.435 138.155 365.098 138.251 365.692 138.384C367.016 138.575 368.363 138.845 369.666 139.228C370.992 139.69 372.273 140.266 373.644 140.614C374.696 140.952 375.769 141.098 376.842 141.244C379.263 141.659 381.66 141.996 384.149 142.375C385.633 142.571 386.728 142.524 387.873 143.174C388.262 143.416 388.675 143.737 389.134 144.213C388.258 146.582 387.199 148.869 386.049 151.114C385.395 152.37 384.794 154.863 383.472 155.212C382.675 155.46 381.599 154.773 380.867 154.444C380.684 154.362 380.524 154.357 380.341 154.275C380.464 155.745 380.587 157.216 380.687 158.608C379.788 157.193 379.072 155.59 378.423 153.951C378.376 153.795 378.307 153.561 378.192 153.442C377.917 153.319 377.575 153.232 377.3 153.109C373.94 151.934 370.555 150.681 367.263 149.469C365.937 149.007 364.794 148.628 363.402 148.473C362.922 148.46 358.988 146.689 358.92 146.726C359.957 144.632 360.924 142.304 362.212 140.255Z" fill="#CCCCCC"/>
<path d="M343.379 176.334C344.109 175.85 344.793 175.209 345.409 174.605C344.259 173.952 343.063 173.414 341.89 172.682C342.798 171.193 343.752 169.59 344.66 168.101C344.75 167.871 344.933 167.682 345.138 167.571C345.55 167.349 346.009 167.557 346.4 167.8C349.344 169.397 353.039 170.044 355.983 171.64C358.375 172.989 359.042 173.357 362.516 175.395C361.79 176.695 360.207 180.455 359.481 181.754C358.903 180.884 357.915 180.507 357.019 180.171C353.803 178.994 350.653 177.508 347.549 175.907C347 176.202 346.429 176.419 345.833 176.558C344.986 176.651 344.183 176.628 343.379 176.334Z" fill="#B8CDD8"/>
<path d="M362.436 160.754C362.98 159.641 363.549 158.606 364.093 157.493C364.207 157.341 364.229 157.147 364.367 157.073C364.573 156.962 364.826 157.008 365.01 157.091C369.981 158.514 375.299 160.569 380.271 162.265C379.841 163.226 378.228 166.37 377.774 167.253C377.683 167.483 377.525 167.751 377.318 167.862C376.975 168.047 376.606 167.881 376.306 167.678C376.098 167.517 375.915 167.434 375.662 167.388C375.738 168.713 375.884 170.001 375.96 171.326C375.056 169.9 374.358 168.363 373.705 166.711C373.658 166.554 373.611 166.397 373.472 166.198C369.83 164.151 366.166 162.298 362.436 160.754Z" fill="#CCCCCC"/>
<path d="M353.126 193.429C353.76 192.088 354.393 190.748 355.004 189.329C355.117 189.177 355.208 188.947 355.345 188.873C355.482 188.799 355.666 188.882 355.758 188.923C358.146 189.728 360.534 190.532 362.946 191.414C364.714 192.007 366.505 192.678 367.957 194.077C367.325 195.69 366.646 197.145 365.876 198.56C365.785 198.79 365.672 198.942 365.466 199.053C365.26 199.163 365.032 199.195 364.848 199.113C364.275 199.058 363.723 198.81 363.172 198.561C362.993 199.294 362.859 199.911 362.68 200.643C362.658 200.837 362.568 201.067 362.407 201.062C361.988 199.925 361.568 198.788 361.149 197.651C358.415 196.488 355.703 195.131 353.126 193.429Z" fill="#CCCCCC"/>
<path d="M334.371 200.7C333.167 199.886 331.94 198.992 330.805 198.141C331.878 196.375 333.044 194.65 334.117 192.885C334.232 192.732 334.346 192.579 334.484 192.504C334.622 192.43 334.876 192.476 335.061 192.559C341.206 194.645 346.517 199.83 352.551 202.615C352.736 202.698 352.921 202.781 352.991 203.018C353.038 203.175 353.016 203.37 352.971 203.486C352.456 206.048 351.756 208.527 350.94 210.886C347.471 209.188 344.048 207.374 340.67 205.445C339.421 204.746 338.056 203.927 337.172 202.575C336.184 203.289 335.219 203.808 334.114 204.129C333.812 203.652 334.108 203.035 334.451 202.576C334.794 202.117 335.114 201.58 334.788 201.024C334.672 200.904 334.556 200.783 334.371 200.7Z" fill="#B8CDD8"/>
</svg>
