<svg width="39" height="40" viewBox="0 0 39 40" fill="none" xmlns="http://www.w3.org/2000/svg">
<path fill-rule="evenodd" clip-rule="evenodd" d="M19.5 0C30.2695 0 39 8.95434 39 20C39 31.0457 30.2695 40 19.5 40C8.73048 40 0 31.0457 0 20C0 8.95434 8.73048 0 19.5 0ZM15.8832 12.7373C15.8832 11.5398 15.6939 10.7462 15.314 10.3271C14.9349 9.908 14.4095 9.69858 13.7672 9.69809C13.1249 9.69809 12.6141 9.89299 12.2345 10.2821C11.8551 10.6711 11.6651 11.3449 11.6651 12.3032V15.1772H7.81152L7.81177 12.5724C7.81177 10.4164 8.32259 8.78487 9.34447 7.61718C10.381 6.46475 11.899 5.8958 13.884 5.8958C15.8983 5.8958 17.402 6.47976 18.4234 7.61742C19.4597 8.77034 19.9702 10.4322 19.9702 12.5879C19.9558 13.98 19.7804 15.2375 19.3716 16.3754C18.9776 17.4978 18.4814 18.5159 17.8684 19.4441C17.2698 20.3574 16.6128 21.2105 15.9122 22.0187C15.2116 22.7973 14.54 23.5457 13.9419 24.2492C13.3432 24.953 12.8324 25.6564 12.4382 26.3301C12.0442 27.0039 11.8544 27.7075 11.8544 28.4261C11.8544 28.6955 11.8544 28.8752 11.8835 28.995L19.5902 28.9953V32.7978L7.81106 32.8121V29.5487C7.81106 28.2312 8.00132 27.1085 8.4097 26.1207C8.80391 25.1174 9.30032 24.2192 9.89848 23.396C10.4971 22.5726 11.1541 21.8093 11.84 21.0754C12.5406 20.3569 13.1973 19.5935 13.7962 18.7703C14.409 17.9619 14.8908 17.0785 15.2997 16.1205C15.6936 15.1474 15.8832 14.0248 15.8832 12.7373ZM25.5607 6.58483L29.6917 6.57007L29.7271 24.1904H31.6613V27.9627H29.7344L29.7304 27.9629V32.8128H25.7347V27.9627H25.4764L17.8823 27.9622V24.1628L25.5607 6.58483ZM25.5895 14.669L25.6041 23.7258L21.7432 23.718L25.5895 14.669Z" fill="url(#paint0_linear_145_163)"/>
<defs>
<linearGradient id="paint0_linear_145_163" x1="5.71087" y1="34.1422" x2="33.9858" y2="6.57418" gradientUnits="userSpaceOnUse">
<stop stop-color="#3B1E9D"/>
<stop offset="1" stop-color="#D11C98"/>
</linearGradient>
</defs>
</svg>
