<svg width="80" height="80" viewBox="0 0 80 80" fill="none" xmlns="http://www.w3.org/2000/svg">
<path d="M46.6667 3.33333V0C65.0467 0 80 14.9533 80 33.3333H76.6667C76.6667 16.7933 63.2067 3.33333 46.6667 3.33333ZM63.3333 33.3333H66.6667C66.6667 22.3033 57.6967 13.3333 46.6667 13.3333V16.6667C55.8567 16.6667 63.3333 24.1433 63.3333 33.3333ZM58.4233 46.1233L77.3533 65.0533L67.7567 74.65C64.3133 78.1 59.65 80 54.62 80C30.63 80 0 49.3733 0 25.3767C0 20.3467 1.9 15.6833 5.35 12.24L14.9467 2.64333L33.8767 21.5733L22.6333 32.8167C27.6533 44.68 35.6967 52.73 47.1667 57.38L58.4233 46.1233ZM72.64 65.0533L58.4233 50.8367L47.99 61.2733L46.98 60.8867C33.9133 55.9 24.54 46.5333 19.1233 33.0467L18.7133 32.0233L29.1633 21.5733L14.9467 7.35667L7.70667 14.5967C4.88667 17.41 3.33333 21.24 3.33333 25.3767C3.33333 47.4267 32.5733 76.6667 54.6233 76.6667C58.76 76.6667 62.5867 75.1133 65.4 72.2933L72.64 65.0533Z" fill="#3D1E9D"/>
</svg>
