<svg width="80" height="80" viewBox="0 0 80 80" fill="none" xmlns="http://www.w3.org/2000/svg">
<path d="M78.3333 30.0013C77.4133 30.0013 76.6667 30.7479 76.6667 31.668V61.1825C76.6667 61.9926 76.24 62.7059 75.5267 63.086C74.81 63.4693 73.9867 63.4326 73.31 62.9826L59.26 53.6122C58.9667 53.4989 58.6867 53.3189 58.3367 53.3322H35.0033C28.57 53.3322 23.3367 48.0987 23.3367 41.6651V15.0006C23.3367 8.56702 28.57 3.33347 35.0033 3.33347H48.3367C49.2567 3.33347 50.0033 2.58677 50.0033 1.66674C50.0033 0.746698 49.2567 0 48.3367 0H35.0033C27.3033 0 21.0133 5.85358 20.1733 13.3339H15.0033C6.73 13.3339 0 20.0642 0 28.3345V74.5164C0 76.5432 1.11 78.4033 2.9 79.36C3.71667 79.7967 4.60667 80 5.49667 80C6.79 80 7.62 79.7 8.54 79.09L22.17 69.9996H45C52.2733 69.9996 58.3433 64.796 59.7067 57.9157L71.46 65.7527C72.38 66.3661 73.44 66.6728 74.5033 66.6728C75.3933 66.6728 76.2833 66.4594 77.1 66.0228C78.89 65.066 80 63.206 80 61.1792V31.668C80 30.7479 79.2533 30.0013 78.3333 30.0013ZM45 66.6694H21.6667C21.3367 66.6694 21.0167 66.7661 20.7433 66.9495L6.69333 76.3198C6.02333 76.7699 5.19333 76.8065 4.47667 76.4232C3.76333 76.0432 3.33667 75.3298 3.33667 74.5198V28.3345C3.33667 21.9009 8.57 16.6674 15.0033 16.6674H20.0033V41.6684C20.0033 49.9387 26.7333 56.669 35.0033 56.669H56.5C55.6833 62.3093 50.8633 66.6694 45.0033 66.6694H45ZM66.6667 26.6678C74.02 26.6678 80 20.6875 80 13.3339C80 5.98025 74.02 0 66.6667 0C59.3133 0 53.3333 5.98025 53.3333 13.3339C53.3333 20.6875 59.3133 26.6678 66.6667 26.6678ZM66.6667 3.33347C72.18 3.33347 76.6667 7.82033 76.6667 13.3339C76.6667 18.8475 72.18 23.3343 66.6667 23.3343C61.1533 23.3343 56.6667 18.8475 56.6667 13.3339C56.6667 7.82033 61.1533 3.33347 66.6667 3.33347Z" fill="#3D1E9D"/>
</svg>
