<svg width="80" height="80" viewBox="0 0 80 80" fill="none" xmlns="http://www.w3.org/2000/svg">
<g clip-path="url(#clip0_152_359)">
<path d="M40 39.9967C47.3533 39.9967 53.3333 34.0167 53.3333 26.6633C53.3333 19.31 47.3533 13.33 40 13.33C32.6467 13.33 26.6667 19.31 26.6667 26.6633C26.6667 34.0167 32.6467 39.9967 40 39.9967ZM40 16.6633C45.5133 16.6633 50 21.15 50 26.6633C50 32.1767 45.5133 36.6633 40 36.6633C34.4867 36.6633 30 32.1767 30 26.6633C30 21.15 34.4867 16.6633 40 16.6633ZM73.8067 35.51L65.9433 32.8767C66.42 30.8667 66.6667 28.7867 66.6667 26.6667C66.6667 19.5433 63.8933 12.8467 58.8567 7.81C53.82 2.77333 47.1233 0 40 0C32.8767 0 26.18 2.77333 21.1433 7.81C16.1067 12.8467 13.3333 19.5433 13.3333 26.6667C13.3333 28.2367 13.4667 29.7833 13.7333 31.2967L11.9633 30.6567C9.29666 29.5467 6.26333 29.8333 3.84999 31.44C1.43999 33.0467 0.00332642 35.7333 0.00332642 38.6267V72.3867L24.95 79.92L55.02 72.7233L80 80.0067V43.79C80 39.9533 77.4233 36.54 73.8067 35.51ZM23.5 10.1667C27.9067 5.76 33.7667 3.33333 40 3.33333C46.2333 3.33333 52.09 5.76 56.5 10.1667C60.91 14.5733 63.3333 20.4333 63.3333 26.6667C63.3333 32.9 60.9067 38.7567 56.5133 43.1533L40 59.3033L23.5 43.1667C19.0933 38.76 16.6667 32.9 16.6667 26.6667C16.6667 20.4333 19.0933 14.5767 23.5 10.1667ZM76.6667 75.5633L55.1033 69.2767L25.0467 76.47L3.32999 69.9133V38.6267C3.32999 36.8233 4.18999 35.2133 5.69333 34.2133C7.19333 33.2133 9.00999 33.0333 10.75 33.76L14.72 35.1933C16.0167 39.04 18.1933 42.57 21.1533 45.53L39.9967 63.96L58.8533 45.5167C61.5833 42.7867 63.6467 39.57 64.9667 36.06L72.82 38.6867C75.0833 39.3333 76.6667 41.43 76.6667 43.7833V75.5567V75.5633Z" fill="#3D1E9D"/>
</g>
<defs>
<clipPath id="clip0_152_359">
<rect width="80" height="80" fill="white"/>
</clipPath>
</defs>
</svg>
