<svg width="544" height="495" viewBox="0 0 544 495" fill="none" xmlns="http://www.w3.org/2000/svg">
<path d="M100.014 189.217L350.402 227.005" stroke="#B1A5D8" stroke-width="200" stroke-linecap="round"/>
<path d="M462.402 429.006L493.902 444.006" stroke="#CE33A2" stroke-width="100" stroke-linecap="round"/>
<ellipse cx="445.979" cy="413.215" rx="68.4445" ry="64.2433" fill="#C91C98"/>
<path d="M249.125 221.502L342.934 100.005" stroke="#644BB1" stroke-width="200" stroke-linecap="round"/>
<path d="M114.902 338.005L366.598 226.781" stroke="#3D1E9D" stroke-width="200" stroke-linecap="round"/>
<path d="M364.649 457.795C366.737 457.064 367.318 456.159 365.539 455.08C364.102 454.209 359.961 454.662 358.078 454.627C349.215 454.418 340.351 454.244 331.488 454.279C313.624 454.349 295.726 455.045 277.93 456.368C275.295 456.577 256.165 457.343 259.313 460.65C260.887 462.356 268.519 461.277 271.325 461.242C277.451 461.207 283.577 461.207 289.737 461.172C301.988 461.137 314.274 461.068 326.526 461.033C329.263 461.033 356.983 460.511 364.649 457.795Z" fill="url(#paint0_linear_230_30)"/>
<path d="M364.649 457.795C366.737 457.064 367.318 456.159 365.539 455.08C364.102 454.209 359.961 454.662 358.078 454.627C349.215 454.418 340.351 454.244 331.488 454.279C313.624 454.349 295.726 455.045 277.93 456.368C275.295 456.577 256.165 457.343 259.313 460.65C260.887 462.356 268.519 461.277 271.325 461.242C277.451 461.207 283.577 461.207 289.737 461.172C301.988 461.137 314.274 461.068 326.526 461.033C329.263 461.033 356.983 460.511 364.649 457.795Z" fill="url(#paint1_linear_230_30)"/>
<path d="M265.37 441.084C261.846 441.502 258.15 440.458 255.104 438.23C259.724 424.687 261.093 420.684 265.713 407.141C267.184 402.859 268.656 398.542 269.443 394.016C270.435 388.446 270.367 382.632 270.333 376.923C270.127 354.677 270.812 281.115 270.606 258.869C270.572 256.989 270.572 255.074 271.188 253.369C272.968 248.495 285.63 249.365 290.25 249.574C291.277 249.609 298.771 250.584 299.524 251.384C300.414 252.289 307.943 251.732 308.011 253.09C308.935 270.636 298.018 305.763 296.547 324.249C296.068 330.377 291.037 369.368 290.182 375.426C288.676 386.113 284.946 397.115 280.36 406.445C273.31 420.788 272.249 424.165 265.37 441.084Z" fill="#F0E5D4"/>
<path d="M307.361 168.771C311.502 170.86 314.479 174.724 317.285 178.449C324.096 187.501 330.872 196.553 337.682 205.604C339.633 208.18 341.72 210.896 344.663 212.08C348.257 213.542 352.295 212.532 355.991 211.488C363.383 209.434 361.945 208.911 369.337 206.857C369.885 206.718 370.535 206.579 370.98 206.927C371.288 207.136 371.391 207.519 371.528 207.867C372.281 210.095 373.855 215.143 372.486 217.023C371.493 218.381 369.748 218.868 368.105 219.286C355.512 222.384 351.679 223.986 338.743 224.961C336.826 225.1 335.629 223.951 332.206 222.036C330.735 221.236 329.434 220.191 328.237 219.007C321.05 211.801 314.513 203.898 308.661 195.543C305.787 191.435 303.083 187.188 300.516 182.836C298.668 179.668 295.452 175.003 296.307 171.034C297.402 166.265 304.11 167.17 307.361 168.771Z" fill="#6D8497"/>
<path d="M298.737 138.936C298.361 132.843 295.76 127.134 293.09 121.668C290.969 117.247 288.641 112.721 284.774 109.727C284.021 109.135 283.166 108.578 282.208 108.509C281.386 108.439 280.565 108.683 279.812 108.961C272.42 111.398 264.891 113.905 258.423 118.256C257.944 118.57 257.465 118.953 257.26 119.475C257.089 119.962 257.191 120.484 257.26 121.007C260.271 136.255 266.739 156.412 281.763 160.207C289.052 156.621 287.752 159.371 295.315 156.447C293.296 152.409 299.011 143.462 298.737 138.936Z" fill="#E8DBCE"/>
<path d="M328.75 454.558C327.997 453.757 326.936 453.339 325.944 452.956C322.487 451.529 319.202 449.649 316.225 447.386C312.323 446.724 308.388 446.55 304.452 446.864C302.947 449.266 302.467 452.329 303.186 455.08C303.289 455.428 303.391 455.776 303.631 456.02C303.939 456.333 304.384 456.437 304.829 456.507C311.981 457.83 319.236 458.457 326.491 458.387C327.45 458.387 328.511 458.283 329.127 457.552C329.777 456.716 329.469 455.358 328.75 454.558Z" fill="#333333"/>
<path d="M273.139 453.339C272.762 452.329 271.941 451.598 271.154 450.832C268.519 448.291 266.192 445.367 264.241 442.233C260.921 440.214 257.397 438.613 253.701 437.499C251.476 439.135 249.97 441.746 249.662 444.531C249.628 444.879 249.594 445.227 249.731 445.541C249.902 445.924 250.278 446.202 250.655 446.411C256.678 450.206 263.077 453.409 269.682 455.985C270.538 456.333 271.565 456.646 272.352 456.194C273.344 455.671 273.549 454.349 273.139 453.339Z" fill="#333333"/>
<path d="M328.1 291.768C328.134 289.958 328.1 288.148 328.031 286.372V286.337C327.758 277.947 326.628 269.627 325.602 261.271C324.951 256.119 324.233 250.758 321.666 246.406C315.609 250.723 308.696 253.334 301.612 254.239C301.578 254.378 301.543 254.517 301.475 254.692C301.064 255.736 300.825 256.85 300.654 257.999C301.988 272.655 299.114 289.331 299.114 301.969C299.114 309.906 298.463 317.739 297.539 325.503C297.745 325.468 297.916 325.468 298.121 325.433C300.859 336.887 301.235 349.106 301.578 361.117C302.399 389.699 303.22 418.281 304.042 446.898C304.042 449.823 314.206 447.212 314.89 447.038C314.924 446.446 314.958 445.854 315.027 445.262C316.054 430.536 316.054 415.496 317.32 400.77C318.483 387.053 318.928 372.188 321.7 358.75C322.83 353.284 322.898 348.758 322.966 343.188C323.035 336.365 323.856 329.611 324.78 322.892C326.081 312.517 327.894 302.212 328.1 291.768Z" fill="#F0E5D4"/>
<path d="M334.157 350.395C334.191 341.378 333.062 332.291 332.446 323.309C331.83 314.293 333.918 291.594 332.309 282.717C328.476 261.411 323.959 263.012 326.218 252.707C332.617 223.533 313.521 183.985 295.281 164.837C290.01 166.439 284.432 166.717 278.82 166.752C278.683 167.135 278.58 167.553 278.478 168.005C273.344 195.23 271.359 245.466 270.675 255.632C269.34 275.58 262.53 287.904 259.895 306.599C259.074 312.448 257.91 318.575 256.952 324.667C255.035 331.073 252.366 338.001 251.716 345.033C251.271 345.938 250.929 346.983 250.723 348.062C248.499 351.578 248.875 357.392 252.64 359.516C253.461 359.968 254.282 360.108 255.104 360.038C255.241 360.108 255.343 360.177 255.48 360.247C268.827 366.13 283.303 369.995 297.437 369.298C298.326 369.264 299.114 369.055 299.832 368.741C303.939 369.055 308.011 369.229 312.186 369.368C317.388 369.507 324.37 371.004 329.058 367.697C331.83 365.713 332.754 361.5 332.309 357.636C333.438 355.721 334.123 353.319 334.157 350.395Z" fill="#6D8497"/>
<path d="M295.726 207.519C287.854 212.01 267.424 223.673 258.047 222.628C267.321 213.263 275.979 202.471 280.428 196.588C285.562 189.799 283.987 178.972 282.447 171.208C281.455 166.16 275.911 166.334 273.31 169.433C271.701 169.607 270.23 170.582 269.34 172.601C260.442 193.35 243.468 211.279 239.43 234.047C238.882 237.146 240.217 241.323 243.81 241.915C265.781 245.501 280.976 222.106 299.045 213.716C306.334 210.304 298.566 205.883 295.726 207.519Z" fill="#6D8497"/>
<path d="M302.98 194.707C302.603 193.002 301.748 191.505 299.969 190.599C299.045 190.112 297.642 190.843 297.573 191.957C297.436 194.603 297.334 197.249 297.197 199.86C296.957 199.721 296.718 199.581 296.478 199.442C295.109 198.607 293.706 200.417 294.151 201.705C294.904 203.933 296.341 205.221 297.676 207.066C298.326 207.971 299.147 208.041 299.798 207.693C300.516 208.32 301.645 208.494 302.432 207.519C302.809 207.031 302.911 206.544 302.809 206.092C304.041 202.192 304.93 198.154 302.98 194.707Z" fill="#E8DBCE"/>
<path d="M288.401 171.278C287.854 171.278 287.443 171.487 287.169 171.835C287.204 171.208 286.793 170.547 286.006 170.547C285.972 170.547 285.972 170.547 285.938 170.547C286.177 169.607 285.664 168.458 284.432 168.458C284.295 168.458 284.227 168.493 284.09 168.528C284.363 167.797 283.953 166.822 282.892 166.683C282.858 166.683 282.824 166.683 282.824 166.683C282.824 166.683 282.824 166.683 282.789 166.683C282.96 165.708 282.447 164.594 281.215 164.594C279.025 164.594 279.025 168.04 281.215 168.04C281.352 168.04 281.421 168.005 281.523 167.971C281.489 168.737 281.934 169.537 282.824 169.398C282.858 169.398 282.892 169.398 282.892 169.398C282.926 169.398 282.96 169.363 283.029 169.363C282.584 170.338 283.063 171.765 284.432 171.765C284.603 171.765 284.706 171.731 284.843 171.696C284.808 172.357 285.185 173.019 286.006 173.019C286.348 173.019 286.622 172.879 286.827 172.671C286.656 173.645 287.169 174.725 288.401 174.725C290.591 174.759 290.591 171.278 288.401 171.278Z" fill="#F0F0F0"/>
<path d="M296.649 170.686C295.691 170.686 295.246 171.417 295.212 172.148C295.041 172.113 294.904 172.044 294.733 172.044C293.946 172.044 293.467 172.427 293.159 172.949C292.885 172.496 292.44 172.183 291.756 172.183C289.463 172.183 289.463 175.804 291.756 175.804C292.44 175.804 292.885 175.49 293.159 175.038C293.467 175.56 293.946 175.943 294.733 175.943C296.102 175.943 296.683 174.725 296.546 173.68C296.581 173.68 296.615 173.715 296.649 173.715C298.6 173.715 298.6 170.686 296.649 170.686Z" fill="#F0F0F0"/>
<path d="M296.65 170.547C297.984 170.547 297.984 168.458 296.65 168.458C295.315 168.423 295.315 170.547 296.65 170.547Z" fill="#F0F0F0"/>
<path d="M295.52 165.29C294.254 165.951 294.494 168.319 296.239 168.319C298.189 168.319 298.258 165.325 296.376 165.151C297.642 164.489 297.402 162.122 295.657 162.122C293.707 162.122 293.638 165.116 295.52 165.29Z" fill="#F0F0F0"/>
<path d="M377.996 205.152C378.441 204.978 379.023 204.838 379.365 205.152C379.502 205.291 379.604 205.5 379.741 205.639C380.255 206.196 381.179 205.952 381.897 205.744C383.095 205.361 384.327 205.152 385.559 205.152C386.038 205.152 386.551 205.152 386.996 205.395C387.886 205.813 388.297 206.892 388.571 207.867C388.947 209.155 389.255 210.652 388.571 211.801C387.989 212.741 386.859 213.194 385.833 213.542C382.068 214.725 378.133 215.248 374.197 215.735C373.684 215.805 373.136 215.839 372.76 215.561C372.52 215.387 372.383 215.108 372.247 214.83C371.528 213.263 370.125 210.13 371.631 208.772C373.376 207.136 375.771 205.987 377.996 205.152Z" fill="#E8DBCE"/>
<path d="M316.396 151.573C314.685 149.554 312.186 148.44 311.126 145.933C309.996 143.253 309.312 139.597 308.73 136.777C307.087 128.701 304.692 121.111 301.578 113.487C301.441 113.208 301.338 112.93 301.201 112.651C302.844 108.892 302.159 104.261 297.95 101.267C296.855 100.501 295.281 99.84 293.296 99.3178C291.79 98.3778 289.6 97.9252 287.546 98.0993C287.341 98.1341 287.136 98.1689 286.93 98.1689C271.53 96.463 247.609 100.049 248.738 112.582C248.259 113.139 247.951 113.731 247.814 114.392C247.506 116.342 248.02 117.56 249.046 118.291C248.362 119.649 247.951 121.111 247.814 122.608C247.061 123.548 246.445 124.627 245.966 125.985C244.153 131.312 245.111 137.125 246.719 142.348C248.191 147.152 250.792 151.573 250.86 156.691C250.963 162.365 247.13 163.131 242.373 164.35C232.928 166.752 227.589 172.322 227.418 182.662C227.349 187.431 228.616 192.584 231.525 196.379C234.365 200.069 239.156 204.629 243.4 206.475C245.248 207.275 247.233 207.24 248.978 206.683C257.02 208.076 265.37 206.509 270.709 199.547C271.394 198.641 271.975 197.667 272.454 196.657C274.542 194.777 276.116 192.166 276.766 188.72C278.17 181.2 272.934 175.107 266.26 174.307C265.405 173.158 264.344 172.218 263.112 171.487C267.218 168.423 270.914 165.534 272.557 160.311C275.911 149.484 269.751 137.439 261.435 130.894C260.511 130.163 260.785 129.536 259.826 129.362C259.758 129.118 259.689 128.84 259.621 128.596C263.659 127.761 262.667 122.225 260.579 118.848C261.64 117.525 262.941 116.62 264.412 115.924C266.055 115.994 267.698 116.237 268.793 116.376C271.804 116.829 274.679 117.177 277.759 117.421C281.66 117.734 285.767 118.813 289.771 118.883C289.874 119.022 289.976 119.127 290.045 119.266C290.25 119.545 290.49 119.753 290.729 119.893C292.68 124.314 294.151 128.84 295.452 133.54C296.376 136.882 296.684 140.189 297.163 143.496C295.554 144.297 294.322 145.899 294.151 148.51C293.775 154.428 294.733 160.868 297.745 166.021C298.498 167.309 299.798 168.493 300.38 169.85C300.517 170.199 300.722 170.268 300.893 170.268C300.688 170.407 300.38 170.651 299.866 171.139C297.882 172.984 296.273 174.341 295.726 177.196C293.433 189.729 309.141 192.828 315.951 184.751C322.693 176.883 323.069 159.511 316.396 151.573Z" fill="#EDEAE8"/>
<path d="M294.357 126.786C291.071 125.741 286.657 127.03 284.911 130.163C284.877 130.232 284.877 130.267 284.843 130.337C283.303 130.755 281.729 131.277 280.154 131.555C278.443 129.362 275.261 128.527 272.831 129.78C269.135 130.685 265.952 133.505 265.405 137.578C264.72 142.591 271.667 143.949 275.329 143.009C279.538 141.93 282.858 136.986 280.873 132.669C280.839 132.635 280.805 132.6 280.805 132.53C282.31 132.008 283.919 131.66 285.459 131.242C286.862 136.255 296.376 138.971 298.258 133.296C299.216 130.407 296.992 127.621 294.357 126.786ZM273.823 142.034C269.956 142.452 265.097 140.398 267.15 135.768C267.971 133.923 269.443 132.461 271.222 131.555C271.359 131.904 271.804 132.147 272.181 131.799C274.987 129.362 279.846 130.998 280.12 134.967C280.394 138.692 277.314 141.651 273.823 142.034ZM297.06 132.669C295.828 137.439 285.596 134.828 286.383 130.232V130.198C287.923 128.84 289.566 127.83 291.756 127.726C294.459 127.656 297.882 129.467 297.06 132.669Z" fill="#414141"/>
<path d="M377.927 200.382C377.654 198.537 377.38 196.518 378.064 194.917C378.851 193.071 380.665 192.445 382.308 192.166C384.19 191.818 386.107 191.679 388.023 191.748C388.844 191.783 390.761 191.783 391.445 192.375C392.438 193.245 392.369 194.917 392.506 196.413C393.191 205.5 394.08 213.054 394.286 221.375C394.32 222.524 394.286 223.847 393.635 224.613C393.225 225.1 392.643 225.274 392.095 225.379C389.084 226.04 379.981 228.268 379.467 222.315C378.851 214.969 378.988 207.728 377.927 200.382Z" fill="black" fill-opacity="0.8"/>
<path d="M378.715 198.537C378.715 197.841 378.749 197.075 379.057 196.518C379.433 195.891 380.118 195.683 380.734 195.578C383.3 195.056 385.935 194.847 388.536 194.638C388.947 194.603 390.008 194.534 390.384 194.777C390.624 194.917 391.103 195.16 391.274 195.439C391.89 196.414 391.616 197.667 391.856 198.885C392.061 199.965 391.924 201.079 392.061 202.158C392.198 203.342 392.232 204.525 392.335 205.744C392.438 207.519 392.609 209.26 392.814 211.035C392.951 212.289 393.054 213.577 393.259 214.83C393.362 215.422 393.362 216.049 393.191 216.606C392.951 217.371 392.404 217.685 391.787 217.859C390.555 218.172 389.289 218.242 388.057 218.346C386.209 218.451 384.327 218.59 382.479 218.694C381.829 218.729 380.46 219.043 380.083 218.033C379.878 217.476 379.981 216.571 379.947 215.979C379.912 215.178 379.844 214.343 379.775 213.542C379.536 210.339 379.159 207.136 378.954 203.933C378.783 202.088 378.715 200.313 378.715 198.537Z" fill="white"/>
<path d="M386.688 193.315C386.483 193.28 386.243 193.315 386.038 193.315C385.525 193.35 385.046 193.419 384.532 193.454C384.259 193.489 383.882 193.559 383.848 193.698C383.814 193.768 383.916 193.872 384.019 193.907C384.464 194.116 386.962 194.046 387.065 193.559C387.065 193.454 386.893 193.35 386.688 193.315Z" fill="#5E625E"/>
<path d="M383.574 193.594C383.506 193.489 383.369 193.489 383.266 193.524C383.164 193.594 383.095 193.733 383.095 193.837C383.095 193.942 383.095 194.011 383.129 194.081C383.232 194.22 383.437 194.255 383.54 194.116C383.643 193.977 383.677 193.768 383.608 193.628L383.574 193.594Z" fill="#5E625E"/>
<path d="M386.141 220.992C385.901 221.236 385.799 221.584 385.73 221.932C385.696 222.106 385.696 222.28 385.73 222.454C385.799 222.872 386.072 223.22 386.449 223.429C386.791 223.603 387.202 223.638 387.544 223.533C387.647 223.499 387.749 223.464 387.818 223.429C387.92 223.359 387.989 223.255 388.023 223.116C388.228 222.663 388.262 222.141 388.091 221.688C387.818 220.853 386.757 220.331 386.141 220.992Z" fill="#EBEFEB"/>
<path d="M322.453 254.726C323.001 254.657 323.582 254.622 324.13 254.796C326.32 255.492 326.389 259.008 326.046 261.619C309.346 266.354 292.029 263.673 275.192 260.993C271.77 260.436 265.473 256.571 271.017 252.951C275.192 250.201 282.037 253.334 286.417 253.96C298.326 255.666 310.441 255.91 322.453 254.726Z" fill="#8EACC4"/>
<path d="M168.253 460.172C176.289 460.028 184.36 459.847 192.253 458.441C193.209 458.26 194.377 457.899 194.554 456.925C194.802 455.627 193.174 454.869 191.864 454.653C187.616 454.003 183.262 453.859 178.979 453.751C150.696 452.957 122.413 452.164 94.1293 452.416C88.7133 452.452 83.2973 452.561 77.9168 453.282C75.2619 453.643 69.8461 453.823 68.0408 456.204C66.3062 458.477 68.4301 459.811 70.5186 460.461C77.1027 462.589 85.9523 461.11 92.7841 461.11C108.89 461.11 125.032 460.894 141.138 460.641C150.165 460.533 159.227 460.352 168.253 460.172Z" fill="url(#paint2_linear_230_30)"/>
<path d="M168.253 460.172C176.289 460.028 184.36 459.847 192.253 458.441C193.209 458.26 194.377 457.899 194.554 456.925C194.802 455.627 193.174 454.869 191.864 454.653C187.616 454.003 183.262 453.859 178.979 453.751C150.696 452.957 122.413 452.164 94.1293 452.416C88.7133 452.452 83.2973 452.561 77.9168 453.282C75.2619 453.643 69.8461 453.823 68.0408 456.204C66.3062 458.477 68.4301 459.811 70.5186 460.461C77.1027 462.589 85.9523 461.11 92.7841 461.11C108.89 461.11 125.032 460.894 141.138 460.641C150.165 460.533 159.227 460.352 168.253 460.172Z" fill="url(#paint3_linear_230_30)"/>
<path d="M138.448 133.165C137.881 128.079 131.651 124.039 126.908 125.626C122.094 127.249 119.864 132.66 117.138 136.989C114.979 140.416 112.218 143.446 109.032 145.863C107.545 147.017 105.74 148.46 106.058 150.336C106.2 151.094 106.66 151.779 107.12 152.392C108.996 154.918 110.908 157.407 113.35 159.355C115.793 161.303 118.802 162.637 121.917 162.421C127.616 162.06 131.864 156.793 133.917 151.382C135.687 146.585 139.014 138.468 138.448 133.165Z" fill="#97A8B2"/>
<path d="M113.952 226.163C113.952 226.163 91.0141 417.642 90.9433 446.031L104.642 446.428C104.642 446.428 140.465 291.781 148.89 283.267C148.89 283.267 152.395 282.618 153.74 283.267C155.085 283.917 152.961 440.945 150.696 451.479H162.094C162.094 451.479 192.359 267.792 191.156 227.281C191.156 227.281 184.749 206.936 157.881 208.775C131.014 210.615 116.642 205.962 113.952 226.163Z" fill="#998675"/>
<path d="M193.08 231.435C191.275 205.823 183.841 154.274 176.478 130.285C176.089 129.022 175.664 127.724 174.885 126.786C173.54 125.163 171.522 125.018 169.682 124.982C165.115 124.91 153.151 125.523 148.62 125.92C146.213 126.137 134.885 125.415 132.761 126.822C130.071 128.59 128.266 131.872 126.673 135.119C118.637 151.532 122.531 170.976 118.213 189.446C116.018 198.789 108.266 233.167 108.407 241.68C109.221 243.989 109.929 246.406 110.39 248.823C115.098 255.533 127.593 251.853 133.894 256.398C138.708 259.861 144.089 261.521 149.575 262.567C150.708 262.459 151.806 262.351 152.903 262.206C159.275 261.377 172.868 259.861 178.602 256.326C184.337 252.791 189.682 258.527 191.912 251.023C193.717 244.819 193.54 238.001 193.08 231.435Z" fill="#97A8B2"/>
<path d="M176.43 78.7301C175.156 75.8442 172.288 73.9684 169.315 73.1026C166.341 72.2368 163.191 72.2007 160.076 72.0564C156.607 71.9121 153.103 71.5875 149.634 71.9482C146.164 72.2729 142.66 73.319 139.97 75.5556C137.279 77.7921 135.51 81.3995 136.005 84.8986L135.793 95.2156C135.297 102.935 137.421 110.835 141.704 117.221C142.908 119.024 144.324 120.72 146.2 121.802C148.43 123.101 151.12 123.353 153.704 123.389C156.607 123.425 159.616 123.173 162.235 121.838C164.359 120.756 166.094 119.024 167.757 117.257C170.271 114.623 172.749 111.846 174.023 108.419C175.899 103.404 174.908 97.8129 175.687 92.5101C176.041 90.2014 176.713 87.9289 177.032 85.6201C177.386 83.3114 177.386 80.8584 176.43 78.7301Z" fill="#E8DBCE"/>
<path d="M106.802 444.516C101.74 443.758 91.4388 443.65 86.3415 444.155C82.2707 446.861 77.8459 449.025 73.2087 450.577C71.8636 451.046 70.4477 451.442 69.4211 452.452C68.3945 453.426 67.899 455.158 68.7132 456.348C69.4566 457.358 70.837 457.575 72.076 457.647C81.4919 458.368 96.1114 458.188 105.492 457.07C106.058 456.998 106.66 456.925 107.085 456.529C107.439 456.24 107.616 455.771 107.758 455.338C108.926 451.803 108.572 447.799 106.802 444.516Z" fill="#A58C41"/>
<path d="M166.094 445.418C166.094 445.418 149.74 446.031 148.041 447.041C146.342 448.051 144.607 457.142 147.368 458.441C150.165 459.739 181.351 456.493 181.351 456.493C181.351 456.493 183.935 452.741 176.182 450.468C168.466 448.196 167.227 448.196 166.094 445.418Z" fill="#A58C41"/>
<path d="M176.147 186.843C169.704 187.276 163.226 187.203 156.784 186.59C155.58 190.775 154.377 195.031 153.881 199.36C153.669 201.02 153.598 202.715 154.094 204.302C154.589 205.889 155.793 207.332 157.386 207.657L161.103 209.93C165.138 205.024 170.66 201.597 175.439 197.412C178.731 194.526 181.669 191.28 184.607 188.033C182.2 186.374 179.049 186.626 176.147 186.843Z" fill="black"/>
<path d="M215.262 194.671C215.51 197.376 215.616 200.226 214.271 202.607C212.395 205.925 208.289 207.188 204.536 207.224C195.439 207.332 187.156 202.138 179.934 196.474C178.412 195.284 176.89 194.057 175.05 193.408C172.678 192.578 170.058 192.903 167.616 192.434C167.191 192.362 166.696 192.217 166.483 191.821C166.306 191.532 166.342 191.171 166.377 190.811C166.625 188.358 166.908 185.905 167.191 183.452C170.837 182.73 174.448 184.57 177.881 185.977C181.35 187.384 184.961 188.43 188.572 189.44C190.306 189.945 192.112 190.414 193.917 190.378C195.722 190.342 197.634 189.692 198.766 188.286C199.828 186.987 200.112 185.219 199.97 183.524C199.793 181.864 199.191 180.277 198.589 178.69C196.359 172.954 193.917 167.255 190.129 162.457C188.89 160.906 187.439 159.21 187.616 157.226C187.758 155.819 188.713 154.629 189.881 153.871C191.05 153.15 192.43 152.789 193.775 152.537C195.97 152.104 199.439 151.021 201.457 152.537C203.687 154.196 204.678 158.525 205.74 161.014C208.643 167.94 211.262 175.01 213.067 182.333C214.129 186.41 214.873 190.522 215.262 194.671Z" fill="#E8DBCE"/>
<path d="M170.625 187.817C170.625 189.368 169.563 190.702 168.501 191.821C166.66 193.733 164.536 195.428 162.058 196.366C159.581 197.304 156.713 197.34 154.412 196.077C152.112 194.815 150.519 192.073 150.943 189.44C151.297 187.276 152.926 185.508 154.802 184.462C156.678 183.416 158.837 182.983 160.961 182.586C164.749 181.864 170.625 182.333 170.625 187.817Z" fill="#E8DBCE"/>
<path d="M205.08 151.857C202.815 143.38 196.549 136.67 190.531 130.393C185.505 125.163 174.354 121.267 170.284 130.105C167.027 137.211 173.399 149.801 175.629 156.511C176.266 158.386 177.116 160.515 178.921 161.236C179.7 161.525 180.514 161.561 181.363 161.525C189.08 161.344 196.762 159.216 203.487 155.356C204.195 154.959 204.939 154.454 205.186 153.661C205.399 153.084 205.257 152.47 205.08 151.857Z" fill="#97A8B2"/>
<path d="M155.227 75.6277C156.076 75.5556 156.749 74.9063 157.28 74.2209C157.952 75.8803 160.607 76.0968 161.527 74.5456C161.881 75.7721 163.828 76.0606 164.501 74.9423C164.359 75.5917 164.996 76.241 165.634 76.3132C166.271 76.4214 166.943 76.1328 167.545 75.8442C167.297 77.1428 169.032 78.2612 170.094 77.4675C169.704 79.1269 171.05 80.9667 172.713 81.0028C171.722 82.6261 172.43 85.043 174.129 85.8366C173.032 86.991 173.103 89.1193 174.271 90.2015C173.244 91.0312 173.351 92.907 174.448 93.5924C173.952 94.0975 174.023 94.8911 174.129 95.6125C174.271 96.7669 174.448 97.9573 174.589 99.1117C173.74 99.5446 174.058 101.132 174.979 101.204C173.917 102.286 173.917 104.198 174.943 105.28C174.342 105.677 173.881 106.29 173.704 106.976C173.704 107.625 174.696 107.517 175.227 107.192C177.457 105.821 179.687 104.378 181.811 102.863C182.342 102.503 182.873 102.106 183.156 101.493C183.439 100.915 183.333 100.086 182.802 99.761C183.687 99.4002 184.607 99.0396 185.174 98.246C185.74 97.4523 185.704 96.1536 184.89 95.6847C185.74 95.8289 186.554 95.2157 187.05 94.4943C187.545 93.7728 187.793 92.9071 188.218 92.1495C188.89 90.8869 189.988 89.3719 189.138 88.2175C189.421 87.6403 189.988 87.2796 190.483 86.8467C190.979 86.4499 191.474 85.9088 191.474 85.2594C191.474 84.6101 190.766 83.9608 190.236 84.3215C191.545 83.6 192.395 82.0489 192.324 80.5338C192.678 79.5959 192.997 78.658 193.244 77.684C192.89 77.5397 192.536 77.4314 192.147 77.2871C192.961 76.0245 193.669 74.0766 192.466 73.2109C193.705 72.9584 194.2 71.0825 193.244 70.2167C192.997 70.0003 192.713 69.856 192.572 69.5674C192.182 68.9181 192.82 68.1606 192.961 67.4391C193.209 66.2487 191.864 65.0221 190.696 65.455C191.05 63.8677 189.74 62.1002 188.147 62.028C187.828 62.028 187.474 62.0641 187.191 61.8837C186.837 61.6673 186.731 61.1983 186.589 60.8376C186.2 59.8636 185.28 59.106 184.253 58.9257C183.793 58.8535 183.297 58.8535 182.908 58.601C182.483 58.2764 182.306 57.6992 181.952 57.3024C180.82 56.112 178.589 57.4106 177.386 56.3284C176.855 55.8594 176.713 55.0658 176.112 54.669C175.297 54.1279 174.165 54.7411 173.209 54.6329C171.899 54.4886 170.837 53.1179 169.563 53.3704C169.032 53.4786 168.607 53.8393 168.076 53.9115C167.156 54.0197 166.412 53.19 165.634 52.6489C164.855 52.1078 163.439 52.1078 163.333 53.0458C162.342 51.2782 159.439 51.0977 158.235 52.7571C158.377 52.216 157.28 52.1439 157.315 52.685C156.43 52.3243 155.51 51.9274 154.554 51.9635C153.598 51.9635 152.572 52.4686 152.218 53.3704C151.085 52.7932 149.634 52.2161 148.643 53.0458C148.253 53.3704 148.041 53.8393 147.651 54.1279C146.873 54.7051 145.811 54.4165 144.855 54.4526C143.899 54.4886 142.731 55.3544 143.191 56.2201C142.306 56.0398 141.35 55.8955 140.501 56.2201C139.651 56.5448 139.014 57.591 139.368 58.4207C137.952 58.4928 136.749 59.8637 136.819 61.2705C136.819 61.5952 136.89 61.9559 136.749 62.2806C136.607 62.6053 136.218 62.7496 135.935 62.966C134.66 63.7596 134.165 65.5632 134.802 66.934C133.881 67.1865 132.961 67.5112 132.324 68.1966C131.687 68.882 131.439 70.0364 131.97 70.7939C132.182 71.0825 132.465 71.2989 132.572 71.6596C132.678 72.1286 132.324 72.5615 132.076 73.0304C131.545 74.0766 131.935 75.5557 132.961 76.1328C131.581 76.9265 131.262 79.0909 132.324 80.3174C131.12 81.9046 131.51 84.2133 132.005 86.1613C132.288 87.3156 132.572 88.47 132.819 89.6243C132.182 90.4901 132.466 91.9331 133.421 92.4742C132.713 93.1235 132.996 94.5304 133.881 94.855C133.952 96.4062 134.483 97.9212 135.368 99.1838C135.581 99.6888 136.253 99.0756 136.395 98.5706C137.067 95.9012 137.74 93.2677 138.412 90.5983C138.766 89.1553 139.12 87.496 138.271 86.2695C139.368 85.512 140.041 84.1772 140.111 82.8425C141.669 83.2393 143.262 81.3635 142.66 79.8484C144.289 80.1731 145.952 78.4776 145.634 76.8182C147.12 77.3593 148.926 76.0967 148.997 74.5095C149.421 75.5195 151.262 75.1588 151.262 74.0405C151.262 74.5816 153.067 74.2209 153.28 74.3292C154.094 74.726 154.094 75.736 155.227 75.6277Z" fill="#333333"/>
<path d="M160.82 206.034C161.209 207.332 161.315 208.775 161.174 210.146C138.094 211.95 114.979 212.707 91.8636 212.383C90.0229 203.545 96.4654 206.07 101.527 206.466C108.218 207.008 114.908 207.332 121.598 207.477C125.138 207.513 160.572 205.096 160.82 206.034Z" fill="#F7F7F7"/>
<path d="M89.4212 144.673C113.704 143.987 136.041 143.735 159.651 141.354C160.643 161.555 162.377 188.213 160.112 208.27C143.97 210.182 125.881 208.126 109.669 209.172C105.704 209.425 101.598 210.038 97.6336 209.857C93.669 209.677 92.8902 206.467 92.3946 201.813C91.4035 192.326 91.7222 182.369 91.1558 172.81C91.0142 169.96 90.4832 144.817 89.4212 144.673Z" fill="#333333"/>
<path d="M131.51 182.73C128.501 179.159 126.908 174 125.209 169.672C124.926 168.95 124.005 168.734 123.581 169.455C120.926 173.856 118.554 178.401 116.43 183.091C115.935 184.137 117.492 185.075 117.988 184.029C122.306 183.849 126.625 183.957 130.908 184.281C131.722 184.353 131.97 183.271 131.51 182.73ZM118.873 182.189C120.501 178.726 122.271 175.335 124.218 172.052C125.563 175.588 126.943 179.303 129.032 182.369C124.749 182.009 121.881 182.009 118.873 182.189Z" fill="white"/>
<path d="M114.412 211.048C115.545 210.11 116.749 209.028 117.067 207.585C117.386 206.142 116.749 204.627 115.828 203.508C114.873 202.39 113.669 201.561 112.501 200.659C110.66 199.216 108.961 197.484 106.873 196.474C104.784 195.464 102.058 195.32 100.288 196.871C99.1911 197.845 98.6601 199.252 98.2354 200.659C97.2088 204.014 96.5716 207.513 96.3946 211.012C96.3238 212.347 96.3238 213.717 96.9255 214.872C97.5981 216.134 98.9079 216.928 100.253 217.289C105.457 218.659 110.66 214.186 114.412 211.048Z" fill="#E8DBCE"/>
<path d="M402.684 326.649C402.36 326.245 402.072 325.841 401.748 325.438C401.64 325.328 401.568 325.181 401.461 325.071C398.223 321.145 394.193 318.173 389.732 318.173C385.019 318.173 379.191 320.044 377.428 324.777C380.918 330.428 385.666 334.758 390.811 338.831C392.898 340.482 395.416 342.61 398.115 343.05C398.366 343.16 398.582 343.307 398.834 343.417C400.021 342.83 401.209 342.17 402.396 341.509C404.195 340.445 407.073 339.198 408.296 337.253C407.109 333.951 405.166 330.061 402.684 326.649Z" fill="black" fill-opacity="0.8"/>
<path d="M394.23 338.653C395.237 339.589 396.1 340.598 397.035 341.57C400.451 340.742 403.939 339.553 405.27 336.6C403.148 332.567 398.725 327.201 398.221 326.589C397.358 325.544 396.495 324.464 395.596 323.419C393.187 320.646 390.022 321.151 386.642 321.619C384.7 321.907 378.515 323.636 382.219 326.625C382.65 326.949 383.082 327.309 383.477 327.633C387.038 331.342 390.526 335.16 394.23 338.653Z" fill="#F0F0F0"/>
<path d="M392.847 331.103C391.657 331.103 391.657 332.949 392.847 332.949C394.077 332.989 394.077 331.103 392.847 331.103Z" fill="#CACACA"/>
<path d="M396.446 329.256H395.936C394.662 329.256 394.662 331.103 395.936 331.103H396.446C397.72 331.103 397.72 329.256 396.446 329.256Z" fill="#CACACA"/>
<path d="M399.063 331.821C396.968 332.856 394.834 333.712 392.587 334.354C391.482 334.675 391.939 336.28 393.082 335.995C395.482 335.317 397.768 334.39 399.977 333.284C401.005 332.784 400.091 331.322 399.063 331.821Z" fill="#CACACA"/>
<path d="M398.276 335.476C397.34 335.913 396.438 336.314 395.502 336.752C394.566 337.189 395.001 338.83 395.937 338.429C396.872 337.991 397.775 337.59 398.711 337.153C399.613 336.715 399.212 335.074 398.276 335.476Z" fill="#CACACA"/>
<path d="M444.606 458.515C450.068 458.664 455.53 458.403 460.992 458.142C476.256 457.433 491.485 456.761 506.749 456.052C509.137 455.941 512.211 455.194 512.392 452.732C512.573 450.531 510.186 449.151 508.16 448.554C500.889 446.353 493.221 446.055 485.661 445.794C474.52 445.458 463.379 445.197 452.202 445.048C445.221 444.936 438.095 444.936 431.548 447.51C428.003 448.927 422.686 454.709 428.292 457.321C429.848 458.067 432.995 457.657 434.695 457.806C437.986 458.142 441.278 458.403 444.606 458.515Z" fill="url(#paint4_linear_230_30)"/>
<path d="M468.307 229.823C472.604 234.378 473.181 241.283 473.506 247.601C474.048 257.958 474.589 268.353 475.131 278.711C467.946 275.993 463.721 268.537 460.905 261.301C457.439 252.302 455.273 242.458 457.295 233.019C457.692 231.109 458.378 229.088 459.966 227.95C462.53 226.113 466.177 227.546 468.307 229.823Z" fill="#E8D9A9"/>
<path d="M441.264 388.571C442.058 399.48 442.455 410.389 442.455 421.334C442.455 425.118 442.383 429.011 441.697 432.684C442.166 433.786 442.419 434.925 442.419 436.173V436.284C442.419 438.598 441.516 440.838 439.892 442.454C438.808 443.556 437.545 444.291 436.1 444.695C436.028 444.732 435.992 444.732 435.92 444.768C435.884 444.768 435.848 444.768 435.812 444.805C434.259 447.046 432.923 449.323 432.598 452.151C436.606 450.498 440.505 448.478 444.26 446.091C445.705 445.172 447.113 444.181 448.196 442.748C450.182 440.104 450.687 436.394 451.121 432.904L458.017 377.662L441.264 388.571Z" fill="#F2E4D7"/>
<path d="M432.923 452.665C432.381 452.923 431.84 453.143 431.262 453.253C430.721 453.327 430.107 453.29 429.601 453.106C427.652 452.408 426.749 449.874 427.29 447.817C427.868 445.797 429.565 444.254 431.443 443.336C433.32 442.418 435.378 442.014 437.4 441.463C438.303 441.206 439.242 440.912 439.928 440.251C441.047 439.149 441.119 437.349 441.047 435.733C440.939 433.639 440.722 431.582 440.361 429.525C444.044 429.305 447.69 429.121 451.373 428.901C451.012 433.382 450.651 437.826 450.29 442.307C450.218 442.969 450.182 443.666 449.857 444.291C449.315 445.319 448.232 445.834 447.185 446.311C442.455 448.441 437.689 450.572 432.923 452.665Z" fill="#AA3959"/>
<path d="M458.053 387.396C458.811 397.864 460.075 415.751 460.075 426.256C460.075 429.893 460.002 433.639 459.316 437.165C459.75 438.23 460.002 439.332 460.002 440.508V440.618C460.002 442.822 459.136 444.989 457.583 446.568C456.536 447.596 455.345 448.331 453.937 448.735C453.901 448.772 453.828 448.772 453.792 448.809C453.756 448.809 453.72 448.809 453.72 448.845C452.24 450.976 450.94 453.179 450.651 455.897C454.514 454.318 458.233 452.371 461.844 450.057C463.216 449.176 464.588 448.258 465.635 446.862C467.549 444.327 468.054 440.765 468.451 437.422L475.095 384.384L458.053 387.396Z" fill="#F2E4D7"/>
<path d="M450.976 456.338C450.471 456.559 449.929 456.816 449.387 456.889C448.846 456.963 448.304 456.926 447.799 456.742C445.921 456.044 445.055 453.62 445.596 451.674C446.138 449.727 447.799 448.258 449.604 447.376C451.409 446.495 453.395 446.091 455.309 445.576C456.175 445.319 457.078 445.025 457.728 444.401C458.811 443.336 458.883 441.609 458.811 440.067C458.703 438.083 458.486 436.1 458.125 434.117C461.664 433.933 465.166 433.712 468.704 433.529C468.343 437.826 468.018 442.124 467.657 446.384C467.621 447.046 467.549 447.707 467.26 448.294C466.755 449.286 465.671 449.8 464.696 450.241C460.111 452.261 455.525 454.318 450.976 456.338Z" fill="#AA3959"/>
<path d="M436.858 278.748C437.978 278.307 439.241 278.711 440.397 279.042C444.296 280.254 448.448 280.768 452.601 280.658C455.2 280.584 457.98 280.254 460.255 281.356C462.494 282.458 463.685 284.661 464.407 286.792C465.924 291.163 466.249 295.791 467.187 300.308C468.162 304.789 469.787 309.16 471.448 313.495C477.008 327.893 483.074 342.107 489.645 356.175C494.881 367.341 500.441 378.397 506.652 389.159C497.625 394.301 487.01 397.239 476.286 397.533C474.986 397.57 473.651 397.57 472.423 397.166C470.437 396.542 468.993 394.999 467.26 393.934C461.447 390.408 453.612 392.464 446.679 393.566C441.119 394.448 435.45 394.632 429.818 394.742C427.29 394.778 424.402 394.705 422.669 393.089C420.394 390.959 421.333 387.543 422.235 384.714C426.496 370.904 425.16 356.285 425.196 341.96C425.232 321.465 428.193 300.933 434.981 281.356C435.27 280.327 435.739 279.189 436.858 278.748Z" fill="#FCEE9F"/>
<path d="M441.589 229.639C438.267 228.207 434.873 227.032 431.407 226.113C430.36 225.82 429.24 225.599 428.229 225.93C426.352 226.517 425.521 228.758 425.124 230.705C422.958 241.173 425.196 252.045 427.435 262.513C427.904 264.643 428.374 266.81 429.457 268.684C432.49 273.863 439.206 275.222 445.091 275.736C446.607 275.883 448.124 275.956 449.568 275.515C451.843 274.781 453.431 272.724 454.587 270.594C457.511 265.268 458.558 259.024 458.775 252.89C459.064 245.287 457.836 236.875 452.276 231.77C448.485 228.28 443.358 226.921 438.411 225.673C435.451 224.901 431.876 224.277 429.674 226.407L441.589 229.639Z" fill="#F2E4D7"/>
<path d="M452.673 223.175C445.777 220.861 438.086 220.53 431.37 223.322C424.654 226.113 419.202 232.394 418.264 239.704C418.155 240.548 418.155 241.503 418.697 242.128C419.238 242.752 420.141 242.826 420.972 242.899C427.146 243.303 433.356 243.744 439.53 244.148C439.747 240.438 441.624 236.839 444.513 234.561C447.221 245.874 450.109 257.554 456.861 266.957C461.916 261.191 465.996 254.249 466.899 246.572C467.837 238.896 465.093 230.521 458.847 226.113C457.005 224.828 454.875 223.91 452.673 223.175Z" fill="#E8D9A9"/>
<path d="M460.688 230.558C462.168 230.925 463.685 231.292 464.912 232.211C466.14 233.129 466.97 234.745 466.537 236.214C465.959 238.234 463.251 238.932 461.374 238.014C459.497 237.096 458.378 235.149 457.547 233.239C456.536 230.852 455.814 228.244 456.284 225.709C456.753 223.175 458.702 220.788 461.23 220.494C461.049 222.955 460.363 225.379 459.208 227.546C460.76 226.554 462.421 225.526 464.262 225.526C466.104 225.562 468.017 227.142 467.692 228.978C465.598 230.227 463.107 230.815 460.688 230.558Z" fill="#AA3959"/>
<path d="M449.495 307.875C449.207 304.128 445.524 300.529 442.022 301.741C439.35 302.659 438.122 305.708 437.003 308.316C431.37 321.502 420.683 332.264 407.829 338.177C405.266 337.406 402.702 336.598 400.102 335.827C399.958 337.553 400.608 339.243 401.691 340.565C400.536 340.932 399.38 341.263 398.225 341.556C397.214 341.814 396.095 342.107 395.625 343.062C395.084 344.164 395.878 345.597 396.961 346.148C398.08 346.662 399.38 346.552 400.608 346.368C418.517 343.834 434.945 333.072 445.596 318.196C447.762 315.111 449.784 311.621 449.495 307.875Z" fill="#F2E4D7"/>
<defs>
<linearGradient id="paint0_linear_230_30" x1="258.963" y1="459.591" x2="366.623" y2="456.584" gradientUnits="userSpaceOnUse">
<stop stop-color="white"/>
<stop offset="1"/>
</linearGradient>
<linearGradient id="paint1_linear_230_30" x1="258.963" y1="459.591" x2="366.623" y2="456.584" gradientUnits="userSpaceOnUse">
<stop/>
<stop offset="1"/>
</linearGradient>
<linearGradient id="paint2_linear_230_30" x1="67.4" y1="457.009" x2="194.612" y2="457.009" gradientUnits="userSpaceOnUse">
<stop stop-color="#4D4D4D"/>
<stop offset="1"/>
</linearGradient>
<linearGradient id="paint3_linear_230_30" x1="67.4" y1="457.009" x2="194.612" y2="457.009" gradientUnits="userSpaceOnUse">
<stop/>
<stop offset="1"/>
</linearGradient>
<linearGradient id="paint4_linear_230_30" x1="426.035" y1="450.141" x2="512.333" y2="454.268" gradientUnits="userSpaceOnUse">
<stop/>
<stop offset="1"/>
</linearGradient>
</defs>
</svg>
