<svg width="24" height="24" viewBox="0 0 24 24" fill="none" xmlns="http://www.w3.org/2000/svg">
<g clip-path="url(#clip0_379_47)">
<path d="M1.72996 1.76995L2.84996 0.789951C3.86996 -0.230049 5.59996 -0.280049 6.69996 0.839951L8.56996 3.28995C9.61996 4.33995 9.61996 6.04995 8.56996 7.08995L7.07996 8.61995C8.69996 12.42 11.69 15.42 15.37 16.92L16.9 15.43C17.41 14.92 18.08 14.64 18.8 14.64C19.52 14.64 20.19 14.92 20.65 15.39L23.19 17.35C24.24 18.4 24.24 20.1099 23.21 21.1299L22.19 22.2999C21.09 23.4 19.61 24.01 18 24.01C10.25 24.01 -0.0200386 13.73 -0.0200386 5.98995C-0.0200386 4.38995 0.58996 2.89995 1.70996 1.77995L1.72996 1.76995ZM18.02 23C19.36 23 20.59 22.5 21.48 21.61L22.5 20.43C23.16 19.77 23.16 18.7 22.55 18.08L20.01 16.12C19.69 15.8 19.27 15.62 18.81 15.62C18.35 15.62 17.93 15.8 17.61 16.12L15.84 17.85C15.7 17.99 15.5 18.0299 15.31 17.9599C11.14 16.3699 7.74996 12.98 6.01996 8.67995C5.94996 8.49995 5.98996 8.28995 6.12996 8.13995L7.85996 6.36995C8.51996 5.70995 8.51996 4.63995 7.81996 3.92995L5.94996 1.47995C5.28996 0.819951 4.21996 0.819951 3.52996 1.49995L2.40996 2.47995C1.49996 3.38995 0.999962 4.61995 0.999962 5.95995C0.999962 13.12 10.86 22.9799 18.02 22.9799V23Z" fill="black"/>
</g>
<defs>
<clipPath id="clip0_379_47">
<rect width="24" height="24" fill="white" transform="matrix(-1 0 0 1 24 0)"/>
</clipPath>
</defs>
</svg>
