<svg width="80" height="80" viewBox="0 0 80 80" fill="none" xmlns="http://www.w3.org/2000/svg">
<path d="M80 23.4423C80 18.9984 78.22 14.7645 74.98 11.5241C59.6167 -3.84135 20.3833 -3.84135 5.02 11.5241C1.78 14.7645 0 18.9984 0 23.439V33.4704L13.8467 33.3503L5.08333 49.4092C1.75667 55.5134 0 62.4143 0 69.3652V80H80V69.3652C80 62.4143 78.2433 55.5134 74.9133 49.4092L66.14 33.327H80V23.4423ZM71.9867 51.0061C75.05 56.6235 76.6667 62.971 76.6667 69.3652V76.6662H3.33333V69.3652C3.33333 62.971 4.95 56.6202 8.01 51.0061L17.6567 33.3203H17.6867L22.0933 24.7425C23.77 23.7791 30.9533 19.9919 39.9967 19.9919C49.04 19.9919 56.2233 23.7791 57.9 24.7425L62.3133 33.327H62.34L71.98 51.0061H71.9867ZM76.6667 29.9932H64.35L60.4433 22.3889C60.4433 22.3889 51.31 16.6581 40 16.6581C28.69 16.6581 19.5567 22.3889 19.5567 22.3889L15.6433 29.9999L3.33333 30.1066V23.439C3.33333 19.8885 4.76667 16.4947 7.37667 13.881C14.39 6.86676 27.1933 3.35962 40 3.35962C52.8067 3.35962 65.6133 6.86676 72.6233 13.881C75.2333 16.4914 76.67 19.8852 76.6667 23.439V29.9932ZM40 29.9932C28.97 29.9932 20 38.9644 20 49.9959C20 61.0274 28.97 69.9986 40 69.9986C51.03 69.9986 60 61.0274 60 49.9959C60 38.9644 51.03 29.9932 40 29.9932ZM40 66.6649C30.81 66.6649 23.3333 59.1872 23.3333 49.9959C23.3333 40.8047 30.81 33.327 40 33.327C49.19 33.327 56.6667 40.8047 56.6667 49.9959C56.6667 59.1872 49.19 66.6649 40 66.6649ZM40 43.3284C36.3233 43.3284 33.3333 46.3188 33.3333 49.9959C33.3333 53.6731 36.3233 56.6635 40 56.6635C43.6767 56.6635 46.6667 53.6731 46.6667 49.9959C46.6667 46.3188 43.6767 43.3284 40 43.3284ZM40 53.3297C38.16 53.3297 36.6667 51.8329 36.6667 49.9959C36.6667 48.159 38.16 46.6622 40 46.6622C41.84 46.6622 43.3333 48.159 43.3333 49.9959C43.3333 51.8329 41.84 53.3297 40 53.3297Z" fill="#3D1E9D"/>
</svg>
