<svg width="24" height="24" viewBox="0 0 24 24" fill="none" xmlns="http://www.w3.org/2000/svg">
<g clip-path="url(#clip0_148_181)">
<path d="M17.032 7.084C15.688 5.74 13.901 5 12 5C10.099 5 8.312 5.74 6.968 7.084C6.773 7.279 6.456 7.279 6.261 7.084C6.066 6.889 6.066 6.572 6.261 6.377C7.794 4.844 9.832 4 12 4C14.168 4 16.206 4.844 17.739 6.377C17.934 6.572 17.934 6.889 17.739 7.084C17.544 7.279 17.227 7.279 17.032 7.084ZM9.232 9.146C9.037 9.341 9.037 9.658 9.232 9.853C9.427 10.048 9.744 10.048 9.939 9.853C11.039 8.751 12.96 8.751 14.06 9.853C14.255 10.048 14.572 10.048 14.767 9.853C14.962 9.658 14.962 9.341 14.767 9.146C13.29 7.667 10.708 7.667 9.232 9.146ZM4.321 4.181C6.371 2.13 9.098 1 12 1C14.902 1 17.629 2.13 19.679 4.181C19.874 4.376 20.191 4.376 20.386 4.181C20.581 3.986 20.581 3.669 20.386 3.474C18.146 1.233 15.169 0 12 0C8.831 0 5.854 1.233 3.614 3.474C3.419 3.669 3.419 3.986 3.614 4.181C3.809 4.376 4.126 4.376 4.321 4.181ZM24 19V20C24 22.206 22.206 24 20 24H4C1.794 24 -2.03034e-06 22.206 -2.03034e-06 20V19C-2.03034e-06 16.794 1.794 15 4 15H5.617L0.070998 5.757C-0.072002 5.521 0.00599797 5.213 0.242998 5.071C0.476998 4.928 0.785998 5.006 0.928998 5.243L6.783 15H17.217L23.071 5.243C23.214 5.006 23.523 4.929 23.757 5.071C23.994 5.213 24.071 5.52 23.929 5.757L18.383 15H20C22.206 15 24 16.794 24 19ZM23 19C23 17.346 21.654 16 20 16H4C2.346 16 0.999998 17.346 0.999998 19V20C0.999998 21.654 2.346 23 4 23H20C21.654 23 23 21.654 23 20V19ZM4 18.5C3.448 18.5 3 18.948 3 19.5C3 20.052 3.448 20.5 4 20.5C4.552 20.5 5 20.052 5 19.5C5 18.948 4.552 18.5 4 18.5ZM7 18.5C6.448 18.5 6 18.948 6 19.5C6 20.052 6.448 20.5 7 20.5C7.552 20.5 8 20.052 8 19.5C8 18.948 7.552 18.5 7 18.5ZM21 19H13C12.724 19 12.5 19.224 12.5 19.5C12.5 19.776 12.724 20 13 20H21C21.276 20 21.5 19.776 21.5 19.5C21.5 19.224 21.276 19 21 19Z" fill="#3D1E9D"/>
</g>
<defs>
<clipPath id="clip0_148_181">
<rect width="24" height="24" fill="white"/>
</clipPath>
</defs>
</svg>
