<svg width="80" height="80" viewBox="0 0 80 80" fill="none" xmlns="http://www.w3.org/2000/svg">
<path d="M80.0033 18.3333V52.0033C80.0033 58.68 77.4033 64.96 72.68 69.68L62.8467 79.5133C62.52 79.84 62.0933 80 61.6667 80C61.24 80 60.8133 79.8367 60.4867 79.5133C59.8367 78.8633 59.8367 77.8067 60.4867 77.1567L70.32 67.3233C74.4133 63.23 76.6667 57.79 76.6667 52.0033V18.3333C76.6667 15.5767 74.4233 13.3333 71.6667 13.3333C68.91 13.3333 66.6667 15.5767 66.6667 18.3333C66.6667 18.3333 66.66 45.15 66.65 45.2233C66.6 47.0467 65.9567 48.86 64.72 50.3333L55.9267 59.4867C55.6 59.8267 55.1633 59.9967 54.7267 59.9967C54.31 59.9967 53.8933 59.8433 53.57 59.53C52.9067 58.8933 52.8867 57.8367 53.5233 57.1733L62.2433 48.1033C62.97 47.2367 63.3367 46.1333 63.3367 45.0233C63.3367 45.0133 63.3367 45.0067 63.3367 44.9967V44.87C63.3033 43.72 62.88 42.5667 62.0633 41.6533C60.23 39.61 57.0733 39.4333 55.02 41.2667L45.9233 49.64C44.2033 51.22 42.8267 53.0833 41.82 55.1833C42.81 57.6933 43.34 60.39 43.34 63.1333V78.33C43.34 79.25 42.5933 79.9967 41.6733 79.9967C40.7533 79.9967 40.0067 79.25 40.0067 78.33V63.1333C40.0067 58.02 37.85 53.1033 34.0867 49.6433L24.9733 41.2567C22.9433 39.4367 19.7833 39.61 17.9467 41.6567C16.3 43.4933 16.2567 46.3033 17.84 48.19L26.4833 57.1733C27.12 57.8367 27.1 58.8933 26.4367 59.53C25.77 60.1667 24.7167 60.1467 24.08 59.4833L15.36 50.4133C14.11 48.9267 13.45 47.13 13.37 45.3267C13.35 45.22 13.3367 18.3267 13.3367 18.3267C13.3367 15.57 11.0933 13.3267 8.33667 13.3267C5.58 13.3267 3.33667 15.57 3.33667 18.3267V51.9967C3.33667 57.7833 5.59 63.2267 9.68333 67.3167L19.5167 77.15C20.1667 77.8 20.1667 78.8567 19.5167 79.5067C19.19 79.8333 18.7633 79.9933 18.3367 79.9933C17.91 79.9933 17.4833 79.83 17.1567 79.5067L7.32333 69.6733C2.6 64.95 0 58.6733 0 51.9967V18.3333C0 13.74 3.74 10 8.33333 10C12.9267 10 16.6667 13.74 16.6667 18.3333V38.3267C19.7767 35.9967 24.2067 36.1 27.2067 38.7867L36.3367 47.19C37.7567 48.4967 38.9833 49.9833 39.9967 51.5933C41.0133 49.9767 42.24 48.5033 43.6633 47.19L52.7767 38.8033C55.79 36.1033 60.2233 35.9967 63.3333 38.3267V18.3333C63.3333 13.74 67.0733 10 71.6667 10C76.26 10 80.0033 13.74 80.0033 18.3333ZM23.3367 9.76667C23.3367 4.38 27.4467 0 32.5033 0C35.71 0 38.3867 1.38333 40.0033 3.63333C41.62 1.38333 44.2967 0 47.5033 0C52.56 0 56.67 4.38 56.67 9.76667C56.67 16.8167 48.1733 25.46 43.6833 29.0433C42.6 29.9067 41.3033 30.3367 40.0033 30.3367C38.7033 30.3367 37.41 29.9067 36.3267 29.0433C31.8333 25.46 23.3367 16.82 23.3367 9.76667ZM26.67 9.76667C26.67 14.8067 33.5333 22.55 38.4067 26.4333C39.3467 27.1867 40.6633 27.1867 41.6033 26.4333C46.4733 22.5467 53.3367 14.8067 53.3367 9.76667C53.3367 6.22 50.72 3.33333 47.5033 3.33333C44.07 3.33333 41.67 5.67667 41.67 9.03C41.67 9.95 40.9233 10.6967 40.0033 10.6967C39.0833 10.6967 38.3367 9.95 38.3367 9.03C38.3367 5.67667 35.9367 3.33333 32.5033 3.33333C29.2867 3.33333 26.67 6.22 26.67 9.76667Z" fill="#3D1E9D"/>
</svg>
