<svg width="39" height="39" viewBox="0 0 39 39" fill="none" xmlns="http://www.w3.org/2000/svg">
<path d="M19.5 0C8.72782 0 0 8.72782 0 19.5C0 30.2722 8.72782 39 19.5 39C30.2722 39 39 30.2722 39 19.5C39 8.72782 30.2722 0 19.5 0ZM28.5423 13.2647C28.2514 16.347 26.9776 23.8325 26.3329 27.2843C26.0577 28.7468 25.523 29.2343 25.004 29.2815C23.8718 29.3837 23.0147 28.5345 21.9139 27.8111C20.1998 26.6867 19.2248 25.9869 17.5657 24.8861C15.6393 23.6202 16.8895 22.9204 17.9825 21.7802C18.2734 21.4815 23.2585 16.9446 23.3528 16.5357C23.3685 16.4806 23.3764 16.2919 23.2585 16.1897C23.1405 16.0875 22.9754 16.1268 22.8575 16.1504C22.6845 16.1897 19.9403 17.9982 14.6329 21.5837C13.8544 22.1183 13.1468 22.3778 12.5177 22.3621C11.8179 22.3464 10.4812 21.969 9.48266 21.6466C8.26391 21.2534 7.28891 21.0411 7.3754 20.3649C7.42258 20.0111 7.90222 19.6573 8.82218 19.2877C14.5071 16.8109 18.297 15.1754 20.1919 14.3891C25.6095 12.1403 26.7339 11.7472 27.4651 11.7315C27.6302 11.7315 27.9841 11.7708 28.22 11.9595C28.3772 12.0931 28.4716 12.2819 28.4952 12.4863C28.5345 12.7379 28.5423 12.9974 28.5266 13.2569L28.5423 13.2647Z" fill="black"/>
</svg>
