<svg width="39" height="39" viewBox="0 0 39 39" fill="none" xmlns="http://www.w3.org/2000/svg">
<path d="M2.74219 2.74219C0 5.48438 0 9.89799 0 18.7165V20.2835C0 29.102 0 33.5156 2.74219 36.2578C5.48438 39 9.89799 39 18.7165 39H20.2748C29.102 39 33.5156 39 36.2491 36.2578C38.9826 33.5156 39 29.102 39 20.2835V18.7252C39 9.89799 39 5.48438 36.2578 2.75089C33.5156 0.0174107 29.102 0 20.2835 0H18.7165C9.89799 0 5.48438 0 2.74219 2.74219ZM6.58125 11.8654H11.0297C11.1777 19.3085 14.4596 22.4598 17.0625 23.1127V11.8654H21.2585V18.2812C23.8266 18.0027 26.5252 15.0777 27.4306 11.8654H31.6266C31.2871 13.5368 30.5993 15.1125 29.6156 16.5054C28.6319 17.8982 27.3783 19.0734 25.9158 19.9527C27.5438 20.7623 28.9801 21.9027 30.1292 23.3042C31.2783 24.7058 32.1228 26.3424 32.5929 28.0922H27.979C27.5525 26.5688 26.6906 25.2107 25.4893 24.1748C24.2879 23.1388 22.8167 22.4859 21.2498 22.2944V28.0922H20.7449C11.8567 28.0922 6.79018 21.9984 6.57254 11.8567L6.58125 11.8654Z" fill="black"/>
</svg>
