<svg width="181" height="40" viewBox="0 0 181 40" fill="none" xmlns="http://www.w3.org/2000/svg">
<path d="M2.18705 38.3555L0.456285 34.0526H0.430329C0.449921 34.3137 0.456285 34.5814 0.456285 34.8621V38.3555H0.143997V33.6934H0.644899L2.29115 37.7941H2.31074L3.95674 33.6934H4.44466V38.3555H4.1194V34.823C4.1194 34.575 4.13237 34.3203 4.15833 34.059H4.13237L2.39525 38.3555H2.18705Z" fill="#3D1E9D" stroke="#3D1E9D" stroke-width="0.288" stroke-miterlimit="22.9256"/>
<path d="M7.66944 38.4209C7.41568 38.4209 7.21385 38.3882 7.05782 38.3228V37.9964C7.24005 38.0748 7.43528 38.1139 7.63687 38.1139C7.78653 38.1139 7.92321 38.0878 8.02707 38.0357C8.13778 37.9834 8.24188 37.8986 8.333 37.781C8.42411 37.6699 8.5412 37.474 8.67127 37.1999L6.82365 33.6934H7.20747L8.62592 36.4162C8.70382 36.5664 8.76897 36.7166 8.82751 36.8732H8.84052L8.91864 36.6775L10.2523 33.6934H10.6166L9.12685 36.9713C9.02912 37.1802 8.938 37.3762 8.85349 37.5524C8.76899 37.7287 8.67126 37.8855 8.56716 38.0097C8.45669 38.1402 8.33298 38.238 8.18994 38.3098C8.05326 38.3882 7.87764 38.4209 7.66944 38.4209Z" fill="#3D1E9D" stroke="#3D1E9D" stroke-width="0.288" stroke-miterlimit="22.9256"/>
<path d="M15.7554 38.3555H15.4302V34.0002H13.745C13.6605 34.7185 13.5693 35.4041 13.4716 36.0507C13.3741 36.6972 13.2896 37.1542 13.2245 37.4283C13.1529 37.7026 13.0878 37.9049 13.0163 38.0421C12.9381 38.1729 12.8536 38.2707 12.7495 38.3361C12.6454 38.3949 12.5154 38.4276 12.3527 38.4276C12.2094 38.4276 12.086 38.4013 11.9819 38.3492V38.0551C12.112 38.1009 12.229 38.1272 12.3397 38.1272C12.5283 38.1272 12.6714 38.0097 12.7691 37.781C12.8732 37.5524 12.9837 37.0561 13.1074 36.2987C13.2311 35.5347 13.3482 34.6662 13.4716 33.6934H15.7554V38.3555Z" fill="#3D1E9D" stroke="#3D1E9D" stroke-width="0.288" stroke-miterlimit="22.9256"/>
<path d="M19.0864 35.7503H20.0233C20.5568 35.7503 20.9536 35.8481 21.2203 36.0571C21.4871 36.2596 21.6238 36.5794 21.6238 37.017C21.6238 37.448 21.4937 37.781 21.2269 38.0097C20.9666 38.238 20.5894 38.3555 20.0948 38.3555H18.7611V33.6934H19.0864V35.7503ZM19.0864 38.0684H20.0429C20.4593 38.0684 20.765 37.9834 20.9666 37.8137C21.1684 37.6439 21.2725 37.3762 21.2725 37.017C21.2725 36.6645 21.1684 36.4162 20.9666 36.266C20.765 36.1094 20.4331 36.0374 19.9777 36.0374H19.0864V38.0684Z" fill="#3D1E9D" stroke="#3D1E9D" stroke-width="0.288" stroke-miterlimit="22.9256"/>
<path d="M25.2097 38.3555H24.8844V34.0002H23.3751V33.6934H26.719V34.0002H25.2097V38.3555Z" fill="#3D1E9D" stroke="#3D1E9D" stroke-width="0.288" stroke-miterlimit="22.9256"/>
<path d="M29.0992 33.6934H29.4115V36.7427C29.4115 36.9583 29.4051 37.3238 29.3855 37.8332H29.4051L32.1506 33.6934H32.4759V38.3555H32.1636V35.3257C32.1636 34.9796 32.1766 34.6077 32.2028 34.2092H32.1766L29.4247 38.3555H29.0992V33.6934Z" fill="#3D1E9D" stroke="#3D1E9D" stroke-width="0.288" stroke-miterlimit="22.9256"/>
<path d="M37.4661 33.9155C36.8805 33.9155 36.4251 34.1048 36.0868 34.477C35.7549 34.8492 35.5857 35.3651 35.5857 36.0181C35.5857 36.684 35.7486 37.2 36.0606 37.5656C36.3796 37.9377 36.8285 38.1206 37.4142 38.1206C37.8044 38.1206 38.1622 38.0685 38.4875 37.9704V38.2578C38.1818 38.3687 37.798 38.421 37.336 38.421C36.6855 38.421 36.1714 38.2121 35.7939 37.7875C35.4231 37.3632 35.2345 36.7691 35.2345 36.0114C35.2345 35.5414 35.3256 35.1235 35.5012 34.7577C35.6834 34.3986 35.9372 34.1178 36.2754 33.9219C36.6137 33.726 37.0042 33.6281 37.4465 33.6281C37.9021 33.6281 38.3055 33.7132 38.6634 33.8764L38.5331 34.1702C38.1948 34.0003 37.837 33.9155 37.4661 33.9155Z" fill="#3D1E9D" stroke="#3D1E9D" stroke-width="0.288" stroke-miterlimit="22.9256"/>
<path d="M43.7575 38.3555H41.2135V33.6934H43.7575V33.9938H41.5388V35.7567H43.6274V36.0571H41.5388V38.0551H43.7575V38.3555Z" fill="#3D1E9D" stroke="#3D1E9D" stroke-width="0.288" stroke-miterlimit="22.9256"/>
<path d="M49.2916 35.032C49.2916 35.4826 49.1356 35.8287 48.8363 36.0701C48.5306 36.3117 48.0946 36.4292 47.5352 36.4292H46.8194V38.3555H46.4942V33.6934H47.6327C48.7386 33.6934 49.2916 34.1374 49.2916 35.032ZM46.8194 36.1485H47.457C47.9839 36.1485 48.3614 36.0637 48.5892 35.8874C48.8233 35.7109 48.9404 35.4302 48.9404 35.0384C48.9404 34.6794 48.8297 34.4117 48.6085 34.2419C48.3939 34.0656 48.0491 33.9806 47.5871 33.9806H46.8194V36.1485Z" fill="#3D1E9D" stroke="#3D1E9D" stroke-width="0.288" stroke-miterlimit="22.9256"/>
<path d="M51.9907 33.6934H53.2659C53.8383 33.6934 54.2613 33.7913 54.5281 33.9872C54.8014 34.1831 54.9315 34.4769 54.9315 34.8754C54.9315 35.1428 54.8533 35.3651 54.6907 35.5479C54.5214 35.7242 54.2809 35.8417 53.9686 35.8938V35.9135C54.3395 35.9656 54.6126 36.0834 54.7882 36.266C54.9574 36.4425 55.0486 36.6972 55.0486 37.017C55.0486 37.448 54.9053 37.7744 54.6192 38.0097C54.3395 38.238 53.936 38.3555 53.4155 38.3555H51.9907V33.6934ZM52.316 35.7699H53.3374C53.7734 35.7699 54.0921 35.6979 54.2873 35.5479C54.4891 35.4041 54.5866 35.1755 54.5866 34.8687C54.5866 34.5553 54.4761 34.3333 54.2547 34.1895C54.0272 34.0526 53.6953 33.9806 53.2529 33.9806H52.316V35.7699ZM52.316 36.0571V38.0684H53.4089C54.2677 38.0684 54.6973 37.7157 54.6973 37.017C54.6973 36.3771 54.2483 36.0571 53.3374 36.0571H52.316Z" fill="#3D1E9D" stroke="#3D1E9D" stroke-width="0.288" stroke-miterlimit="22.9256"/>
<path d="M57.7604 33.6934H58.0727V36.7427C58.0727 36.9583 58.0663 37.3238 58.0467 37.8332H58.0663L60.8119 33.6934H61.1371V38.3555H60.8248V35.3257C60.8248 34.9796 60.8378 34.6077 60.8638 34.2092H60.8378L58.0857 38.3555H57.7604V33.6934Z" fill="#3D1E9D" stroke="#3D1E9D" stroke-width="0.288" stroke-miterlimit="22.9256"/>
<path d="M66.1271 33.9155C65.5416 33.9155 65.0863 34.1048 64.7478 34.477C64.4161 34.8492 64.2469 35.3651 64.2469 36.0181C64.2469 36.684 64.4095 37.2 64.7218 37.5656C65.0405 37.9377 65.4895 38.1206 66.0751 38.1206C66.4656 38.1206 66.8232 38.0685 67.1487 37.9704V38.2578C66.8428 38.3687 66.459 38.421 65.997 38.421C65.3464 38.421 64.8325 38.2121 64.4551 37.7875C64.0842 37.3632 63.8956 36.7691 63.8956 36.0114C63.8956 35.5414 63.9865 35.1235 64.1624 34.7577C64.3444 34.3986 64.5981 34.1178 64.9364 33.9219C65.2749 33.726 65.6653 33.6281 66.1077 33.6281C66.563 33.6281 66.9665 33.7132 67.3243 33.8764L67.1943 34.1702C66.8558 34.0003 66.4979 33.9155 66.1271 33.9155Z" fill="#3D1E9D" stroke="#3D1E9D" stroke-width="0.288" stroke-miterlimit="22.9256"/>
<path d="M73.2385 38.3555H72.9132V36.0637H70.2V38.3555H69.8747V33.6934H70.2V35.7633H72.9132V33.6934H73.2385V38.3555Z" fill="#3D1E9D" stroke="#3D1E9D" stroke-width="0.288" stroke-miterlimit="22.9256"/>
<path d="M80.2324 38.3555H79.9071V33.6934H80.2324V38.3555ZM76.5696 35.7503H77.4675C78.001 35.7503 78.3978 35.8481 78.6646 36.0571C78.9379 36.2596 79.068 36.5794 79.068 37.017C79.068 37.448 78.9379 37.7744 78.6775 38.0097C78.4108 38.238 78.0333 38.3555 77.539 38.3555H76.2443V33.6934H76.5696V35.7503ZM76.5696 38.0684H77.4869C77.9229 38.0684 78.2352 37.977 78.4238 37.8005C78.619 37.6242 78.7165 37.3631 78.7165 37.017C78.7165 36.6709 78.619 36.4162 78.4174 36.266C78.2156 36.1158 77.8839 36.0374 77.4219 36.0374H76.5696V38.0684Z" fill="#3D1E9D" stroke="#3D1E9D" stroke-width="0.288" stroke-miterlimit="22.9256"/>
<path d="M83.2372 33.6935H83.5494V36.7428C83.5494 36.9584 83.5431 37.3239 83.5235 37.8333H83.5431L86.2886 33.6935H86.6139V38.3557H86.3016V35.3258C86.3016 34.9797 86.3146 34.6078 86.3406 34.2093H86.3146L83.5624 38.3557H83.2372V33.6935ZM84.9223 33.3214C84.6098 33.3214 84.3693 33.2493 84.2 33.1058C84.0374 32.9686 83.9399 32.7402 83.9137 32.4268H84.1936C84.226 32.6618 84.2977 32.825 84.4082 32.9229C84.5189 33.0143 84.6946 33.0667 84.9287 33.0667C85.1629 33.0667 85.3321 33.0143 85.4492 32.9165C85.5599 32.8186 85.6314 32.6552 85.6574 32.4268H85.9371C85.8916 33.021 85.5533 33.3214 84.9223 33.3214ZM98.5982 36.0181C98.5982 36.756 98.4159 37.3436 98.0451 37.7745C97.6809 38.2054 97.1667 38.421 96.5228 38.421C95.8786 38.421 95.3711 38.2054 95.0002 37.7745C94.6294 37.3436 94.4474 36.756 94.4474 36.0114C94.4474 35.2737 94.636 34.6859 95.0068 34.2616C95.3777 33.8371 95.8852 33.6218 96.5291 33.6218C97.1733 33.6218 97.6809 33.8371 98.0517 34.2616C98.4159 34.6926 98.5982 35.2801 98.5982 36.0181ZM94.7986 36.0181C94.7986 36.684 94.9483 37.2 95.2476 37.5656C95.5403 37.9313 95.9697 38.114 96.5228 38.114C97.0822 38.114 97.5052 37.9313 97.8046 37.5722C98.0973 37.2064 98.2469 36.6907 98.2469 36.0181C98.2469 35.3455 98.0973 34.8297 97.8046 34.4706C97.5052 34.1114 97.0822 33.9352 96.5291 33.9352C95.9763 33.9352 95.5467 34.1178 95.2476 34.477C94.9483 34.8361 94.7986 35.3521 94.7986 36.0181Z" fill="#3D1E9D" stroke="#3D1E9D" stroke-width="0.288" stroke-miterlimit="22.9256"/>
<path d="M104.685 38.3555H104.359V34.0002H101.679V38.3555H101.353V33.6934H104.685V38.3555Z" fill="#3D1E9D" stroke="#3D1E9D" stroke-width="0.288" stroke-miterlimit="22.9256"/>
<path d="M110.232 38.3555H107.688V33.6934H110.232V33.9938H108.013V35.7567H110.102V36.0571H108.013V38.0551H110.232V38.3555Z" fill="#3D1E9D" stroke="#3D1E9D" stroke-width="0.288" stroke-miterlimit="22.9256"/>
<path d="M115.766 35.032C115.766 35.4826 115.61 35.8287 115.311 36.0701C115.005 36.3117 114.569 36.4292 114.01 36.4292H113.294V38.3555H112.969V33.6934H114.107C115.213 33.6934 115.766 34.1374 115.766 35.032ZM113.294 36.1485H113.932C114.459 36.1485 114.836 36.0637 115.064 35.8874C115.298 35.7109 115.415 35.4302 115.415 35.0384C115.415 34.6794 115.305 34.4117 115.083 34.2419C114.869 34.0656 114.524 33.9806 114.062 33.9806H113.294V36.1485Z" fill="#3D1E9D" stroke="#3D1E9D" stroke-width="0.288" stroke-miterlimit="22.9256"/>
<path d="M120.379 36.7036H118.492L117.842 38.3555H117.484L119.351 33.6738H119.56L121.388 38.3555H121.023L120.379 36.7036ZM118.61 36.4162H120.269L119.637 34.7382C119.585 34.601 119.52 34.4181 119.449 34.1895C119.39 34.3921 119.325 34.5749 119.26 34.7446L118.61 36.4162Z" fill="#3D1E9D" stroke="#3D1E9D" stroke-width="0.288" stroke-miterlimit="22.9256"/>
<path d="M124.492 38.3555H124.167V34.0002H122.657V33.6934H126.001V34.0002H124.492V38.3555Z" fill="#3D1E9D" stroke="#3D1E9D" stroke-width="0.288" stroke-miterlimit="22.9256"/>
<path d="M132.155 36.018C132.155 36.756 131.973 37.3435 131.602 37.7744C131.238 38.2054 130.724 38.421 130.079 38.421C129.436 38.421 128.928 38.2054 128.557 37.7744C128.186 37.3435 128.004 36.756 128.004 36.0114C128.004 35.2736 128.193 34.6859 128.564 34.2616C128.935 33.837 129.442 33.6217 130.086 33.6217C130.73 33.6217 131.238 33.837 131.609 34.2616C131.973 34.6925 132.155 35.28 132.155 36.018ZM128.355 36.018C128.355 36.6839 128.505 37.1999 128.804 37.5655C129.097 37.9313 129.527 38.1139 130.079 38.1139C130.639 38.1139 131.062 37.9313 131.361 37.5721C131.654 37.2063 131.804 36.6906 131.804 36.018C131.804 35.3454 131.654 34.8297 131.361 34.4705C131.062 34.1114 130.639 33.9351 130.086 33.9351C129.533 33.9351 129.104 34.1178 128.804 34.4769C128.505 34.8361 128.355 35.352 128.355 36.018Z" fill="#3D1E9D" stroke="#3D1E9D" stroke-width="0.288" stroke-miterlimit="22.9256"/>
<path d="M137.711 35.032C137.711 35.4826 137.555 35.8287 137.256 36.0701C136.95 36.3117 136.514 36.4292 135.955 36.4292H135.239V38.3555H134.914V33.6934H136.052C137.158 33.6934 137.711 34.1374 137.711 35.032ZM135.239 36.1485H135.877C136.404 36.1485 136.781 36.0637 137.009 35.8874C137.243 35.7109 137.36 35.4302 137.36 35.0384C137.36 34.6794 137.249 34.4117 137.028 34.2419C136.813 34.0656 136.469 33.9806 136.007 33.9806H135.239V36.1485Z" fill="#3D1E9D" stroke="#3D1E9D" stroke-width="0.288" stroke-miterlimit="22.9256"/>
<path fill-rule="evenodd" clip-rule="evenodd" d="M160.657 0C171.426 0 180.157 8.76204 180.157 19.5705C180.157 30.3789 171.426 39.141 160.657 39.141C149.887 39.141 141.157 30.3789 141.157 19.5705C141.157 8.76204 149.887 0 160.657 0ZM157.04 12.4637C157.04 11.292 156.85 10.5154 156.471 10.1053C156.092 9.69522 155.566 9.4903 154.924 9.48982C154.281 9.48982 153.771 9.68053 153.391 10.0612C153.012 10.442 152.822 11.1013 152.822 12.039V14.8513H148.968L148.968 12.3024C148.968 10.1927 149.479 8.59621 150.501 7.4536C151.538 6.32592 153.056 5.76918 155.041 5.76918C157.055 5.76918 158.559 6.34061 159.58 7.45384C160.616 8.58199 161.127 10.2081 161.127 12.3176C161.112 13.6798 160.937 14.9103 160.528 16.0237C160.134 17.122 159.638 18.1182 159.025 19.0266C158.426 19.9202 157.769 20.755 157.069 21.5458C156.368 22.3077 155.697 23.04 155.098 23.7285C154.5 24.4171 153.989 25.1054 153.595 25.7647C153.201 26.424 153.011 27.1124 153.011 27.8156C153.011 28.0793 153.011 28.2551 153.04 28.3723L160.747 28.3726V32.0934L148.968 32.1074V28.9141C148.968 27.6249 149.158 26.5263 149.566 25.5598C149.96 24.578 150.457 23.6991 151.055 22.8936C151.654 22.0879 152.311 21.3409 152.997 20.6228C153.697 19.9197 154.354 19.1727 154.953 18.3672C155.566 17.5762 156.047 16.7117 156.456 15.7743C156.85 14.8221 157.04 13.7236 157.04 12.4637ZM166.717 6.44342L170.848 6.42897L170.884 23.6709H172.818V27.3622H170.891L170.887 27.3624V32.1081H166.891V27.3622H166.633L159.039 27.3617V23.6439L166.717 6.44342ZM166.746 14.354L166.761 23.2163L162.9 23.2087L166.746 14.354Z" fill="url(#paint0_linear_145_139)"/>
<path fill-rule="evenodd" clip-rule="evenodd" d="M73.257 29.9958H69.2138V16.9256C69.2138 15.6868 69.2991 12.1844 69.2991 10.9456H69.2138C68.8734 11.9281 68.4053 13.1668 67.6818 15.0462L61.8511 29.9958H57.2548V4.19704H61.3402V17.3954C61.3402 18.5913 61.298 22.0511 61.2125 23.247H61.3402C61.6384 22.1793 62.5746 19.7446 63.8086 16.4985L68.6605 4.19704H73.257V29.9958Z" fill="#2B2A29"/>
<path fill-rule="evenodd" clip-rule="evenodd" d="M7.37907 4.19704H12.6138L19.2958 29.9958H15.0825L13.5078 23.6742H6.05975L4.39983 29.9958H0.143997L7.37907 4.19704ZM12.8265 20.3854L9.89022 7.6566H9.80499L6.78326 20.3854H12.8265Z" fill="#2B2A29"/>
<path fill-rule="evenodd" clip-rule="evenodd" d="M38.1036 16.5838C38.1036 7.35791 40.104 3.17198 46.5728 3.17198C53.8081 3.17198 54.2337 8.55382 54.2337 11.2446V11.7146H50.1478V11.2875C50.1478 8.89544 49.5093 6.28992 46.5728 6.28992C43.5086 6.28992 42.1465 8.16931 42.1465 16.4559C42.1465 24.7849 43.5086 26.8779 46.5303 26.8779C49.9349 26.8779 50.318 23.0763 50.318 20.6416V20.2144H54.3614V20.7697C54.3614 25.4255 52.4885 29.9959 46.5303 29.9959C40.1039 29.9959 38.1036 25.7673 38.1036 16.5838Z" fill="#2B2A29"/>
<path fill-rule="evenodd" clip-rule="evenodd" d="M20.8791 4.19704H24.9647V15.4305H25.0072L32.7106 4.19704H37.1796L29.8593 15.0462L37.9881 29.9958H33.3916L27.2205 18.3779L24.9647 21.624V29.9958H20.8791V4.19704Z" fill="#2B2A29"/>
<path fill-rule="evenodd" clip-rule="evenodd" d="M76.7081 16.5839C76.7081 7.43121 78.6775 3.23935 85.025 3.17349V3.16733L85.0639 3.16663C91.533 3.16663 93.5333 7.35255 93.5333 16.5787C93.5333 25.7091 91.5552 29.9412 85.2164 29.9896V29.995L85.1348 29.996C78.7082 29.996 76.7081 25.7674 76.7081 16.5839ZM85.2164 6.28647V6.29049L85.1775 6.29002C82.113 6.29002 80.751 8.1694 80.751 16.456C80.751 24.6831 82.0802 26.8257 85.025 26.8768V26.8714L85.1066 26.8728C88.1284 26.8728 89.4902 24.7797 89.4902 16.4505C89.4902 8.30302 88.1735 6.34948 85.2164 6.28647Z" fill="#2B2A29"/>
<path fill-rule="evenodd" clip-rule="evenodd" d="M96.2829 4.18719H100.879L106.323 22.0936L111.763 4.19715H116.359V29.996L112.285 29.986L112.391 12.7145L107.986 27.4838L104.648 27.4854L100.284 12.7197V29.986H96.2829V4.18719Z" fill="#2B2A29"/>
<path fill-rule="evenodd" clip-rule="evenodd" d="M125.795 4.19704H131.03L137.711 29.9958H133.498L131.923 23.6742H124.475L122.815 29.9958H118.56L125.795 4.19704ZM131.242 20.3854L128.306 7.6566H128.221L125.199 20.3854H131.242Z" fill="#2B2A29"/>
<defs>
<linearGradient id="paint0_linear_145_139" x1="146.867" y1="33.409" x2="174.544" y2="5.83231" gradientUnits="userSpaceOnUse">
<stop stop-color="#3B1E9D"/>
<stop offset="1" stop-color="#D11C98"/>
</linearGradient>
</defs>
</svg>
