<svg width="520" height="463" viewBox="0 0 520 463" fill="none" xmlns="http://www.w3.org/2000/svg">
<ellipse cx="95.2987" cy="160.793" rx="90.1195" ry="88.0478" fill="#F4D2EA"/>
<ellipse cx="260" cy="379.358" rx="84.9402" ry="82.8685" fill="#D8D2EB"/>
<circle cx="431.952" cy="206.37" r="88.0478" fill="#F4D2EA"/>
<ellipse cx="257.73" cy="202.155" rx="201.992" ry="202.155" fill="#B1A5D8"/>
<path d="M512.231 313.064C512.231 393.728 446.84 459.119 366.175 459.119C285.511 459.119 220.12 393.728 220.12 313.064C220.12 232.399 285.511 167.008 366.175 167.008C446.84 167.008 512.231 232.399 512.231 313.064Z" fill="#EFBBE0"/>
<circle cx="146.056" cy="313.064" r="146.056" fill="#9E8ECE"/>
<path d="M113.874 438.294C121.35 438.567 128.827 438.464 136.304 438.396C157.164 438.157 178.023 437.952 198.883 437.713C202.126 437.679 206.325 437.064 206.53 434.879C206.735 432.899 203.424 431.636 200.624 431.022C190.621 428.837 180.106 428.393 169.727 427.983C154.466 427.369 139.172 426.857 123.911 426.447C114.386 426.174 104.588 425.969 95.7111 428.12C90.8632 429.28 83.7279 434.333 91.4777 436.86C93.6286 437.542 97.9303 437.269 100.252 437.474C104.792 437.781 109.333 438.123 113.874 438.294Z" fill="black"/>
<path opacity="0.22" d="M113.874 438.294C121.35 438.567 128.827 438.464 136.304 438.396C157.164 438.157 178.023 437.952 198.883 437.713C202.126 437.679 206.325 437.064 206.53 434.879C206.735 432.899 203.424 431.636 200.624 431.022C190.621 428.837 180.106 428.393 169.727 427.983C154.466 427.369 139.172 426.857 123.911 426.447C114.386 426.174 104.588 425.969 95.7111 428.12C90.8632 429.28 83.7279 434.333 91.4777 436.86C93.6286 437.542 97.9303 437.269 100.252 437.474C104.792 437.781 109.333 438.123 113.874 438.294Z" fill="url(#paint0_linear_455_93)"/>
<path d="M168.464 432.012C169.659 433.002 168.054 433.787 167.269 433.855C165.869 433.992 164.401 433.924 163.036 433.582C162.66 433.48 162.319 433.377 162.012 433.138C161.773 432.968 161.602 432.695 161.465 432.456C161.022 431.773 159.929 430.714 159.758 429.929C159.622 429.281 159.997 428.666 160.305 428.086C160.953 426.822 162.046 425.559 161.977 424.057C165.016 424.399 167.918 423.34 170.444 424.16C170.649 425.218 171.434 426.071 171.093 426.925C171.332 426.379 178.672 428.222 179.526 428.393C180.925 428.666 182.325 428.905 183.759 429.042C184.851 429.144 186.968 428.632 187.617 429.724C187.822 430.1 187.924 430.578 187.958 431.022C187.992 431.363 187.992 431.705 187.89 432.046C187.685 432.592 187.173 433.002 186.627 433.207C180.584 435.426 174.575 431.909 168.464 432.012Z" fill="#444748"/>
<path d="M165.63 292.48C172.526 292.31 179.457 292.105 186.353 291.934C186.797 291.047 184.987 291.798 185.022 292.788C185.465 324.06 182.666 355.367 176.691 386.093C174.131 399.34 170.922 412.552 170.888 426.037C168.054 426.037 165.22 426.037 162.387 426.037C161.431 383.874 160.475 341.711 159.485 299.547C159.451 297.431 159.519 294.973 161.158 293.607C162.387 292.583 164.059 292.515 165.63 292.48Z" fill="#543237"/>
<path d="M107.183 419.892C103.359 419.858 99.5351 418.492 96.5649 416.068C103.291 404.187 110.05 392.307 116.776 380.392C118.893 376.636 121.043 372.847 122.511 368.784C124.287 363.765 125.448 358.508 125.721 353.216C128.623 294.973 128.623 294.973 124.287 282.409C113.123 274.796 123.706 280.77 124.287 282.409C128.384 285.209 143.917 282.921 148.834 283.638C149.926 283.809 151.087 284.014 151.804 284.833C152.623 285.755 151.394 289.032 152.487 288.384C161.261 283.228 155.389 290.227 154.091 306.444C153.647 312.145 147.639 348.436 145.932 353.865C142.893 363.492 138.831 373.461 132.651 381.484C123.126 393.809 116.81 405.143 107.183 419.892Z" fill="#543237"/>
<path d="M163.103 117.17C161.566 114.542 160.713 111.127 160.747 107.167C160.85 99.8271 161.737 92.3162 165.083 85.932C168.907 78.5577 177.817 71.7296 186.318 74.5291C196.287 77.7724 194.648 91.4627 193.283 100.51C192.19 107.713 189.186 114.849 183.723 119.253C175.564 125.876 167.063 124.101 163.103 117.17Z" fill="#E8DBCE"/>
<path d="M100.456 425.491C101.173 426.993 99.2609 427.061 98.4757 426.788C97.0418 426.31 95.6421 425.593 94.413 424.672C94.1057 424.433 93.7644 424.159 93.5937 423.784C93.4571 423.511 93.3888 423.169 93.3205 422.862C93.1839 422.009 92.5695 420.472 92.7402 419.619C92.8767 418.936 93.5253 418.458 94.1057 418.014C95.3006 417.058 97.349 415.317 97.9635 413.815C100.831 415.454 105.133 417.4 107.284 419.312C106.123 420.165 106.021 420.882 105.27 421.565C105.748 421.121 112.166 426.14 112.951 426.686C114.214 427.574 115.512 428.393 116.843 429.144C117.902 429.724 120.189 430.134 120.325 431.5C120.359 431.978 120.257 432.456 120.087 432.934C119.95 433.275 119.813 433.616 119.574 433.889C119.131 434.367 118.448 434.538 117.833 434.504C110.937 434.163 106.533 428.086 100.456 425.491Z" fill="#444748"/>
<path d="M122.101 208.496C123.364 186.373 126.437 163.533 136.201 144.653C143.234 131.1 152.896 115.361 166.415 129.529C167.644 130.826 176.043 125.979 176.896 127.617C178.945 126.9 181.266 127.651 182.632 130.724C187.241 141 188.88 152.301 189.597 163.942C190.45 177.291 190.689 190.743 190.996 204.126C191.133 210.339 191.269 216.553 191.338 222.732C193.215 239.324 194.171 256.019 192.02 272.713C191.918 273.567 191.679 274.284 191.406 274.898C191.372 279.098 191.303 283.263 191.235 287.462C191.201 290.125 189.597 293.676 187.275 294.085C166.62 297.67 145.999 296.714 125.652 290.91C123.262 290.227 121.794 287.223 121.691 284.287C120.77 259.091 120.701 233.691 122.101 208.496Z" fill="#F0F0F0"/>
<path d="M125.412 170.634C130.636 153.291 138.522 136.869 146.34 120.584C147.501 118.16 151.495 118.809 152.076 121.335C152.246 122.086 152.383 122.837 152.554 123.589C153.509 123.418 154.5 123.759 155.148 124.818C168.839 148.409 167.336 178.179 168.804 204.501C170.033 226.283 171.263 248.064 172.492 269.846C173.447 275.342 174.335 280.839 175.189 286.335C175.291 287.12 175.189 287.803 174.95 288.384C176.452 292.617 176.759 297.021 176.042 301.733C175.803 303.235 173.96 304.532 172.492 304.464C169.999 304.327 167.61 303.952 165.288 303.303C155.456 304.532 145.077 304.737 136.166 300.196C124.49 294.256 119.813 290.739 119.062 278.62C118.038 261.788 119.096 235.671 119.062 218.84C118.994 202.453 120.701 186.373 125.412 170.634Z" fill="#444748"/>
<path d="M179.149 125.398C179.354 124.988 179.866 124.852 180.276 124.954C182.768 125.535 182.973 126.422 183.929 128.71C185.397 132.192 186.797 135.64 187.991 139.225C190.279 146.053 191.986 153.052 193.249 160.153C195.81 174.423 196.766 188.933 197.005 203.409C197.278 218.601 197.551 233.93 197.005 249.122C196.697 257.316 196.39 265.544 195.878 273.703C195.639 277.8 195.195 281.863 194.956 285.96C194.717 289.442 194.649 292.31 193.147 295.519C192.157 297.636 188.367 297.192 187.957 294.836C187.377 291.388 188.026 288.486 188.572 285.072C189.221 280.941 189.425 276.81 189.835 272.679C190.586 265.202 190.825 257.657 190.928 250.147C191.064 235.193 191.542 220.274 191.372 205.32C191.201 191.016 190.62 176.608 188.299 162.474C187.172 155.68 185.67 148.955 183.656 142.366C182.427 138.405 181.095 134.411 179.422 130.587C178.501 128.368 178.023 127.617 179.149 125.398Z" fill="#444748"/>
<path d="M128.488 170.33C128.787 159.991 141.142 155.407 146.067 167.425C150.52 178.317 153.507 189.704 160.743 199.646C164.208 204.411 169.374 207.489 175.725 208.333C188.406 209.996 201.087 211.343 213.79 212.402C213.782 215.064 213.748 217.749 213.74 220.412C197.881 221.075 182.022 221.738 166.162 222.402C163.126 222.535 159.923 222.631 157.019 221.661C154.185 220.72 151.857 218.849 149.777 216.9C135.831 204.127 127.982 186.924 128.488 170.33Z" fill="#444748"/>
<path d="M180.19 255.885C180.714 281.115 181.967 306.072 183.955 330.689C186.769 333.95 190.496 332.853 193.923 332.592C197.79 332.299 201.598 333.192 205.389 333.885C217.87 335.985 230.694 335.003 243.419 330.973C244.734 330.547 246.193 330 247.156 328.026C247.757 326.817 248.053 325.187 248.338 323.689C251.785 305.049 252.99 285.309 251.858 266.577C251.28 257.144 250.127 247.732 251.083 238.088C251.649 232.578 254.041 222.253 249.506 224.609C245.601 226.684 241.819 228.901 237.88 230.114C234.944 231.008 232.005 231.506 229.043 231.869C228.931 229.414 228.206 226.184 227.901 224.904C227.222 221.942 226.187 219.217 224.769 217.519C223.35 215.821 221.47 215.278 219.764 216.401C217.841 217.705 216.305 220.957 215.358 224.453C214.596 227.302 214.192 230.312 213.821 233.324C212.388 233.543 210.921 233.759 209.477 234.109C203.228 235.537 196.938 238.351 190.732 237.933C187.749 237.699 184.323 237.101 182.091 241.488C180.146 245.237 180.073 250.917 180.19 255.885ZM215.623 233.134C215.629 233.069 215.667 233.006 215.667 233.006C216.298 230.543 216.968 228.016 217.598 225.553C217.887 224.452 218.175 223.351 218.621 222.394C219.899 219.849 222.078 220.019 223.38 221.906C224.716 223.796 225.424 226.826 226.103 229.788C226.229 230.327 226.397 231.2 226.56 232.138C222.927 232.449 219.266 232.692 215.623 233.134Z" fill="#B8996E"/>
<path d="M226.811 216.607C227.959 216.791 229.156 216.979 230.204 217.518C231.253 218.057 232.147 219.045 232.252 220.215C232.357 221.385 231.51 222.653 230.322 222.684C230.466 223.009 230.463 223.372 230.319 223.676C228.08 224.79 225.468 223.793 223.105 223.033C221.26 222.458 219.401 222.075 217.482 221.833C215.875 221.638 214.071 221.477 213 220.283C212.221 219.376 212.049 218.129 212.188 216.929C212.35 215.755 212.774 214.625 213.077 213.51C215.984 213.488 218.916 213.443 221.845 213.447C222.33 213.436 222.838 213.45 223.234 213.649C223.653 213.875 223.954 214.382 223.799 214.83C223.203 215.027 222.688 215.424 222.333 215.954C223.845 216.141 225.326 216.398 226.811 216.607Z" fill="#E8DBCE"/>
<path d="M205.643 83.1324C197.996 75.2801 189.87 67.0864 179.73 63.092C166.791 57.971 151.018 64.6283 144.327 76.714C144.054 77.192 143.781 77.6016 143.508 78.0113C143.508 78.2844 143.473 78.5576 143.508 78.8648C140.23 86.9219 138.591 95.8325 137.67 104.299C135.587 123.111 137.055 141.854 141.732 160.153C143.712 167.834 155.559 166.127 156.344 158.958C160.373 163.157 169.591 160.938 169.591 153.325C169.557 132.055 171.878 110.991 176.282 90.1994C176.555 89.5166 176.794 88.7655 176.965 87.9803C177.375 87.1951 177.853 86.4098 178.331 85.6587C181.95 92.6575 190.723 96.4129 198.439 93.8865C199.19 93.6476 199.873 93.3403 200.556 92.9989C201.956 92.9648 203.355 92.6575 204.687 92.0771C203.594 89.4142 203.697 86.3074 205.643 83.1324Z" fill="#893D33"/>
<path d="M316.135 431.618C324.655 431.917 333.175 431.751 341.695 431.585C365.458 431.152 389.254 430.719 413.017 430.287C416.711 430.22 421.504 429.421 421.77 426.592C422.003 424.063 418.242 422.466 415.08 421.7C403.698 419.004 391.717 418.472 379.902 418.006C362.496 417.34 345.09 416.774 327.683 416.342C316.8 416.075 305.651 415.876 295.534 418.671C290.009 420.202 281.855 426.692 290.641 429.854C293.071 430.719 297.996 430.32 300.626 430.553C305.751 431.052 310.943 431.452 316.135 431.618Z" fill="url(#paint1_linear_455_93)"/>
<path d="M315.928 432.097C324.472 432.402 333.016 432.233 341.56 432.063C365.389 431.623 389.252 431.182 413.081 430.741C416.786 430.674 421.591 429.86 421.858 426.979C422.092 424.403 418.321 422.777 415.15 421.997C403.736 419.252 391.721 418.709 379.874 418.235C362.419 417.557 344.964 416.981 327.509 416.54C316.595 416.269 305.415 416.066 295.269 418.913C289.729 420.472 281.552 427.081 290.363 430.301C292.799 431.182 297.739 430.775 300.375 431.013C305.515 431.521 310.722 431.928 315.928 432.097Z" fill="url(#paint2_linear_455_93)"/>
<path d="M359.767 421.121C359.8 421.291 359.834 421.462 359.967 421.598C360.133 421.802 360.433 421.802 360.699 421.802C362.563 421.768 364.46 421.632 366.29 421.291C367.089 421.155 368.054 420.814 368.221 419.997C368.287 419.622 368.154 419.213 368.021 418.872C367.222 416.725 366.423 414.579 365.625 412.432C365.591 412.364 365.558 412.261 365.491 412.227C365.391 412.159 365.258 412.125 365.159 412.125C363.827 412.091 362.496 412.227 361.165 412.5C360.333 412.67 358.769 412.773 358.369 413.693C357.97 414.579 358.635 416.078 358.835 416.964C359.168 418.327 359.467 419.724 359.767 421.121Z" fill="#E8DBCE"/>
<path d="M314.369 421.121C316.166 421.223 317.964 421.326 319.727 421.462C319.894 421.462 320.094 421.462 320.227 421.36C320.393 421.223 320.393 421.019 320.427 420.814C320.526 418.429 320.46 416.044 320.26 413.659C320.26 413.488 320.227 413.284 320.127 413.148C319.994 412.977 319.761 412.909 319.528 412.841C318.496 412.602 317.464 412.364 316.399 412.364C315.567 412.364 314.603 412.5 313.87 412.943C313.105 413.42 313.238 413.727 313.371 414.545C313.737 416.726 313.97 418.906 314.369 421.121Z" fill="#E8DBCE"/>
<path d="M356.338 413.693C360.032 414.511 363.96 414.034 367.354 412.364C363.527 399.177 362.395 395.292 358.601 382.105C357.403 377.948 356.172 373.723 355.672 369.429C355.073 364.114 355.573 358.73 356.072 353.414C358.002 332.765 362.928 264.342 364.858 243.727C365.025 241.989 365.191 240.217 364.658 238.548C363.161 233.811 349.748 232.994 344.889 232.585C343.824 232.482 335.87 232.448 335.005 233.062C334.006 233.777 326.118 232.312 325.952 233.539C323.622 249.724 332.409 283.765 332.542 301.109C332.575 306.868 334.838 343.737 335.271 349.496C336.036 359.616 339.098 370.315 343.225 379.584C349.549 393.827 350.381 397.064 356.338 413.693Z" fill="#97A8B2"/>
<path d="M328.981 235.481C327.783 234.493 315.835 233.573 314.304 233.539L295.267 233.845C294.834 265.331 300.958 351.779 306.849 382.685C309.378 396.008 312.274 400.506 312.307 414.068C315.102 414.068 317.865 414.068 320.66 414.068C321.592 371.61 331.976 283.288 332.942 240.831C332.975 238.718 330.612 236.844 328.981 235.481Z" fill="#97A8B2"/>
<path d="M318.597 136.63C315.901 127.463 305.717 126.169 303.953 137.993C302.356 148.692 294.668 171.182 290.274 181.677C288.178 186.72 284.084 190.604 278.36 192.785C266.978 197.113 255.928 202.224 244.346 206.04C244.38 206.108 244.38 206.142 244.38 206.211C242.449 206.994 240.352 207.403 238.256 207.403C235.527 207.403 232.598 206.756 230.268 208.085C230.401 208.391 230.534 208.698 230.701 209.039C231.266 209.141 231.799 209.243 232.365 209.311C231.034 209.618 229.736 210.129 228.538 210.811C227.373 211.492 226.241 212.651 226.607 213.877C227.007 215.104 228.604 215.445 229.935 215.479C235.527 215.649 240.952 213.912 246.243 212.003C260.92 209.005 271.005 203.825 285.782 200.861C288.644 200.282 291.639 199.668 294.135 198.135C296.565 196.636 298.262 194.455 299.76 192.274C309.711 177.758 322.957 151.316 318.597 136.63Z" fill="#E8DBCE"/>
<path d="M340.995 117.65C343.058 115.435 344.656 112.3 345.521 108.416C347.119 101.226 347.951 93.6613 346.254 86.6078C344.29 78.4979 337.334 69.7065 328.548 70.4562C318.264 71.3081 316.7 85.0744 315.934 94.2746C315.302 101.567 316.567 109.268 320.76 114.89C327.083 123.272 335.603 123.511 340.995 117.65Z" fill="#E8DBCE"/>
<path d="M299.759 419.962C301.39 419.997 303.054 420.099 304.685 420.371C306.616 420.644 308.546 421.121 310.476 420.917C311.341 420.814 312.174 420.61 313.039 420.474C314.37 420.269 315.701 420.303 317.032 420.303C318.264 420.337 319.495 420.337 320.727 420.371C321.059 420.371 321.459 420.405 321.725 420.61C322.025 420.848 322.125 421.223 322.191 421.598C322.491 422.995 322.657 424.426 322.657 425.857C322.657 426.709 322.59 427.663 322.025 428.277C321.625 428.72 321.026 428.958 320.461 429.129C319.362 429.401 318.231 429.469 317.099 429.538C311.275 429.878 305.417 430.185 299.593 429.81C297.563 429.674 293.868 429.981 292.371 428.311C291.106 426.914 291.739 424.665 292.504 423.2C293.968 420.406 296.964 419.928 299.759 419.962Z" fill="#537082"/>
<path d="M302.488 425.142C302.887 425.278 303.353 425.346 303.786 425.312C303.852 425.312 303.919 425.278 303.985 425.244C304.052 425.176 304.052 425.108 304.052 425.005C304.152 423.506 304.185 421.973 304.119 420.474C304.119 420.405 304.119 420.337 304.085 420.269C304.052 420.201 303.952 420.167 303.852 420.133C302.521 419.792 302.588 420.167 302.588 421.428C302.588 422.654 302.554 423.915 302.488 425.142Z" fill="#C1C1C1"/>
<path d="M307.048 424.426C307.048 424.563 307.048 424.699 307.148 424.801C307.248 424.869 307.381 424.869 307.481 424.835C307.847 424.767 308.213 424.733 308.579 424.665C308.646 424.665 308.712 424.631 308.746 424.597C308.812 424.529 308.812 424.46 308.812 424.358C308.845 423.097 308.845 421.837 308.845 420.576C308.845 420.508 308.845 420.44 308.812 420.406C308.779 420.337 308.712 420.337 308.646 420.303C308.08 420.133 307.547 420.439 307.048 420.303C306.982 421.666 307.048 423.063 307.048 424.426Z" fill="#C1C1C1"/>
<path d="M311.475 424.188C311.475 424.256 311.508 424.324 311.541 424.358C311.574 424.392 311.641 424.392 311.708 424.392C311.974 424.392 312.273 424.392 312.54 424.392C312.673 424.392 312.806 424.392 312.906 424.29C312.972 424.222 312.972 424.12 313.006 424.017C313.072 423.2 313.172 419.554 311.574 420.235C310.476 420.678 311.308 423.336 311.475 424.188Z" fill="#C1C1C1"/>
<path d="M358.369 421.973C358.835 421.155 359.367 420.338 360.099 419.758C360.865 419.145 361.797 418.77 362.729 418.463C363.927 418.089 365.192 417.85 366.456 418.02C368.387 418.293 370.117 419.622 371.216 421.292C372.314 422.961 372.88 424.938 373.146 426.948C373.212 427.391 373.246 427.868 373.113 428.311C372.946 428.754 372.613 429.061 372.214 429.333C371.016 430.151 369.551 430.458 368.12 430.628C365.99 430.901 363.827 431.003 361.664 431.105C360.665 431.139 359.6 431.173 358.635 430.833C357.104 430.287 356.305 429.333 356.538 427.732C356.838 425.687 357.371 423.779 358.369 421.973Z" fill="#537082"/>
<path d="M309.579 148.079C306.317 174.828 299.428 200.929 293.903 227.303C293.371 229.859 292.838 232.516 293.537 235.038C294.502 238.548 297.664 241.035 301.025 242.296C304.653 243.693 308.58 243.966 312.441 244.204C326.785 245.022 341.163 245.022 355.474 244.204C357.437 244.102 359.467 243.966 361.231 243.046C364.26 241.512 365.957 238.003 366.323 234.561C366.723 231.12 366.024 227.678 365.491 224.236C362.296 203.553 364.759 182.256 361.198 161.607C360.2 155.712 358.702 149.885 358.236 143.922C357.97 140.48 358.07 137.005 357.371 133.665C356.672 130.292 355.008 126.952 352.112 125.181C346.854 121.977 340.264 125.147 334.207 125.998C330.18 126.544 326.086 125.998 322.159 125.044C319.13 124.329 316.102 122.182 313.905 125.01C309.944 130.155 310.344 141.911 309.579 148.079Z" fill="#EFEFEF"/>
<path d="M309.245 182.767C305.451 182.767 305.451 188.798 309.245 188.798C313.039 188.764 313.039 182.767 309.245 182.767Z" fill="#333333"/>
<path d="M317.232 167.331C313.438 167.331 313.438 173.362 317.232 173.362C321.026 173.328 321.026 167.331 317.232 167.331Z" fill="#333333"/>
<path d="M324.122 190.775C320.328 190.775 320.328 196.806 324.122 196.806C327.916 196.772 327.916 190.775 324.122 190.775Z" fill="#333333"/>
<path d="M329.115 155.132C325.321 155.132 325.321 161.164 329.115 161.164C332.909 161.13 332.909 155.132 329.115 155.132Z" fill="#333333"/>
<path d="M304.619 206.892C300.824 206.892 300.824 212.923 304.619 212.923C308.379 212.889 308.413 206.892 304.619 206.892Z" fill="#333333"/>
<path d="M336.636 176.089C332.842 176.089 332.842 182.12 336.636 182.12C340.43 182.12 340.43 176.089 336.636 176.089Z" fill="#333333"/>
<path d="M301.756 229.484C297.962 229.484 297.962 235.515 301.756 235.515C305.55 235.515 305.55 229.484 301.756 229.484Z" fill="#333333"/>
<path d="M318.298 214.866C314.504 214.866 314.504 220.897 318.298 220.897C322.059 220.863 322.059 214.866 318.298 214.866Z" fill="#333333"/>
<path d="M331.51 230.54C327.716 230.54 327.716 236.571 331.51 236.571C335.271 236.537 335.304 230.54 331.51 230.54Z" fill="#333333"/>
<path d="M336.636 206.892C332.842 206.892 332.842 212.923 336.636 212.923C340.43 212.889 340.43 206.892 336.636 206.892Z" fill="#333333"/>
<path d="M359.767 230.54C355.973 230.54 355.973 236.571 359.767 236.571C363.528 236.537 363.528 230.54 359.767 230.54Z" fill="#333333"/>
<path d="M359.767 203.519C363.561 203.519 363.561 197.488 359.767 197.488C355.973 197.522 355.973 203.519 359.767 203.519Z" fill="#333333"/>
<path d="M318.298 143.717C314.504 143.717 314.504 149.749 318.298 149.749C322.059 149.715 322.059 143.717 318.298 143.717Z" fill="#333333"/>
<path d="M331.51 136.664C335.304 136.664 335.304 130.632 331.51 130.632C327.716 130.632 327.716 136.664 331.51 136.664Z" fill="#333333"/>
<path d="M349.282 126.441C345.488 126.441 345.488 132.473 349.282 132.473C353.076 132.473 353.076 126.441 349.282 126.441Z" fill="#333333"/>
<path d="M356.904 160.857C353.11 160.857 353.11 166.888 356.904 166.888C360.698 166.888 360.698 160.857 356.904 160.857Z" fill="#333333"/>
<path d="M326.518 242.33C322.325 233.743 320.428 224.304 318.231 215.002C315.901 205.052 313.771 195.068 312.44 184.914C311.209 175.407 310.61 165.866 310.576 156.291C310.543 151.657 310.676 147.057 310.943 142.456C311.142 138.879 310.743 122.795 318.032 125.351C318.564 125.555 318.964 124.669 318.431 124.397C312.407 121.262 310.41 128.588 309.844 133.256C308.313 146.239 308.08 159.426 308.979 172.442C309.811 184.641 311.708 196.704 314.337 208.63C316.933 220.386 319.23 232.687 324.521 243.557C325.187 244.92 327.184 243.727 326.518 242.33Z" fill="#BC6269"/>
<path d="M363.195 177.451C362.995 176.804 362.063 177.077 362.197 177.724C366.257 199.566 370.617 221.476 362.563 242.977C362.03 244.443 364.327 245.09 364.859 243.625C372.847 222.26 369.685 198.782 363.195 177.451Z" fill="#BC6269"/>
<path d="M354.507 236.094C356.904 235.856 359.533 235.651 361.53 237.014C363.826 238.548 364.625 241.615 365.124 244.375C366.721 253.2 367.454 262.196 367.287 271.157C367.254 272.589 367.188 274.088 366.589 275.383C365.657 277.325 363.66 278.45 361.696 279.267C353.409 282.709 344.19 282.504 335.237 282.232C334.339 282.198 333.373 282.164 332.608 281.687C331.377 280.937 330.944 279.335 330.611 277.87C328.415 267.614 326.784 257.221 325.752 246.76C325.586 245.056 325.42 243.284 325.885 241.648C327.55 235.447 348.85 236.674 354.507 236.094Z" fill="#AA4A4D"/>
<path d="M359.866 244.306C358.335 258.959 336.17 262.911 330.878 248.736C330.711 248.293 330.045 248.464 330.179 248.941C335.371 265.228 359.699 260.254 361.497 244.341C361.63 243.25 359.966 243.25 359.866 244.306Z" fill="#BC6269"/>
<path d="M346.919 254.836C347.785 254.222 347.918 252.791 347.152 252.042C346.287 251.19 344.789 251.565 344.323 252.655C344.257 252.791 344.224 252.928 344.224 253.098C344.157 253.371 344.19 253.643 344.29 253.95C344.656 255.04 345.987 255.483 346.919 254.836Z" fill="#BC6269"/>
<path d="M358.001 178.985C357.702 171.454 356.87 163.958 356.071 156.461C355.771 153.803 355.505 151.111 354.706 148.59C353.974 146.239 352.876 144.024 352.477 141.605C352.21 139.833 352.31 137.924 351.378 136.425C350.147 134.483 347.651 133.904 345.388 133.733C342.792 133.529 339.93 133.631 337.999 135.403C335.204 137.958 335.67 142.525 336.568 146.273C337.433 149.817 338.465 153.36 339.197 156.938C340.595 163.753 340.861 170.773 342.226 177.588C343.357 183.244 343.224 188.798 343.624 194.591C344.256 203.859 342.359 212.889 340.662 222.021C339.663 227.439 338.598 232.959 338.632 238.479C337.666 241.683 336.835 244.92 335.903 248.157C335.803 248.532 335.736 249.043 336.069 249.247C336.302 249.384 336.568 249.281 336.801 249.383C337.067 249.486 337.2 249.827 337.234 250.099C337.5 251.53 336.901 252.961 336.502 254.358C336.102 255.756 335.902 257.425 336.801 258.55C337.333 259.231 338.166 259.572 338.998 259.742C340.429 260.083 342.026 259.981 343.224 259.129C345.121 257.8 345.554 255.176 345.754 252.859C346.186 248.6 346.486 244.306 346.752 240.047C350.014 224.781 353.309 209.516 356.57 194.25C357.069 191.967 357.569 189.65 357.802 187.299C358.168 184.539 358.134 181.745 358.001 178.985Z" fill="#E8DBCE"/>
<path d="M382.796 161.811C381.664 160.993 380.2 160.755 379.201 159.766C377.803 158.403 377.803 156.12 378.369 154.246C378.902 152.372 379.9 150.6 380.133 148.658C380.799 143.581 376.539 139.458 373.377 135.471C364.957 124.84 363.226 110.733 362.96 97.4775C362.894 94.5812 363.193 91.5484 362.727 89.4017C362.76 89.1632 362.827 88.9247 362.86 88.6862C364.391 80.9852 362.028 76.0444 357.202 70.865C349.348 62.3804 336.734 58.9729 325.984 63.1982C325.718 63.3004 325.418 63.4366 325.119 63.5389C321.425 66.81 318.23 70.7969 316.865 75.9763C316 79.1793 315.734 82.9616 316.366 86.301C316.499 86.7439 316.632 87.1868 316.799 87.5957C316.998 84.0519 317.631 80.2356 319.395 79.2474C320.959 78.3274 328.913 81.0875 331.276 80.9171C335.303 80.6445 342.459 77.8163 344.622 82.7913C345.72 85.3128 344.422 88.2432 343.424 90.6626C343.357 90.7989 343.324 90.901 343.257 91.0373C342.658 92.5026 342.093 94.0018 341.993 94.5129C341.227 98.9086 340.661 102.895 340.661 106.167C339.13 111.959 338.864 118.161 339.064 124.226C339.097 125.112 339.131 126.032 339.497 126.816C340.894 129.917 345.288 129.167 348.549 129.917C351.877 130.701 354.44 133.529 356.037 136.63C360.497 145.285 358.667 155.78 359.765 165.491C360.064 168.081 360.597 170.705 361.862 172.988C364.424 177.656 370.149 180.28 375.241 179.121C380.366 177.962 384.46 173.124 384.859 167.808C385.125 165.593 384.593 163.106 382.796 161.811Z" fill="#8C6239"/>
<path d="M356.823 430.031C357.513 431.024 358.828 431.131 359.979 431.166C363.265 431.237 366.552 431.343 369.773 430.74C370.529 430.599 371.284 430.421 371.909 429.96C372.533 429.499 372.993 428.683 372.895 427.903C372.796 427.052 372.073 426.414 371.284 426.165C370.496 425.953 369.674 426.059 368.885 426.165C366.223 426.555 363.561 427.123 360.899 427.442C359.715 427.584 358.171 427.3 357.054 427.655C356.002 427.903 356.265 429.251 356.823 430.031Z" fill="white"/>
<path d="M292.614 429.316C293.139 429.725 293.893 429.842 294.581 429.9C298.122 430.251 301.695 430.192 305.268 430.163C307.825 430.134 310.415 430.105 312.972 430.076C315.3 430.047 317.627 430.017 319.889 429.608C320.414 429.521 320.938 429.404 321.364 429.112C321.79 428.849 322.151 428.411 322.151 427.944C322.151 427.71 322.053 427.477 321.856 427.301C321.495 427.009 320.938 427.068 320.446 427.126C311.923 428.323 303.236 428.411 294.68 427.447C294.057 427.389 292.876 427.126 292.385 427.623C291.893 428.09 292.123 428.966 292.614 429.316Z" fill="white"/>
<defs>
<linearGradient id="paint0_linear_455_93" x1="88.2498" y1="430.458" x2="206.474" y2="436.279" gradientUnits="userSpaceOnUse">
<stop/>
<stop offset="1"/>
</linearGradient>
<linearGradient id="paint1_linear_455_93" x1="286.954" y1="421.793" x2="421.677" y2="428.438" gradientUnits="userSpaceOnUse">
<stop stop-color="#4D4D4D"/>
<stop offset="1"/>
</linearGradient>
<linearGradient id="paint2_linear_455_93" x1="286.666" y1="422.092" x2="421.776" y2="428.653" gradientUnits="userSpaceOnUse">
<stop/>
<stop offset="1"/>
</linearGradient>
</defs>
</svg>
