<svg width="370" height="343" viewBox="0 0 370 343" fill="none" xmlns="http://www.w3.org/2000/svg">
<path d="M359.183 228.942C353.134 215.483 341.516 204.253 327.56 198.725C313.024 192.967 296.333 195.063 281.022 193.135C267.725 191.46 258.13 185.653 250.19 175.33C242.582 165.439 235.761 154.484 223.322 149.909C213.493 146.293 202.318 147.295 192.55 151.063C174.549 158.005 160.953 172.765 149.503 187.469C139.049 200.895 130.522 215.596 111.185 216.076C91.8363 216.556 73.4157 205.76 53.9336 208.621C28.185 212.401 6.7418 233.366 2.24815 258.325C-0.99367 276.332 4.52222 293.922 15.5151 307.147C22.0737 315.037 31.7056 319.408 41.4249 322.695L54.1896 327.013C61.043 329.331 68.1276 330.898 75.3192 331.687L105.5 335L136.972 340.828C142.978 341.94 149.073 342.5 155.181 342.5H186H217.832C224.593 342.5 231.337 341.814 237.96 340.453L264.5 335L291.316 331.782C298.418 330.93 305.409 329.318 312.167 326.974L316.186 325.58C331.057 320.423 345.296 312.31 353.417 298.827C365.971 277.985 370.139 253.314 359.183 228.942Z" fill="#C5BBE2"/>
<path d="M77.0966 317.735H77.9551C83.9166 311.326 88.5864 303.55 91.555 294.917C96.3599 280.946 96.1573 266.283 90.9847 253.63C88.3706 247.235 84.5958 241.275 80.9452 235.512C77.2427 229.667 73.4147 223.623 70.8164 217.146C69.7421 214.468 68.9484 211.592 68.471 208.659C68.2559 208.631 68.0406 208.609 67.8252 208.583C68.3049 211.622 69.1209 214.6 70.2323 217.37C72.851 223.899 76.6945 229.967 80.4116 235.835C84.0478 241.576 87.8081 247.513 90.4017 253.857C95.519 266.375 95.7173 280.888 90.9599 294.722C87.9549 303.461 83.1872 311.311 77.0966 317.735Z" fill="white"/>
<path d="M170.353 110.798C175.82 116.262 178.27 125.466 175.256 133.953C172.338 142.169 165.94 148.976 158.253 153.351C152.069 156.872 144.002 158.814 137.92 155.127C133.375 152.372 131.018 146.967 130.887 141.739C130.756 136.51 132.553 131.415 134.775 126.658C137.907 119.952 142.122 113.45 148.401 109.372C157.057 103.751 165.099 105.547 170.353 110.798Z" fill="#C5BBE2"/>
<path d="M355.443 54.9943C352.512 45.4618 347.357 36.71 339.977 28.7086C332.582 20.7073 322.497 14.1021 309.721 8.87811C296.946 3.65387 280.713 1.04199 261.024 1.04199C245.317 1.04199 229.31 3.11352 213.003 7.25683C196.68 11.4151 182.522 17.3297 170.513 25.0158L186.144 66.9912L177.766 73.6292L189.916 77.1217C201.911 70.9817 212.837 66.5235 222.697 63.7461C232.542 60.984 243.003 59.6028 254.095 59.6028C265.172 59.6028 273.559 62.2149 279.255 67.4389C284.952 72.6782 287.792 78.9679 287.792 86.3537C287.792 95.2708 284.861 103.182 279.03 110.102C273.168 117.023 266.705 124.018 259.626 131.089C254.711 135.998 249.931 141.072 245.317 146.296C240.703 151.535 236.615 157.135 233.083 163.139C229.536 169.129 226.695 175.584 224.546 182.505C222.381 189.425 221.314 197.186 221.314 205.788C221.314 208.565 221.374 211.868 221.54 215.711C221.567 216.42 221.606 217.111 221.649 217.793H210.162L222.697 226.084H283.644C283.328 224.237 283.178 222.091 283.178 219.629C283.178 217.167 283.178 215.32 283.178 214.089C283.178 208.865 284.26 203.716 286.41 198.642C288.559 193.568 291.265 188.735 294.496 184.111C297.728 179.502 301.335 175.119 305.348 170.976C309.346 166.817 313.194 162.899 316.891 159.206C321.806 154.298 326.886 149.073 332.117 143.534C337.347 137.995 341.976 132.17 345.974 126.015C349.972 119.861 353.279 113.181 355.894 105.945C358.509 98.724 359.832 90.8128 359.832 82.1959C359.831 73.5939 358.359 64.5268 355.443 54.9943Z" fill="#C91C98"/>
<path d="M241.191 56.6747C230.23 56.6747 219.891 58.0112 210.162 60.6844C200.418 63.3721 189.619 67.6871 177.766 73.6291L158.59 23.2017C170.458 15.7633 184.45 10.0392 200.581 6.01475C216.698 2.005 232.517 0 248.039 0C267.497 0 283.539 2.52792 296.165 7.58375C308.791 12.6396 318.757 19.0319 326.066 26.7755C333.359 34.519 338.453 42.989 341.35 52.2144C344.231 61.4398 345.687 70.215 345.687 78.5396C345.687 86.8788 344.38 94.5352 341.796 101.523C339.211 108.526 335.943 114.991 331.992 120.948C328.041 126.904 323.466 132.541 318.297 137.902C313.128 143.263 308.108 148.319 303.25 153.07C299.596 156.643 295.794 160.435 291.842 164.46C287.876 168.469 284.312 172.712 281.118 177.172C277.925 181.647 275.251 186.325 273.127 191.235C271.003 196.146 269.933 201.129 269.933 206.185C269.933 207.376 269.933 209.163 269.933 211.546C269.933 213.928 270.082 216.006 270.394 217.793H210.162C209.538 214.814 209.167 211.473 209.018 207.754C208.855 204.035 208.795 200.838 208.795 198.151C208.795 189.826 209.85 182.315 211.989 175.617C214.113 168.92 216.92 162.673 220.426 156.876C223.916 151.065 227.956 145.646 232.517 140.575C237.077 135.519 241.8 130.609 246.657 125.858C253.654 119.015 260.041 112.245 265.834 105.548C271.597 98.8503 274.493 91.1939 274.493 82.5641C274.493 75.4161 271.686 69.329 266.057 64.2587C260.427 59.2026 252.139 56.6747 241.191 56.6747Z" fill="#D449AD"/>
<path d="M287.815 283.947C287.815 294.694 284.258 302.987 277.144 308.838C270.029 314.7 261.989 317.619 253.011 317.619C244.021 317.619 235.981 314.7 228.866 308.838C221.764 302.987 218.207 294.694 218.207 283.947C218.207 273.211 221.764 264.918 228.867 259.056C239.818 250.017 256.019 248.003 268.84 254.347C280.218 259.976 287.815 271.409 287.815 283.947Z" fill="#C91C98"/>
<path d="M275.892 283.947C275.892 294.694 272.335 302.987 265.221 308.837C258.107 314.7 250.067 317.619 241.088 317.619C232.098 317.619 224.058 314.7 216.943 308.837C209.841 302.987 206.284 294.694 206.284 283.947C206.284 273.211 209.841 264.918 216.943 259.056C224.058 253.206 232.098 250.274 241.088 250.274C250.067 250.274 258.107 253.205 265.221 259.056C272.335 264.918 275.892 273.211 275.892 283.947Z" fill="#D449AD"/>
<path d="M95.4615 131.576C96.1292 128.091 93.7821 124.736 90.2191 124.083C86.6561 123.43 83.2264 125.726 82.5586 129.211C81.8909 132.696 84.238 136.05 87.801 136.703C91.364 137.356 94.7937 135.061 95.4615 131.576Z" fill="#C5BBE2"/>
<path d="M98.6008 143.644C98.9764 141.684 97.6447 139.795 95.6266 139.425C93.6084 139.055 91.6679 140.344 91.2923 142.304C90.9168 144.265 92.2484 146.153 94.2665 146.523C96.2847 146.893 98.2252 145.604 98.6008 143.644Z" fill="#C5BBE2"/>
<path d="M91.0849 115.95C101.177 106.079 101.177 90.075 91.0849 80.2038C80.9926 70.3327 64.6297 70.3327 54.5374 80.2038C44.4451 90.075 44.4451 106.079 54.5374 115.95C64.6297 125.822 80.9926 125.822 91.0849 115.95Z" fill="#C5BBE2"/>
<path d="M62.8898 101.262C64.688 101.262 66.1457 99.8365 66.1457 98.0777C66.1457 96.3189 64.688 94.8931 62.8898 94.8931C61.0915 94.8931 59.6338 96.3189 59.6338 98.0777C59.6338 99.8365 61.0915 101.262 62.8898 101.262Z" fill="white"/>
<path d="M72.8126 101.262C74.6108 101.262 76.0686 99.8365 76.0686 98.0777C76.0686 96.3189 74.6108 94.8931 72.8126 94.8931C71.0144 94.8931 69.5566 96.3189 69.5566 98.0777C69.5566 99.8365 71.0144 101.262 72.8126 101.262Z" fill="white"/>
<path d="M82.7364 101.262C84.5347 101.262 85.9924 99.8365 85.9924 98.0777C85.9924 96.3189 84.5347 94.8931 82.7364 94.8931C80.9382 94.8931 79.4805 96.3189 79.4805 98.0777C79.4805 99.8365 80.9382 101.262 82.7364 101.262Z" fill="white"/>
<path d="M54.2991 304.966L56.7137 314.07C57.3435 316.445 59.6906 318.049 62.2874 317.877C70.2047 317.35 86.6548 315.453 96.0961 308.647L93.4122 295.525C80.431 294.807 68.2909 295.514 57.779 298.975C55.147 299.842 53.6247 302.422 54.2991 304.966Z" fill="black"/>
<path d="M69.4291 312.213C69.2918 312.213 69.1658 312.125 69.1269 311.989L65.8847 300.634C65.838 300.471 65.9357 300.302 66.1026 300.256C66.2705 300.211 66.4427 300.306 66.4894 300.469L69.7315 311.824C69.778 311.987 69.6806 312.156 69.5137 312.202C69.4853 312.21 69.4567 312.213 69.4291 312.213Z" fill="white"/>
<path d="M76.4358 310.679C76.2985 310.679 76.1725 310.59 76.1336 310.454L72.8915 299.1C72.845 298.937 72.9424 298.768 73.1093 298.722C73.2775 298.676 73.4494 298.772 73.4961 298.935L76.7383 310.289C76.785 310.453 76.6873 310.622 76.5204 310.668C76.4921 310.675 76.4637 310.679 76.4358 310.679Z" fill="white"/>
<path d="M84.5745 255.748L54.4033 264.506L76.8098 294.534L108.977 297.037L153.347 278.686L136.486 253.871L84.5745 255.748Z" fill="#807F7F"/>
<path d="M121.77 259.919C188.028 240.734 198.677 298.01 95.2969 308.436C91.6453 304.417 87.3781 297.444 85.6836 291.615L140.277 266.939L121.77 259.919Z" fill="#807F7F"/>
<path d="M124.585 300.967C121.486 299.997 118.517 298.079 118.517 298.079L107.868 301.346L110.308 312.676L121.37 314.875C124.74 308.846 124.937 303.896 124.585 300.967Z" fill="#F9B384"/>
<path d="M85.9202 292.013L85.4473 291.217C96.8364 284.743 126.01 269.189 150.865 264.603L151.039 265.507C126.327 270.068 97.2674 285.563 85.9202 292.013Z" fill="#6B6A69"/>
<path d="M84.5745 255.748C22.9013 244.279 6.92844 302.25 110.309 312.676C113.96 308.657 116.822 303.909 118.517 298.079C102.637 287.687 84.8813 277.809 65.4217 268.399L84.5745 255.748Z" fill="#807F7F"/>
<path d="M118.264 298.468C115.33 296.641 112.273 294.711 109.037 292.667C92.7904 282.407 74.3763 270.778 58.7314 264.147L59.1057 263.303C74.8218 269.964 93.2703 281.614 109.547 291.893C112.782 293.936 115.838 295.866 118.769 297.691L118.264 298.468Z" fill="#6B6A69"/>
<path d="M39.3257 284.492L38.502 284.046C40.8169 279.947 44.5249 277.182 49.5229 275.829L49.7741 276.716C44.9622 278.019 41.5446 280.563 39.3257 284.492Z" fill="#6B6A69"/>
<path d="M168.046 281.002C165.827 277.073 162.41 274.53 157.598 273.226L157.849 272.339C162.847 273.693 166.555 276.458 168.87 280.557L168.046 281.002Z" fill="#6B6A69"/>
<path d="M104.534 312.167L103.846 311.539C108.779 306.371 111.809 300.915 113.109 294.86L114.03 295.049C112.694 301.274 109.588 306.873 104.534 312.167Z" fill="#6B6A69"/>
<path d="M155.344 297.593C147.442 292.818 132.124 301.068 128.279 301.485C127.158 301.607 125.861 301.367 124.585 300.967C124.938 303.896 124.741 308.846 121.371 314.875L123.25 315.248C123.25 315.248 136.24 319.905 150.019 317.194C162.738 314.692 161.555 301.346 155.344 297.593Z" fill="black"/>
<path d="M144.573 313.21C144.542 313.21 144.51 313.206 144.479 313.196C144.314 313.145 144.222 312.973 144.274 312.811C145.213 309.904 145.623 304.184 142.903 300.343C142.805 300.203 142.84 300.012 142.983 299.916C143.125 299.819 143.321 299.854 143.419 299.993C146.267 304.016 145.848 309.973 144.872 312.996C144.83 313.127 144.707 313.21 144.573 313.21Z" fill="white"/>
<path d="M138.377 314.361C138.346 314.361 138.314 314.356 138.282 314.347C138.117 314.296 138.026 314.123 138.078 313.962C139.017 311.054 139.426 305.335 136.707 301.494C136.609 301.354 136.644 301.163 136.786 301.067C136.929 300.97 137.124 301.005 137.223 301.144C140.07 305.167 139.652 311.124 138.676 314.147C138.634 314.277 138.51 314.361 138.377 314.361Z" fill="white"/>
<path d="M73.6643 181.003C73.6643 181.003 89.1964 168.085 88.6214 165.63C88.2103 163.875 83.8105 166.448 83.8105 166.448C83.8105 166.448 89.9808 159.287 89.6671 158.418C89.1063 156.864 84.8388 159.76 84.8388 159.76C84.8388 159.76 87.7233 155.7 86.3443 155.038C84.9653 154.376 81.9589 156.879 81.9589 156.879C81.9589 156.879 83.7154 154.624 82.8901 154.033C82.0648 153.441 78.5046 155.873 78.5046 155.873C78.5046 155.873 79.7822 153.03 77.0681 154.108C74.3541 155.186 55.3232 172.268 55.3232 172.268L73.6643 181.003Z" fill="#F9B384"/>
<path d="M80.0189 165.681C79.9433 165.681 79.8675 165.654 79.8073 165.6C77.1412 163.218 75.9657 162.639 73.0243 161.754C72.8586 161.705 72.7657 161.533 72.8167 161.371C72.8676 161.209 73.0431 161.118 73.209 161.168C76.2567 162.085 77.4738 162.683 80.231 165.147C80.359 165.262 80.3678 165.456 80.2511 165.581C80.1888 165.647 80.104 165.681 80.0189 165.681Z" fill="#E28B6D"/>
<path d="M75.3395 172.688C75.3249 172.688 75.3103 172.687 75.2958 172.685C75.1241 172.661 75.0044 172.506 75.0285 172.338C75.3337 170.202 76.0212 168.867 77.1303 168.257C78.0784 167.736 79.312 167.789 80.7972 168.416C80.9563 168.483 81.0296 168.664 80.9609 168.82C80.8923 168.975 80.7076 169.048 80.5485 168.98C79.2531 168.433 78.2066 168.369 77.4378 168.792C76.5239 169.295 75.9223 170.516 75.65 172.423C75.6279 172.576 75.4936 172.688 75.3395 172.688Z" fill="#E28B6D"/>
<path d="M74.6069 159.773C74.5235 159.773 74.4402 159.741 74.3784 159.677C74.2595 159.553 74.2655 159.359 74.3915 159.243L78.289 155.65C78.415 155.533 78.6136 155.539 78.7325 155.663C78.8515 155.786 78.8455 155.98 78.7195 156.097L74.822 159.689C74.7615 159.746 74.6842 159.773 74.6069 159.773Z" fill="#E28B6D"/>
<path d="M78.2152 161.001C78.1369 161.001 78.0588 160.972 77.9978 160.915C77.8728 160.798 77.8688 160.603 77.9888 160.481L81.7324 156.666C81.8524 156.543 82.051 156.539 82.1762 156.657C82.3012 156.775 82.3052 156.969 82.1853 157.091L78.4416 160.906C78.3798 160.969 78.2975 161.001 78.2152 161.001Z" fill="#E28B6D"/>
<path d="M81.9016 163.149C81.825 163.149 81.7482 163.122 81.6877 163.066C81.561 162.951 81.5539 162.757 81.6722 162.633L84.6094 159.551C84.7278 159.427 84.9259 159.42 85.0529 159.536C85.1796 159.651 85.1867 159.845 85.0685 159.969L82.1312 163.051C82.0692 163.116 81.9857 163.149 81.9016 163.149Z" fill="#E28B6D"/>
<path d="M132.336 267.408L75.5475 269.556L69.2725 218.921C69.2725 218.921 88.2839 201.284 95.5983 194.789L107.946 194.17C146.257 211.202 139.983 232.475 132.336 267.408Z" fill="#C91C98"/>
<path d="M107.946 194.17C107.946 194.17 151.776 197.836 165.594 227.207C179.114 255.947 123.551 266.18 123.551 266.18L107.946 194.17Z" fill="#C91C98"/>
<path d="M57.8464 200.464L75.9583 178.906L59.0213 168.866C51.9562 173.671 38.2938 184.554 26.7154 196.879C24.1597 199.599 22.1635 202.776 21.158 206.275C20.3001 209.26 20.1442 212.209 20.6264 215.097C21.8831 222.622 27.9357 228.43 36.0152 229.355C42.9154 230.146 69.2727 228.128 90.6077 221.99L96.8827 198.302C93.6583 196.512 69.6936 196.202 57.8464 200.464Z" fill="#C91C98"/>
<g opacity="0.8">
<path d="M144.524 205.826C144.618 205.805 144.713 205.784 144.807 205.762C144.609 205.648 144.41 205.536 144.212 205.424C141 206.147 137.685 206.886 134.419 207.271C132.455 207.503 125.896 207.926 123.979 203.652C123.025 201.525 123.747 199.16 124.825 197.5C124.668 197.455 124.512 197.412 124.355 197.368C123.251 199.127 122.542 201.594 123.548 203.836C125.595 208.402 132.43 207.97 134.475 207.728C137.836 207.332 141.236 206.567 144.524 205.826Z" fill="white"/>
<path d="M164.979 238.952C162.885 238.16 160.722 237.342 158.448 237.552C154.459 237.921 151.045 241.779 150.839 246.152C150.697 249.135 151.862 252.26 154.083 255.009C154.216 254.927 154.35 254.845 154.482 254.762C152.312 252.091 151.172 249.058 151.309 246.174C151.506 242.02 154.728 238.358 158.492 238.01C160.655 237.814 162.673 238.574 164.809 239.381C165.572 239.669 166.347 239.959 167.135 240.206C167.176 240.058 167.215 239.909 167.252 239.759C166.484 239.518 165.726 239.234 164.979 238.952Z" fill="white"/>
<path d="M54.3513 224.312C51.6149 222.099 47.363 221.507 42.6881 222.689C38.5217 223.744 34.947 225.831 32.4912 228.594C32.6526 228.645 32.8102 228.703 32.9739 228.75C35.3632 226.128 38.8046 224.147 42.8056 223.135C47.3323 221.989 51.4322 222.549 54.0516 224.667C55.2966 225.674 56.1768 226.981 56.8166 228.392C56.9783 228.374 57.1404 228.356 57.3031 228.337C56.6334 226.82 55.6999 225.403 54.3513 224.312Z" fill="white"/>
<path d="M29.6133 193.868C34.7407 192.622 39.7441 190.872 44.359 188.272C46.1027 187.289 48.0718 186.037 49.4566 184.198C50.9297 182.241 51.4192 179.911 50.7661 177.966C50.5098 177.203 50.0562 176.533 49.4892 175.997C49.3692 176.093 49.248 176.19 49.1273 176.287C49.6566 176.78 50.0808 177.401 50.3188 178.11C50.9244 179.914 50.4606 182.087 49.0778 183.925C47.7448 185.695 45.8259 186.914 44.1243 187.873C39.7715 190.325 35.0632 192.021 30.227 193.247C30.0219 193.453 29.8176 193.66 29.6133 193.868Z" fill="white"/>
</g>
<path d="M111.958 182.913L111.95 183.698L111.823 195.907L111.807 197.23C111.784 199.3 110.916 201.175 109.516 202.537C108.124 203.891 106.207 204.739 104.083 204.754C99.8025 204.777 96.3021 201.416 96.2624 197.222L96.1113 182.134L111.958 182.913Z" fill="#F9B384"/>
<path d="M111.951 183.699L111.824 195.907C104.886 193.145 102.03 185.799 102.03 185.799L111.951 183.699Z" fill="black"/>
<path d="M114.695 162.394C117.181 165.312 124.441 181.847 117.082 187.488C108.801 193.836 96.1983 183.403 96.1983 183.403L94.5078 164.145L105.447 161.324L114.695 162.394Z" fill="#F9B384"/>
<path d="M88.9349 161.333C88.9349 161.333 64.6715 173.71 84.4553 209.389C86.9961 213.971 92.6243 215.972 97.439 213.736C102.604 211.337 104.559 205.166 101.755 200.293C98.5188 194.67 95.3953 187.429 96.7287 182.041L88.9349 161.333Z" fill="black"/>
<path d="M95.8643 171.73C98.4275 169.223 98.4275 165.159 95.8644 162.652C93.3012 160.145 89.1455 160.145 86.5824 162.652C84.0192 165.159 84.0193 169.223 86.5824 171.73C89.1455 174.237 93.3012 174.237 95.8643 171.73Z" fill="#C91C98"/>
<path d="M99.3 174.905C98.5909 170.9 98.1587 168.154 102.297 166.09C102.297 166.09 116.882 168.683 119.667 163.301C122.451 157.919 118.208 149.425 109.325 155.326C86.5851 150.981 83.5354 171.796 90.4301 178.734L97.2353 177.713C98.6047 177.507 99.5362 176.24 99.3 174.905Z" fill="black"/>
<path d="M98.7437 181.966C100.05 180.31 99.5496 177.791 97.6257 176.339C95.7018 174.887 93.0831 175.052 91.7766 176.708C90.4702 178.364 90.9708 180.883 92.8946 182.335C94.8185 183.787 97.4372 183.622 98.7437 181.966Z" fill="#F9B384"/>
<path d="M96.9621 180.756C96.8104 180.756 96.6875 180.636 96.6875 180.487C96.6875 179.694 96.2924 178.962 95.6307 178.527C95.065 178.154 94.3903 178.067 93.8266 178.292C93.686 178.347 93.5259 178.282 93.4686 178.145C93.4114 178.007 93.4787 177.851 93.6192 177.794C94.3524 177.502 95.2191 177.609 95.9372 178.081C96.751 178.616 97.2366 179.515 97.2366 180.487C97.2364 180.636 97.1137 180.756 96.9621 180.756Z" fill="black"/>
<path d="M57.6118 200.247L47.7051 210.729L48.1659 211.145L58.0725 200.664L57.6118 200.247Z" fill="#102048"/>
<path d="M127.408 245.301L127.225 244.714C134.437 242.564 141.436 239.992 147.778 232.234L148.268 232.617C141.814 240.513 134.718 243.122 127.408 245.301Z" fill="#102048"/>
<path d="M131.793 221.534H70.4441C68.2378 221.534 66.4492 223.426 66.4492 225.761V268.602C66.4492 270.937 68.2378 272.829 70.4441 272.829H131.793C134 272.829 135.788 270.937 135.788 268.602V225.761C135.788 223.426 133.999 221.534 131.793 221.534Z" fill="#D3DFFF"/>
<path d="M104.357 244.474C104.59 244.474 104.779 244.673 104.779 244.92V249.443C104.779 249.689 104.59 249.889 104.357 249.889H97.8798C97.6469 249.889 97.4581 249.689 97.4581 249.443V244.92C97.4581 244.673 97.6469 244.474 97.8798 244.474H104.357ZM104.357 243.246H97.8798C96.9554 243.246 96.2031 243.997 96.2031 244.92V249.443C96.2031 250.366 96.9554 251.117 97.8798 251.117H104.357C105.282 251.117 106.034 250.366 106.034 249.443V244.92C106.034 243.997 105.282 243.246 104.357 243.246Z" fill="#1F3C88"/>
</svg>
