<svg width="408" height="426" viewBox="0 0 408 426" fill="none" xmlns="http://www.w3.org/2000/svg">
<circle cx="134" cy="120" r="120" fill="#CE33A2"/>
<circle cx="263.5" cy="239.5" r="144.5" fill="#CE33A2"/>
<circle cx="120" cy="306" r="120" fill="#CE33A2"/>
<path d="M249.309 186.454V333.576" stroke="#2A272D" stroke-width="1.9882" stroke-miterlimit="10"/>
<path d="M355.639 186.454V333.576" stroke="#2A272D" stroke-width="1.9882" stroke-miterlimit="10"/>
<path d="M186.439 231.89C186.439 231.89 206.843 227.261 209.915 240.555C212.568 251.962 184.816 251.525 184.816 251.525L123.796 251.892C123.796 251.892 100.809 254.547 89.4462 228.012C78.0836 201.477 67.1398 131.987 67.1398 131.987C67.1398 131.987 65.4991 122.431 73.4582 121.034C82.8136 119.392 84.6463 139.62 84.6463 139.62C84.6463 139.62 98.7841 225.392 119.31 229.585C122.469 230.231 124.983 232.624 128.212 232.589L186.439 231.89Z" fill="#FFEEE3"/>
<path d="M240.67 162.609L259.939 161.282C261.51 161.177 263.011 161.893 263.901 163.168L274.67 179.467L265.507 179.903L260.341 171.955C260.341 171.955 245.452 175.676 239.954 171.955L240.67 162.609Z" fill="#F2C09E"/>
<path d="M163.052 109.801L188.797 157.683L242.294 159.395V177.004L185.795 179.484C178.324 179.816 171.238 176.235 167.049 170.034L141.339 123.829L163.052 109.801Z" fill="#F6E9E5"/>
<path d="M242.294 159.378V176.986L236.324 177.248V159.185L242.294 159.378Z" fill="white"/>
<path d="M214.261 301.311L217.28 322.483L232.5 321.54L230.319 299.687L214.261 301.311Z" fill="#FCC9A7"/>
<path d="M213.877 320.335C214.209 319.339 215.396 318.937 216.251 319.549C217.927 320.737 220.876 322.152 225.118 321.61C229.534 321.051 231.087 318.693 231.628 317.033C231.907 316.16 232.85 315.688 233.705 316.02L261.143 326.781C262.819 327.427 264.145 328.72 264.861 330.362C265.524 331.899 264.424 333.629 262.731 333.664L216.269 334.345C214.436 334.38 212.97 332.86 213.04 331.026L213.371 322.047C213.371 321.89 213.406 321.75 213.458 321.61L213.877 320.335Z" fill="#1F252A"/>
<path d="M168.025 105.696L172.388 112.701C172.667 113.365 172.79 114.972 171.585 115.566L169.892 116.789L166.262 111.234L168.025 105.696Z" fill="white"/>
<path d="M159.891 113.103L158.512 112.439C153.974 110.221 152.089 104.735 154.305 100.193L169.037 70.0074L185.391 78.0081L168.373 111.81C166.558 115.566 163.643 114.937 159.891 113.103Z" fill="#FCC9A7"/>
<path d="M197.592 83.965C192.792 93.7825 180.94 97.8702 171.131 93.0663C161.322 88.2623 157.238 76.4185 162.038 66.5836C166.837 56.7662 178.671 52.6785 188.498 57.4824C198.325 62.2863 202.392 74.1476 197.592 83.965Z" fill="#FCC9A7"/>
<path d="M173.715 103.495C169.055 101.224 167.117 95.5817 169.404 90.9175L177.712 73.8855L197.749 83.6855L190.977 97.5731C187.835 103.967 180.103 106.639 173.715 103.495Z" fill="#FCC9A7"/>
<path d="M195.149 87.6858L196.231 95.3022C196.318 96.5075 195.044 97.2936 193.927 96.7521L189.005 95.407L195.149 87.6858Z" fill="#FCC9A7"/>
<path d="M177.8 83.8776C177.8 83.8776 184.729 84.3318 185.863 73.6235C185.863 73.6235 197.907 81.3097 202.811 78.2527C202.811 78.2527 204.312 47.9619 179.301 49.0275C154.289 50.0931 152.334 77.1172 152.334 77.1172L166.367 89.7996L177.8 83.8776Z" fill="#1C2226"/>
<path d="M178.794 84.3143C177.485 87.022 174.221 88.14 171.515 86.8123C168.827 85.4847 167.693 82.2355 169.019 79.5279C170.328 76.8202 173.592 75.7022 176.298 77.0298C178.986 78.3575 180.103 81.6066 178.794 84.3143Z" fill="#FCC9A7"/>
<path d="M163.521 80.2965L159.804 88.9785C159.804 88.9785 167.972 95.5293 172.091 87.0919L166.157 85.4149L163.521 80.2965Z" fill="#1C2226"/>
<path d="M185.863 73.6235C185.863 73.6235 202.183 86.236 208.623 75.6674C213.755 67.2299 208.047 61.7622 199.809 63.1248C196.248 63.7187 194.486 61.308 191.693 59.4039L185.863 73.6235Z" fill="#1C2226"/>
<path d="M171.202 121.016C171.202 121.016 170.835 113.312 168.392 110.64C165.948 107.967 152.927 100.595 152.927 100.595C152.927 100.595 134.199 106.028 122.697 127.445C113.743 144.127 105.312 186.349 105.312 186.349L159.35 194.193C164.011 162.644 172.738 148.267 171.202 121.016Z" fill="#F7EBE7"/>
<path d="M153.835 99.1104L151.583 100.124C150.78 100.49 150.606 101.574 151.269 102.167L165.547 114.885C166.123 115.409 167.03 115.252 167.432 114.588L169.037 111.81C169.334 111.286 169.212 110.622 168.741 110.238L155.092 99.3026C154.743 98.9881 154.254 98.9183 153.835 99.1104Z" fill="white"/>
<path d="M234.718 165.474L253.987 164.147C255.558 164.042 257.059 164.758 257.949 166.033L267.828 180.096L258.595 181.283L254.388 174.803C254.388 174.803 239.5 178.523 234.002 174.803L234.718 165.474Z" fill="#FCC9A7"/>
<path d="M152.106 113.365L181.185 162.47L236.34 163.989V179.869L176.822 182.471C171.236 182.716 165.913 180.043 162.771 175.396L130.394 127.392L152.106 113.365Z" fill="#F7EBE7"/>
<path d="M236.341 163.989V179.851L230.372 180.113V163.989H236.341Z" fill="white"/>
<path d="M105.312 186.349L211.608 201.774C219.742 202.962 226.025 209.548 226.811 217.741L234.735 308.351L210.997 309.889L199.582 231.349L132.838 233.078C114.72 233.078 100.827 216.972 103.462 199.032L105.312 186.349Z" fill="#54585A"/>
<path d="M293.712 179.484H237.649V183.118H293.712V179.484Z" fill="#2A272D"/>
<path d="M293.73 183.118L311.865 130.1L308.06 129.192L290.274 180.113L293.73 183.118Z" fill="#2A272D"/>
<path d="M172.824 103.006C172.824 103.006 167.78 100.019 167.78 93.73C167.78 93.73 164.638 100.543 171.044 106.535L172.824 103.006Z" fill="#F2C09E"/>
<path d="M90.0738 337C90.9116 337 91.6796 336.424 91.9065 335.568L119.659 226.056C121.963 216.99 130.079 210.648 139.434 210.648C148.51 210.648 156.574 216.745 159.053 225.479C168.757 259.701 191.343 334.362 191.57 335.113C191.866 336.109 192.931 336.686 193.926 336.371C194.921 336.074 195.497 335.009 195.183 334.013C194.956 333.262 172.37 258.635 162.683 224.449C159.751 214.09 150.186 206.858 139.417 206.858C128.333 206.858 118.699 214.369 115.976 225.113L88.2237 334.642C87.9619 335.655 88.5728 336.686 89.5851 336.948C89.7597 336.983 89.9167 337 90.0738 337Z" fill="#1F252A"/>
<path d="M162.789 175.379L146.12 150.696" stroke="#F6E9E5" stroke-width="0.7847" stroke-miterlimit="10" stroke-linecap="round" stroke-linejoin="round"/>
<path d="M374 183.118H228.765V189.668H374V183.118Z" fill="#FFEEE3"/>
<path d="M249.309 205.583H355.639" stroke="#2A272D" stroke-width="1.9882" stroke-miterlimit="10"/>
<path d="M172.562 146.695L156.592 120.929" stroke="#F6E9E5" stroke-width="0.7847" stroke-miterlimit="10" stroke-linecap="round" stroke-linejoin="round"/>
</svg>
