<svg width="462" height="356" viewBox="0 0 462 356" fill="none" xmlns="http://www.w3.org/2000/svg">
<path d="M100.018 245.361L361.362 100.018" stroke="#CE33A2" stroke-width="200" stroke-linecap="round"/>
<path d="M127.684 344.367C120.933 344.776 113.295 345.561 109.681 348.902C108.828 349.686 108.283 350.607 108.453 351.528C109.033 354.256 115.136 355.04 119.876 355.142C186.265 356.642 252.757 354.085 319.18 354.597C338.889 354.733 359.314 355.108 377.488 350.675C380.761 349.891 384.512 348.05 382.91 346.208C381.818 344.981 379.022 344.776 376.636 344.708C342.81 343.719 308.985 342.969 275.125 342.492C258.042 342.253 240.925 342.083 223.841 341.946C210.202 341.844 197.415 343.174 183.742 343.003C165.022 342.799 146.302 343.276 127.684 344.367Z" fill="url(#paint0_linear_517_551)"/>
<path d="M127.684 344.367C120.933 344.776 113.295 345.561 109.681 348.902C108.828 349.686 108.283 350.607 108.453 351.528C109.033 354.256 115.136 355.04 119.876 355.142C186.265 356.642 252.757 354.085 319.18 354.597C338.889 354.733 359.314 355.108 377.488 350.675C380.761 349.891 384.512 348.05 382.91 346.208C381.818 344.981 379.022 344.776 376.636 344.708C342.81 343.719 308.985 342.969 275.125 342.492C258.042 342.253 240.925 342.083 223.841 341.946C210.202 341.844 197.415 343.174 183.742 343.003C165.022 342.799 146.302 343.276 127.684 344.367Z" fill="url(#paint1_linear_517_551)"/>
<path d="M191.689 326.295C188.143 327.523 184.46 326.295 181.357 323.431C191.246 294.993 187.734 264.509 199.429 236.446C200.486 233.957 201.68 231.434 203.794 229.354C207.886 225.364 219.684 223.693 218.115 230.718C216.513 237.981 212.489 245.38 210.102 252.541C204.953 268.055 200.555 283.706 196.974 299.46C194.963 308.359 193.19 317.327 191.689 326.295Z" fill="#E2CBB7"/>
<path d="M239.495 329.057C236.767 329.432 233.971 329.5 231.209 329.296C230.936 297.994 228.958 266.691 225.242 235.526C224.901 232.764 224.594 229.934 225.549 227.274C227.629 221.579 237.79 219.056 241.677 225.023C245.019 230.138 242.802 239.481 242.871 244.971C243.075 262.872 242.666 280.774 241.711 298.641C241.166 308.803 240.449 318.93 239.495 329.057Z" fill="#E2CBB7"/>
<path d="M213.408 93.9497C210.952 90.6422 207.338 88.2553 205.053 84.8114C203.076 81.8449 202.257 78.0259 203.451 74.6842C204.644 71.3426 208.122 68.7852 211.634 69.2285L207.815 69.0239C204.167 70.0469 200.075 71.4108 198.575 74.9229C197.484 77.4803 198.2 80.4128 198.745 83.1065C199.564 86.9937 200.041 91.0855 199.018 94.9386C198.234 97.871 196.631 100.531 195.608 103.395C194.585 106.259 194.21 109.635 195.847 112.226C197.245 114.409 199.87 115.602 202.462 115.739C205.053 115.875 207.611 115.022 209.964 113.931C212.009 112.977 214.021 111.715 215.283 109.84C216.579 107.862 216.954 105.407 216.783 103.054C216.545 99.7464 215.351 96.5753 213.408 93.9497Z" fill="#534741"/>
<path d="M272.022 39.4267C280.171 69.1944 277.136 68.9898 271.578 86.1072C270.521 89.3806 267.998 94.8363 266.361 97.837C263.531 102.952 259.166 106.941 254.836 110.862C253.949 111.681 252.995 112.499 251.869 112.942C250.846 113.318 249.755 113.318 248.664 113.147C245.425 112.601 242.697 110.146 241.538 107.112C240.14 103.463 242.288 102.065 245.05 100.019C250.505 95.9615 253.063 92.2107 257.496 86.8914C259.985 83.9249 261.485 80.2423 262.849 76.5937C266.327 67.3872 267.964 67.3531 267.827 53.5774C267.793 51.1906 266.225 43.689 265.134 41.5408C263.838 39.0516 262.917 36.9034 261.997 34.8234C261.315 34.0733 260.974 32.5047 260.735 31.8569C260.258 30.5611 259.439 29.3677 258.416 28.413C257.837 27.9015 257.155 27.4241 257.018 26.674C256.984 26.4012 256.984 26.1625 256.916 25.8897C256.848 25.6169 256.677 25.3782 256.541 25.1736C256.2 24.6963 255.791 24.2871 255.348 23.912C255.041 23.6392 254.7 23.3664 254.529 22.9913C254.222 22.2412 254.086 20.1953 254.631 19.5474C255.006 19.07 257.427 17.4674 258.314 17.6379C258.928 17.7402 259.576 17.5015 260.189 17.7061C260.94 17.9448 261.656 18.2858 262.303 18.7291C263.02 19.2405 263.633 19.8543 264.213 20.4681C266.191 22.5481 266.327 26.7422 267.964 29.129L272.022 39.4267Z" fill="#E2CBB7"/>
<path d="M228.14 98.5871C233.391 98.1438 239.358 96.8481 243.45 100.019C246.451 102.338 247.269 106.259 247.78 109.874C251.975 138.994 248.872 168.591 250.679 197.915C251.224 206.985 252.281 216.021 253.748 224.989C254.191 227.751 254.736 230.547 256.134 233.002C256.953 234.4 258.01 235.662 258.59 237.162C260.294 241.561 256.953 246.573 252.486 248.653C248.019 250.733 242.836 250.631 237.892 250.495C222.377 250.051 206.897 249.642 191.382 249.199C187.461 249.097 183.164 248.824 180.402 246.198C177.64 243.573 177.368 239.481 177.538 235.764C178.322 217.215 185.21 199.416 189.745 181.344C194.246 163.442 196.497 145.131 200.861 127.196C202.873 118.944 204.782 109.021 209.215 101.554C213.273 94.8022 221.218 99.1327 228.14 98.5871Z" fill="#D9924E"/>
<path d="M175.626 120.58C172.761 122.865 169.045 125.252 165.669 123.82C163.316 122.831 162.089 120.308 160.998 117.989C156.087 107.282 150.904 96.7117 145.721 86.1413C143.573 87.3347 141.152 88.8691 140.88 91.3242C140.743 92.6199 141.289 93.9157 141.834 95.1091C148.006 108.987 154.723 122.626 161.986 135.993C162.668 137.255 163.453 138.618 164.714 139.3C166.249 140.119 168.124 139.812 169.829 139.403C179.888 136.982 189.265 132.378 198.233 127.264C200.62 125.9 203.143 124.365 204.2 121.842C205.087 119.83 204.882 117.546 204.677 115.363C204.098 109.567 201.063 100.122 193.868 105.577C187.594 110.249 181.763 115.704 175.626 120.58Z" fill="#E2CBB7"/>
<path d="M144.222 79.9354C143.506 79.3898 142.551 79.3898 141.699 79.083C139.619 78.2987 138.664 75.7413 136.755 74.582C135.05 73.525 132.629 73.8659 131.231 75.3321C129.867 76.7643 129.492 78.9125 129.219 80.8902C129.117 81.6062 129.014 82.3223 129.185 83.0042C129.39 83.7885 129.935 84.4023 130.447 84.9478C133.038 87.6757 136.073 89.9262 139.414 91.597C140.096 91.938 140.778 92.2449 141.528 92.279C144.427 92.4836 146.132 89.5852 146.132 87.2665C146.166 85.8344 145.416 80.822 144.222 79.9354Z" fill="#E2CBB7"/>
<path d="M242.118 63.4659C241.572 61.1473 240.856 58.8627 239.868 56.7486C236.356 49.247 225.717 39.4608 216.919 44.746C214.873 45.9736 213.305 47.8489 211.839 49.7244C210.338 51.668 208.906 53.6798 207.781 55.862C205.667 59.9879 204.61 64.9322 205.19 69.5695C205.735 73.8659 207.849 78.0941 209.861 81.9131C212.487 86.9596 215.965 92.0744 221.318 94.018C228.445 96.6094 236.73 92.2107 240.413 85.5957C243.993 78.9806 243.857 70.8312 242.118 63.4659Z" fill="#E2CBB7"/>
<path d="M219.374 52.384C217.532 55.4529 214.941 57.9761 212.247 60.3289C210.167 62.1702 207.917 64.0797 207.098 66.7394C206.416 68.9217 206.825 71.2744 206.28 73.4908C204.677 73.7636 203.45 72.161 202.597 70.763C201.336 68.6148 200.04 66.3984 199.563 63.9433C199.222 62.1361 199.358 60.2607 199.494 58.4535C199.767 54.9755 200.176 51.4293 201.745 48.3604C203.416 45.1211 206.348 42.5637 209.826 41.3703C212.691 40.3814 218.078 39.9041 220.601 42.1546C223.431 44.6778 220.942 49.8608 219.374 52.384Z" fill="#534741"/>
<path d="M273.692 97.496C272.294 95.1091 270.283 93.1314 268.612 90.915C263.974 84.8796 261.962 77.3098 258.723 70.422C257.359 67.5577 255.62 64.6253 252.824 63.0909C251.188 62.2043 248.119 61.8974 246.141 62.9204C246.175 62.2725 246.243 61.5905 246.243 60.9427C246.38 54.1912 244.504 47.1329 239.73 42.3591C234.957 37.5854 226.944 35.7782 221.215 39.3244C217.328 41.7454 215.384 48.3604 220.738 50.4404C222.511 51.1224 224.761 50.8155 226.637 51.3611C229.467 52.1794 232.195 53.5093 234.479 55.3847C238.23 58.4194 240.788 63.2273 240.31 68.0692C240.822 67.319 241.197 66.5007 241.435 65.6482C242.902 66.603 242.186 68.8194 241.708 70.4902C240.788 73.8318 241.504 77.378 242.22 80.7538C243.413 76.7984 244.572 72.7748 245.357 68.7512C246.687 70.8994 248.937 73.0135 249.926 74.4115C255.62 82.2541 256.882 92.5517 256.302 102.236C256.132 105.1 255.825 108.101 256.984 110.726C258.519 114.238 262.679 116.318 266.498 115.773C270.317 115.227 273.59 112.261 274.886 108.646C276.181 104.998 275.602 100.838 273.692 97.496Z" fill="#534741"/>
<path d="M240.515 323.328C241.095 323.397 241.709 323.499 242.186 323.84C242.8 324.283 243.039 325.033 243.175 325.784C243.823 328.921 243.243 332.365 244.709 335.195C245.46 336.661 246.721 337.854 248.221 338.502C249.79 339.184 251.563 339.286 253.132 340.003C254.7 340.684 256.098 342.389 255.587 344.026C254.973 345.97 252.348 346.277 250.302 346.174C246.619 346.004 242.902 345.867 239.22 345.697C236.594 345.595 233.696 345.356 231.82 343.515C230.286 341.98 229.843 339.696 229.57 337.513C229.161 334.308 227.66 326.977 229.672 324.147C231.513 321.521 237.89 323.022 240.515 323.328Z" fill="#ACB18F"/>
<path d="M189.676 319.85C190.426 320.089 191.245 320.396 191.722 321.01C192.302 321.726 192.302 322.715 192.302 323.635C192.302 327.284 192.268 330.932 192.199 334.547C192.165 336.149 192.131 337.786 191.552 339.286C190.324 342.492 186.573 344.435 183.198 343.753C181.527 343.412 179.992 342.56 178.526 341.673C177.946 341.332 177.367 340.957 176.958 340.446C176.412 339.73 176.31 338.775 176.31 337.888C176.276 335.365 177.026 332.91 177.776 330.489C178.901 326.807 179.651 322.647 181.254 319.134C182.652 316.031 187.187 318.998 189.676 319.85Z" fill="#ACB18F"/>
<path d="M238.811 47.2011C237.583 46.144 236.287 47.5762 235.537 48.5309C234.276 50.1676 232.912 51.9407 231.923 53.7479C231.582 54.3617 232.162 55.0096 232.741 54.9755C232.98 55.2142 233.185 55.4188 233.457 55.5893C233.798 55.7597 234.242 55.7938 234.548 55.5893C235.333 55.0778 235.981 54.2253 236.594 53.5775C237.413 52.725 238.231 51.8725 239.049 51.0201C240.379 49.7244 240.345 48.4968 238.811 47.2011Z" fill="#DD7A8F"/>
<path d="M244.061 52.7591C243.72 51.9408 242.834 51.327 241.947 51.7362C240.856 52.2476 239.867 53.5434 239.049 54.3958C238.128 55.4188 237.276 56.4758 236.525 57.6352C236.219 58.1125 236.594 58.6581 237.071 58.7945C237.105 59.1696 237.344 59.5447 237.855 59.8175C238.912 60.4312 239.867 59.4424 240.583 58.7604C241.572 57.8739 242.459 56.8509 243.277 55.7939C243.959 54.9414 244.539 53.8844 244.061 52.7591Z" fill="#DD7A8F"/>
<path d="M288.018 165.795C289.245 166.545 290.643 167.261 292.076 166.988C294.087 166.579 295.144 164.397 295.895 162.487C298.622 155.463 301.316 148.405 304.044 141.38C306.533 134.97 309.056 128.287 308.749 121.399C308.613 118.194 306.874 114.238 303.703 114.511C301.828 114.647 300.464 116.284 299.407 117.819C295.247 123.82 294.974 130.026 293.269 137.152C292.587 140.051 291.053 146.938 289.416 149.393C287.745 151.849 284.813 149.837 282.051 148.746C279.766 147.825 275.674 143.529 274.072 141.653C270.559 137.527 269.707 136.777 267.081 134.629C265.377 133.231 265.104 133.401 262.887 133.333C251.26 133.026 265.888 147.791 268.309 150.246C274.14 156.281 280.789 161.532 288.018 165.795Z" fill="#E2CBB7"/>
<path d="M339.268 178.172C325.424 178.616 310.933 175.104 297.362 178.923C297.293 231.161 300.192 289.094 304.727 340.991C309.057 340.991 313.388 340.991 317.718 340.991C321.264 312.792 320.242 286.093 321.094 257.826C322.662 270.988 325.697 278.523 328.834 294.891C330.3 302.46 332.005 309.894 333.267 317.532C333.915 321.419 334.597 325.34 335.347 329.193C335.995 332.501 337.188 335.979 337.086 339.457C341.314 340.173 345.679 338.366 349.805 337.343C349.805 330.353 349.805 323.329 349.805 316.338C349.805 307.166 349.361 298.335 348.543 289.264C347.793 280.74 346.599 272.011 346.599 263.418C346.156 257.758 345.713 252.097 345.372 246.403C344.656 233.582 348.236 215.783 347.691 202.962C347.418 196.585 343.36 195.153 342.712 188.811C342.405 185.742 342.064 182.639 341.587 179.604C341.416 178.513 341.485 176.911 340.53 176.808C340.325 176.706 339.882 178.138 339.268 178.172Z" fill="#E2CBB7"/>
<path d="M319.661 100.428C322.219 98.4507 324.367 95.4501 325.799 91.5288C328.425 84.2658 330.266 76.5256 329.243 68.8535C328.015 60.0561 321.4 49.7244 311.614 49.0083C300.123 48.1899 296.747 62.3066 294.77 71.7859C293.201 79.3216 293.645 87.5734 297.634 94.1202C303.567 103.941 312.944 105.645 319.661 100.428Z" fill="#E2CBB7"/>
<path d="M304.895 57.9761C305.407 59.1014 306.771 59.7492 307.964 59.4083C309.157 59.1014 310.01 57.8397 309.874 56.6122C311.237 59.4423 315.704 60.022 317.75 57.6692C316.864 57.4306 317.205 59.0673 318.023 59.4764C319.728 60.2607 321.774 60.2948 323.479 59.5106C322.217 60.2266 323.035 62.1361 323.956 63.2614C324.672 64.1138 325.354 65.0004 326.07 65.8528C324.809 67.8305 327.093 70.8653 329.344 70.2174C327.775 70.9676 327.332 73.3203 328.491 74.582C327.434 75.8095 326.684 77.3098 326.411 78.9124C327.366 78.9806 327.741 80.5492 326.889 81.0265C327.639 81.5721 328.662 81.6744 329.514 81.2993C329.003 81.4016 329.207 82.3223 329.719 82.3904C330.23 82.4586 330.673 82.0154 330.946 81.538C331.73 80.2423 331.969 78.6396 331.526 77.1734C333.129 76.4233 333.538 74.3774 333.742 72.6043C333.845 71.7177 333.947 70.8312 334.049 69.9446C334.152 69.0921 334.254 68.2056 333.913 67.4213C333.572 66.6371 332.685 65.9892 331.867 66.2961C333.811 65.9892 334.868 63.2614 333.64 61.7269C336.368 60.7381 336.607 56.1348 333.981 54.8732C334.799 53.1342 334.424 50.9178 333.026 49.588C331.662 48.2581 329.412 47.8831 327.707 48.7355C327.98 49.1106 328.662 48.8378 328.798 48.3945C328.934 47.9512 328.696 47.4739 328.423 47.0988C326.616 44.5755 322.899 43.6208 320.069 44.9506C318.466 42.666 315.022 41.8818 312.601 43.2798C313.113 43.5526 313.795 43.2798 313.999 42.7342C312.601 41.4385 310.896 40.2451 308.953 40.2792C307.043 40.3133 305.134 42.2227 305.782 44.03C302.815 42.4955 298.689 45.5303 299.269 48.8037C297.325 48.6673 295.211 49.0765 293.881 50.5086C292.552 51.9067 292.347 54.4981 293.847 55.7256C291.631 55.6575 289.483 57.3965 289.074 59.5788C288.665 61.761 290.028 64.1479 292.142 64.8981C290.301 66.1938 288.971 68.2056 288.46 70.3879C289.074 71.2403 289.858 71.9223 290.779 72.3997C290.233 72.6725 289.96 73.3544 290.165 73.9341C291.358 74.8207 292.722 75.7754 294.223 75.5708C295.723 75.4003 296.882 73.3885 295.791 72.3656C298.041 71.3085 299.235 68.4102 298.382 66.0915C298.928 65.9551 299.474 65.8187 300.053 65.6823C300.769 64.523 301.213 62.6135 299.951 62.2043C301.144 63.1591 303.02 63.0909 304.179 62.102C305.373 61.1473 305.645 59.2719 304.895 57.9761Z" fill="#333333"/>
<path d="M337.902 37.9605C339.368 38.5401 339.096 40.9611 337.732 41.7454C336.368 42.5296 334.629 42.0523 333.197 41.3703C333.947 41.5408 334.356 42.5978 333.879 43.2116C331.731 43.7913 329.309 43.3139 327.502 41.9841C328.014 41.7795 328.525 42.5296 328.321 43.0411C328.116 43.5526 327.502 43.7913 326.923 43.8936C325.115 44.1663 323.206 43.3821 322.149 41.8818C323.479 41.4726 324.399 43.6549 323.479 44.7119C322.558 45.769 320.887 45.7008 319.557 45.2234C319.182 45.087 318.773 44.8824 318.637 44.5073C319.455 44.4732 319.898 45.5985 319.455 46.2804C319.012 46.9624 318.023 47.0988 317.307 46.7919C316.557 46.485 316.011 45.8372 315.602 45.1552C315.806 45.5644 315.841 46.0758 315.67 46.485C314.17 46.4168 312.84 45.2234 312.601 43.7572C312.363 43.5526 312.772 43.0752 313.01 43.2798C311.408 42.4614 310.044 41.0975 309.226 39.4949C307.964 40.245 306.088 39.7677 305.372 38.4719C304.349 38.6424 303.258 38.3355 302.508 37.6195C302.133 38.3014 301.212 38.5401 300.496 38.3014C299.78 38.0628 299.201 37.4149 298.86 36.7329C298.689 36.392 298.587 36.0169 298.757 35.6759C298.962 35.369 299.576 35.4031 299.576 35.7782C297.768 35.71 296.2 34.1074 296.098 32.3343C296.643 32.3343 297.189 32.573 297.53 33.0162C296.268 32.9139 295.313 31.4477 295.757 30.2543C296.166 29.0608 297.837 28.5153 298.86 29.2313C298.11 28.4471 297.769 27.2536 298.041 26.1966C298.485 26.0943 298.962 25.9579 299.405 25.8556C298.075 25.3441 298.041 23.1277 299.303 22.4799C300.531 21.7979 302.304 22.8209 302.44 24.253C301.247 23.6733 301.247 21.6615 302.406 21.0477C303.565 20.434 305.236 21.5592 305.066 22.855C305.134 21.9343 305.986 21.15 306.907 21.2182C307.828 21.2523 308.612 22.1389 308.578 23.0595C308.782 22.0025 309.396 20.8773 310.487 20.6727C311.544 20.4681 312.67 21.9002 311.885 22.6845C311.442 21.2523 313.181 19.9225 314.647 20.1612C316.113 20.3658 317.273 21.5251 318.296 22.6163C318.432 21.7297 319.285 21.0478 320.171 21.0818C321.058 21.15 321.842 21.9343 321.842 22.8209C321.194 22.173 321.467 20.9114 322.319 20.5704C323.172 20.2294 324.229 21.0136 324.195 21.9002C324.808 20.8432 326.104 20.2976 327.264 20.5704C328.423 20.8432 329.343 21.9343 329.446 23.1277C329.514 22.3435 330.264 21.7979 331.048 21.6615C331.799 21.5592 332.583 21.7638 333.333 21.9684C334.22 22.2412 335.174 22.5481 335.652 23.3323C336.129 24.1166 335.686 25.4464 334.765 25.3782C335.993 25.3441 337.391 25.4123 338.175 26.333C338.959 27.2877 338.039 29.1972 336.947 28.6858C338.414 28.5494 340.05 29.1972 340.562 30.5612C341.073 31.9251 339.88 33.7664 338.448 33.4254C339.641 33.5959 340.596 34.8234 340.46 36.0169C340.323 37.108 339.13 38.0628 337.902 37.9605Z" fill="#333333"/>
<path d="M338.721 112.499L339.062 113.283C338.959 113.045 338.823 112.772 338.721 112.499Z" fill="#B79A7D"/>
<path d="M317.24 345.629C317.274 343.753 317.308 341.844 317.308 339.969C314.034 338.809 310.283 339.048 307.215 340.65C306.874 340.821 306.226 340.719 306.43 340.412C303.566 343.003 300.259 345.083 296.712 346.549C295.894 346.89 295.042 347.197 294.428 347.811C293.132 349.073 293.337 351.562 294.837 352.585C296.235 353.574 298.144 353.233 299.815 352.858C304.555 351.801 309.295 350.778 314.034 349.721C314.887 349.516 315.841 349.311 316.421 348.664C317.171 347.879 317.205 346.72 317.24 345.629Z" fill="#4D4D4D"/>
<path d="M350.145 339.662C349.464 337.888 348.782 336.149 348.1 334.376C344.622 334.513 341.246 336.149 338.996 338.809C338.757 339.082 338.109 339.218 338.177 338.877C336.472 342.321 334.188 345.492 331.46 348.186C330.846 348.8 330.164 349.414 329.823 350.198C329.107 351.869 330.198 354.085 331.971 354.494C333.642 354.869 335.279 353.846 336.677 352.892C340.666 350.164 344.69 347.402 348.713 344.674C349.464 344.162 350.214 343.617 350.521 342.799C350.896 341.776 350.521 340.684 350.145 339.662Z" fill="#4D4D4D"/>
<path d="M288.804 215.339C287.781 216.772 286.417 217.931 285.36 219.363C282.393 223.387 282.461 229.183 284.916 233.548C287.406 237.878 292.009 240.777 296.885 241.868C301.863 242.959 307.046 242.345 312.093 242.959C317.208 243.607 322.152 245.55 327.301 245.994C334.904 246.642 342.372 243.982 349.567 241.39C354.75 239.515 360.683 236.787 361.808 231.366C362.353 228.672 361.535 225.91 360.649 223.318C358.398 216.737 355.773 210.327 352.704 204.121C352.26 203.2 351.783 202.28 350.999 201.598C349.26 200.132 346.668 200.473 344.418 200.882C333.234 202.928 321.845 204.087 310.49 204.36C307.762 204.428 305.035 204.462 302.341 204.428C299.92 204.394 295.657 203.371 293.407 204.121C291.02 204.939 291.77 206.337 291.259 209.031C290.816 211.282 290.134 213.464 288.804 215.339Z" fill="#662E2A"/>
<path d="M327.674 108.817C328.561 108.714 329.515 108.646 330.368 108.885C332.243 109.43 332.959 111.272 333.402 112.874C335.073 118.705 336.71 124.536 338.381 130.367C339.711 135.004 341.006 139.607 342.336 144.245C346.36 158.361 350.383 172.546 352.804 186.902C353.589 191.607 354.236 196.347 354.68 201.086C354.714 201.598 354.782 202.178 354.475 202.621C354.1 203.166 353.35 203.439 352.634 203.678C332.686 210.02 309.875 212.816 290.132 206.099C290.541 195.903 290.95 185.742 291.393 175.547C291.769 166.681 292.11 157.85 293.098 149.018C294.326 137.868 296.576 126.82 299.782 115.977C300.259 114.409 300.702 109.362 302.339 108.407C304.044 107.419 307.317 109.158 309.397 109.464C315.433 110.351 321.673 109.43 327.674 108.817Z" fill="#AA4A4D"/>
<path d="M335.652 113.454C342.847 129.275 350.076 145.063 357.271 160.885C357.987 162.453 358.737 164.124 358.532 165.829C358.328 167.806 356.93 169.443 355.6 170.944C347.826 179.775 339.676 188.879 328.901 193.619C327.162 194.403 325.253 195.051 323.343 194.812C321.434 194.574 319.558 193.21 319.32 191.3C319.013 188.675 321.638 186.799 323.855 185.367C330.026 181.446 335.55 176.433 340.085 170.671C341.824 168.454 343.461 165.999 343.768 163.169C344.109 160.066 342.745 157.031 341.381 154.201C336.846 144.62 331.561 135.652 326.548 126.377C324.673 122.933 323.786 120.069 326.037 116.557C327.912 113.727 333.436 108.578 335.652 113.454Z" fill="#E2CBB7"/>
<path d="M320.136 63.5C319.658 64.3866 319.147 65.3413 319.181 66.3643C319.215 67.3872 319.965 68.4784 320.988 68.4443C319.181 69.3649 319.011 72.3656 320.715 73.5249C319.488 74.616 319.761 76.9347 321.193 77.7531C320.17 78.776 320.613 80.856 322.011 81.3675C321.022 81.9813 320.647 83.4134 321.193 84.4363C321.738 85.4593 323.102 85.9708 324.194 85.5275C323.58 86.1753 322.966 86.8914 322.932 87.7779C322.898 88.6645 323.818 89.5851 324.603 89.2101C323.341 90.1989 323.443 92.4494 324.807 93.336C326.137 94.2225 328.251 93.4042 328.66 91.8356C329.274 92.6881 330.604 92.7563 331.491 92.1766C332.377 91.597 332.854 90.574 333.059 89.5511C334.218 89.5852 335.446 89.4829 336.367 88.8009C337.287 88.1189 337.73 86.6527 336.946 85.7662C337.969 85.8685 339.026 85.2888 339.504 84.3681C339.981 83.4475 339.845 82.254 339.163 81.4698C340.458 80.9583 341.652 79.9695 341.856 78.6055C342.061 77.2416 340.902 75.7072 339.538 75.9459C341.481 75.0934 342.606 72.7065 341.993 70.6606C341.822 70.1151 341.174 69.5354 340.799 69.9787C341.925 69.1262 342.709 67.7964 342.641 66.3984C342.572 65.0003 341.413 63.6705 340.015 63.6023C341.106 62.9886 341.584 61.4541 341.038 60.2948C340.492 59.1695 338.958 58.5899 337.799 59.1013C337.935 58.2148 338.071 57.3282 338.174 56.4758C338.208 56.1689 338.242 55.7938 338.037 55.5551C337.867 55.3505 337.56 55.3164 337.253 55.3164C336.333 55.2824 335.378 55.4187 334.491 55.7256C334.764 54.805 334.287 53.7479 333.434 53.3387C332.582 52.9296 331.457 53.1683 330.877 53.9184C328.115 51.6338 323.307 52.725 321.772 55.9643C319.761 54.464 318.329 57.2941 317.953 58.8968C317.749 59.8515 317.715 61.0109 318.124 61.8974C318.226 62.0679 319.863 64.0115 320.136 63.5Z" fill="#333333"/>
<path d="M219.446 184.037C219.548 184.583 219.651 185.128 219.923 185.606C220.196 186.083 220.674 186.492 221.219 186.492C221.458 186.492 221.731 186.424 221.969 186.492C222.344 186.561 222.617 186.902 222.788 187.277C223.401 188.606 223.06 190.311 224.049 191.368C224.834 192.221 226.198 192.289 227.289 191.914C228.209 191.573 229.062 190.857 229.403 189.936C229.71 188.982 229.471 187.924 229.13 187.004C227.937 183.833 225.584 181.071 225.106 177.695C225.038 177.218 225.004 176.672 224.697 176.297C224.186 175.683 223.265 175.717 222.481 175.888C221.356 176.126 218.866 176.604 218.491 177.934C218.253 178.718 218.73 179.945 218.9 180.73C219.071 181.821 219.241 182.946 219.446 184.037Z" fill="#F9E9DE"/>
<path d="M80.0856 94.4953C79.5741 92.4494 79.3695 90.3694 78.6875 88.3576C78.5171 87.8121 78.2784 87.2665 77.8351 86.8914C77.5282 86.6186 77.119 86.4823 76.778 86.2777C74.9708 85.1524 74.8004 82.22 72.8568 81.4357C71.7315 80.9583 70.3676 81.4357 69.4128 82.22C67.9125 83.4134 66.9577 85.2888 66.9236 87.1983C66.8554 89.5511 68.083 91.7675 69.481 93.6429C70.879 95.5183 72.5499 97.2573 73.6069 99.3373C74.0502 100.19 74.3911 101.11 74.9367 101.895C75.4823 102.679 76.3006 103.361 77.2554 103.429C78.4147 103.531 79.4036 102.747 80.3243 102.031C81.5177 101.076 83.1544 100.36 82.0632 98.7917C81.1085 97.4619 80.4948 96.0979 80.0856 94.4953Z" fill="#F9E9DE"/>
<path d="M171.435 249.506C171.674 253.632 171.947 257.758 172.731 261.815C173.345 264.986 174.265 268.089 175.22 271.158C180.676 288.685 187.495 305.802 195.645 322.272C196.327 323.67 197.145 325.17 198.577 325.784C200.828 326.738 203.487 324.829 204.238 322.476C204.988 320.123 204.374 317.6 203.794 315.213C200.725 303.04 197.657 290.901 194.588 278.728C193.838 275.796 193.122 272.863 192.678 269.863C192.167 266.35 192.064 262.804 191.996 259.258C191.826 252.711 191.655 246.13 192.371 239.617C192.883 235.048 193.804 230.513 194.656 225.978C196.19 217.829 197.452 209.611 198.407 201.359C198.68 199.006 198.952 196.585 198.407 194.267C197.077 188.334 190.769 184.446 184.699 184.446C180.198 184.446 175.322 186.185 171.742 188.879C168.741 191.164 169.082 193.346 169.253 196.824C169.798 208.008 169.969 219.227 170.446 230.411C170.753 236.787 171.06 243.164 171.435 249.506Z" fill="#ADADAD"/>
<path d="M137.95 204.462C138.019 199.518 138.121 194.505 139.382 189.868C140.644 185.231 143.167 180.934 146.816 179.127C151.215 176.945 156.67 178.854 160.148 183.117C163.626 187.379 165.229 193.585 165.059 199.484C164.956 202.587 164.411 205.621 164.07 208.69C163.388 214.419 163.422 220.284 163.285 226.08C162.876 244.255 161.171 262.259 159.466 280.262C158.239 293.118 157.045 305.973 155.818 318.828C155.511 321.999 155.238 325.204 154.931 328.375C154.556 332.058 154.181 333.353 150.805 333.012C146.577 332.603 146.373 329.125 145.861 324.556C142.929 298.88 140.371 273.136 138.973 247.324C138.189 233.071 137.712 218.715 137.95 204.462Z" fill="#ADADAD"/>
<path d="M125.879 199.518C123.901 203.917 120.798 207.804 119.298 212.373C117.832 216.976 118.616 222.909 122.844 225.228C127.482 227.785 133.687 224.751 138.427 227.103C141.973 228.842 143.712 233.139 147.224 234.98C150.293 236.583 154.01 235.969 157.249 234.775C160.488 233.582 163.523 231.809 166.899 231.127C170.513 230.377 174.367 230.956 177.64 232.695C180.402 234.196 182.959 236.549 186.096 236.617C191.791 236.719 195.337 229.354 200.997 228.979C203.384 228.842 205.669 229.968 208.056 229.797C212.659 229.456 215.557 224.273 215.319 219.67C215.08 215.067 212.727 210.907 210.886 206.679C208.772 201.802 207.305 196.654 206.555 191.402C205.942 186.97 205.396 181.787 201.577 179.502C199.667 178.343 197.315 178.206 195.098 178.206C179.822 178.036 164.683 181.139 149.407 180.559C144.155 180.355 136.586 176.979 132.903 181.446C128.845 186.458 128.436 193.789 125.879 199.518Z" fill="#F2F2F2"/>
<path d="M143.849 320.942C143.201 322.612 143.712 324.454 144.121 326.193C144.906 329.534 145.247 333.012 145.11 336.456C145.11 336.729 145.076 337.002 144.974 337.275C144.701 337.888 143.951 338.127 143.303 338.264C140.712 338.843 138.018 338.945 135.426 338.57C133.721 338.332 131.812 337.957 130.482 339.048C129.698 339.662 129.323 340.65 129.05 341.605C128.641 342.935 128.368 344.265 128.163 345.629C127.925 347.402 127.959 349.516 129.391 350.607C130.312 351.289 131.505 351.391 132.664 351.425C139.723 351.664 146.815 351.459 153.873 350.743C155.203 350.607 156.704 350.334 157.386 349.175C157.761 348.527 157.761 347.743 157.761 346.993C157.727 341.605 157.59 336.218 157.351 330.83C157.215 328.136 157.045 325.443 156.874 322.749C156.806 321.93 157.011 320.601 156.124 320.191C155.374 319.816 153.328 320.532 152.51 320.635C151.657 320.771 143.917 320.771 143.849 320.942Z" fill="#736357"/>
<path d="M203.485 311.326C204.951 316.338 206.451 321.351 207.918 326.363C208.463 328.17 209.009 330.012 209.895 331.683C210.407 332.637 211.02 333.524 211.6 334.41C213.237 336.968 214.499 339.764 215.351 342.696C215.522 343.344 215.692 343.992 215.624 344.674C215.521 345.458 215.112 346.174 214.635 346.788C212.419 349.618 208.565 351.05 205.053 350.334C204.337 350.198 203.621 349.959 203.076 349.516C202.36 348.97 201.95 348.118 201.644 347.3C199.223 341.298 199.393 334.479 196.699 328.58C196.051 327.147 195.233 325.784 194.585 324.317C194.108 323.226 193.733 322.101 193.358 320.976C192.914 319.646 191.789 317.566 191.789 316.168C191.789 314.838 193.358 314.531 194.551 314.02C197.483 312.792 200.45 311.906 203.485 311.326Z" fill="#736357"/>
<path d="M127.858 183.73C128.369 184.242 129.187 184.378 129.767 184.822C130.483 185.367 130.79 186.39 130.449 187.242C130.142 188.061 129.29 188.743 129.46 189.595C129.665 190.755 131.336 190.857 132.359 190.311C133.381 189.766 134.404 188.879 135.564 189.05C136.859 189.22 137.576 190.618 138.189 191.812C138.803 192.971 139.894 194.267 141.156 193.926C142.077 193.687 142.69 192.63 143.645 192.528C145.077 192.357 145.759 194.13 146.509 195.324C147.43 196.79 149.271 197.813 150.908 197.233C152.306 196.722 153.227 195.221 154.693 195.051C156.193 194.88 157.387 196.176 158.444 197.233C159.501 198.29 161.137 199.313 162.399 198.529C162.808 198.29 163.081 197.915 163.388 197.574C164.922 195.903 167.446 195.221 169.628 195.869C171.026 196.279 172.219 197.165 173.549 197.642C174.913 198.154 176.618 198.154 177.573 197.097C178.016 196.585 178.255 195.938 178.698 195.426C179.823 194.199 181.801 194.505 183.37 195.085C184.938 195.631 186.677 196.347 188.177 195.631C189.678 194.881 190.428 192.869 192.099 192.562C193.088 192.391 194.042 192.869 195.031 192.937C196.736 193.039 198.373 191.709 198.611 190.039C199.805 190.141 201.066 190.209 202.192 189.698C203.283 189.186 204.135 187.89 203.658 186.765C205.261 186.833 206.352 184.481 205.226 183.321C204.647 182.742 203.658 182.435 203.453 181.616C203.283 180.9 203.76 179.98 203.181 179.536C201.578 180.218 200.623 181.821 199.396 183.048C197.486 184.958 194.861 185.913 192.235 186.595C182.449 189.186 172.117 188.368 162.024 187.481C154.863 186.867 147.566 186.185 140.849 183.628C139.69 183.185 138.53 182.707 137.337 182.401C135.018 181.821 132.597 181.309 130.313 180.798C128.71 180.423 126.255 182.094 127.858 183.73Z" fill="white"/>
<path d="M166.286 60.9427C164.479 62.5453 162.024 63.1591 159.705 63.8751C157.387 64.5912 155 65.4777 153.499 67.3872C152.442 68.7171 151.999 70.422 151.556 72.0587C150.737 75.0594 149.953 78.401 151.385 81.197C152.101 82.6292 153.363 83.7544 153.874 85.2888C154.522 87.1983 153.84 89.2783 152.954 91.0855C152.067 92.8927 150.976 94.6658 150.703 96.6435C150.499 98.0756 150.737 99.6101 150.328 100.974C149.578 103.429 146.85 104.861 144.293 104.964C141.735 105.066 139.246 104.077 136.859 103.122C135.223 102.474 133.415 101.588 133.006 99.8829C132.733 98.6212 133.347 97.3596 134.132 96.3367C134.916 95.3137 135.905 94.4613 136.518 93.336C136.825 92.7563 137.064 92.0744 136.791 91.4606C136.45 90.7104 135.427 90.4377 135.086 89.6875C134.677 88.7669 135.461 87.7439 136.314 87.1642C137.132 86.5845 138.155 86.039 138.394 85.0501C138.803 83.3793 136.689 82.1518 136.177 80.5151C135.598 78.742 136.962 76.9689 138.223 75.6049C139.485 74.241 140.815 72.4679 140.235 70.6948C139.894 69.6718 138.939 68.7512 139.178 67.7282C139.519 66.3643 141.497 66.2961 142.52 65.3414C144.259 63.7387 142.656 60.8404 143.167 58.5558C143.713 56.1348 146.577 54.8391 147.191 52.4522C147.362 51.8044 147.362 51.0883 147.6 50.4745C147.907 49.6903 148.589 49.1106 149.237 48.565C151.59 46.5532 154.079 44.4732 157.114 43.8936C159.126 43.4844 161.205 43.7913 163.183 44.2005C164.956 44.5755 166.798 45.087 167.991 46.4509C170.685 49.5539 169.253 58.3512 166.286 60.9427Z" fill="#C6B697"/>
<path d="M91.8809 102.918C101.19 105.68 110.908 108.339 120.523 106.941C131.435 105.339 141.357 98.6212 152.371 98.5189C153.019 98.5189 153.735 98.553 154.281 98.894C154.724 99.2009 155.031 99.6783 155.303 100.156C157.827 104.759 158.407 110.385 156.94 115.432C156.122 118.228 154.656 120.853 152.576 122.899C151.041 124.399 149.2 125.525 147.29 126.445C140.778 129.617 133.276 130.537 126.047 129.821C118.818 129.139 111.794 126.923 105.077 124.161C99.9621 122.047 94.9838 119.592 90.4828 116.42C85.5045 112.874 81.1741 108.476 76.9118 104.077C76.6731 103.838 76.4343 103.565 76.4002 103.224C76.2638 100.803 81.2081 98.7917 83.1176 99.235C86.0159 99.951 88.8802 102.065 91.8809 102.918Z" fill="#D5AFCB"/>
<path d="M176.104 95.9274C177.673 95.5183 179.344 94.9727 180.946 95.2796C183.06 95.6547 184.322 97.2232 185.277 98.6894C191.858 108.748 194.415 119.967 196.7 131.049C199.973 146.802 204.304 161.362 204.201 177.32C204.167 181.139 203.69 185.435 199.803 187.856C197.825 189.084 195.302 189.629 192.812 190.004C182.106 191.641 169.66 192.187 158.783 191.437C154.009 191.096 149.201 190.755 144.598 189.8C139.278 188.709 133.925 186.561 131.436 182.844C129.219 179.57 129.628 175.649 130.174 172.001C132.152 158.02 134.948 144.074 138.562 130.264C140.983 120.99 143.779 111.749 146.541 102.543C147.769 98.4166 149.644 93.8134 156.259 95.0409C163.249 96.3025 168.773 97.8369 176.104 95.9274Z" fill="#D5AFCB"/>
<path d="M168.943 94.1203C166.761 94.3249 164.135 94.734 161.987 94.359C156.02 93.3019 152.44 87.1643 149.371 81.7767C146.575 76.8666 147.427 67.8305 148.348 62.1702C148.655 60.2607 149.03 58.283 150.087 56.6804C152.201 53.5775 156.259 52.8955 159.873 52.725C166.215 52.384 172.831 52.7932 178.286 56.1008C191.244 63.8752 184.321 92.62 168.943 94.1203Z" fill="#F9E9DE"/>
<path d="M195.782 106.702C212.013 125.797 218.594 150.553 224.731 174.456C224.868 174.967 225.004 175.547 224.799 176.024C224.39 177.149 220.64 177.695 218.935 178.241C218.15 178.479 217.332 178.172 217.025 177.422C212.558 166.681 207 154.679 199.226 143.938C192.986 135.311 188.69 127.298 178.699 122.183C174.539 120.035 173.584 118.023 173.891 113.318C174.198 108.714 177.301 103.941 181.085 101.724C186.78 98.3143 192.202 102.474 195.782 106.702Z" fill="#D5AFCB"/>
<path d="M157.35 108.135C158.544 113.795 159.362 119.489 160.214 125.218C160.351 126.07 160.555 127.025 161.306 127.4C162.397 127.98 163.624 126.889 164.306 125.866C168.091 120.205 168.671 113.011 171.33 106.737C172.422 104.111 173.922 101.622 174.638 98.8599C174.775 98.3484 174.877 97.8029 174.672 97.2914C174.263 96.2343 172.831 96.132 171.706 96.1661C169.932 96.2343 168.159 96.2003 166.352 96.1321C164.954 96.0639 163.556 95.9957 162.226 95.5865C160.59 95.1091 158.714 93.8475 156.975 93.8816C155.373 93.9498 155.475 95.1091 155.475 96.473C155.509 100.463 156.532 104.316 157.35 108.135Z" fill="#F7F7F7"/>
<path d="M152.713 98.0074C152.849 98.6212 153.531 99.0304 153.634 99.6783C153.736 100.394 153.02 100.974 152.338 101.213C151.656 101.417 150.872 101.451 150.258 101.826C149.644 102.202 149.337 103.19 149.883 103.634C150.122 103.804 150.428 103.838 150.735 103.906C151.861 104.179 152.884 105.339 152.474 106.43C152.202 107.112 151.486 107.521 151.008 108.101C150.531 108.68 150.394 109.737 151.076 110.01C151.315 110.112 151.588 110.078 151.826 110.078C152.713 110.112 153.565 110.931 153.497 111.817C153.429 112.567 152.815 113.113 152.338 113.659C151.86 114.204 151.451 115.022 151.826 115.67C152.202 116.318 153.156 116.386 153.531 117.034C154.384 118.432 151.588 120.205 152.577 121.501C153.054 122.115 154.111 122.013 154.588 122.66C155.168 123.445 154.35 124.502 153.599 125.116C152.849 125.729 152.031 126.786 152.611 127.571C153.054 128.15 153.94 128.048 154.656 128.014C155.373 127.946 156.327 128.184 156.43 128.9C156.498 129.548 155.782 130.026 155.714 130.708C155.543 132.003 157.691 132.31 158.271 133.47C158.987 134.97 156.839 136.402 156.907 138.073C156.941 139.437 158.476 140.392 158.544 141.721C158.612 142.778 157.76 143.767 157.998 144.824C158.066 145.097 158.203 145.37 158.271 145.643C158.373 146.291 158.032 146.904 157.725 147.484C157.316 148.371 157.077 149.393 157.453 150.28C157.828 151.167 159.055 151.712 159.839 151.167C160.419 150.757 160.59 149.905 160.487 149.189C160.419 148.473 160.18 147.757 160.249 147.007C160.385 145.268 162.158 143.938 162.124 142.233C162.09 141.278 161.544 140.426 161.51 139.471C161.442 137.936 162.806 136.504 162.499 135.004C162.329 134.117 161.613 133.435 161.34 132.583C160.862 131.117 161.783 129.582 161.851 128.014C161.885 127.264 161.681 126.514 161.51 125.763C160.897 123.206 160.249 120.649 159.635 118.091C159.499 117.478 159.328 116.864 159.362 116.216C159.362 115.636 159.533 115.057 159.601 114.511C159.908 112.363 159.123 110.249 158.612 108.169C157.896 105.441 157.589 102.611 157.623 99.7806C157.657 98.3825 157.862 95.8933 156.157 95.4501C154.963 95.1432 152.372 96.5753 152.713 98.0074Z" fill="white"/>
<path d="M178.423 98.4849C179.173 99.9511 178.593 101.826 177.468 103.054C177.229 103.327 176.922 103.6 176.82 103.941C176.309 105.305 178.525 106.464 178.252 107.896C177.946 109.533 175.081 109.26 174.468 110.794C174.127 111.681 174.706 112.602 175.218 113.386C175.729 114.17 176.172 115.261 175.559 116.011C174.57 117.239 171.978 115.909 171.194 117.273C170.751 118.023 171.296 118.944 171.603 119.762C171.978 120.717 171.91 121.979 171.058 122.524C170.137 123.104 168.739 122.592 167.921 123.308C167.341 123.82 167.341 124.74 167.307 125.525C167.273 126.309 167.034 127.264 166.284 127.502C166.079 127.571 165.841 127.571 165.67 127.707C165.466 127.878 165.431 128.184 165.431 128.457C165.397 129.48 165.397 130.503 165.363 131.492C164.545 131.253 163.556 131.935 163.522 132.822C163.522 133.265 163.692 133.742 163.488 134.118C163.249 134.561 162.601 134.663 162.158 134.424C161.715 134.186 161.408 133.742 161.169 133.299C160.453 131.969 159.908 130.401 160.385 128.969C160.76 127.843 161.715 127.025 162.465 126.07C163.795 124.4 164.511 122.354 165.227 120.376C167.102 115.261 169.148 110.181 171.33 105.168C172.353 102.849 173.308 100.394 174.399 98.1439C175.286 96.5754 177.536 96.7118 178.423 98.4849Z" fill="white"/>
<path d="M177.401 65.2391C179.583 66.6371 181.39 68.7853 182.004 71.3086C182.823 74.6843 181.425 78.2305 179.549 81.163C177.708 84.0954 175.389 86.7892 174.059 89.9944C173.48 91.3924 173.105 92.8927 172.832 94.3931C172.354 96.9845 172.184 99.7124 173.002 102.202C173.821 104.691 175.867 106.907 178.458 107.384C181.05 107.862 184.016 106.089 184.323 103.497C184.493 102.099 183.982 100.463 184.903 99.3714C186.13 97.9393 189.063 98.5871 189.71 96.814C190.358 95.075 187.767 93.7452 187.528 91.8698C187.221 89.3465 191.245 88.3236 191.825 85.8344C192.336 83.6521 189.915 81.4357 190.699 79.3557C191.074 78.3669 192.063 77.7872 192.847 77.0712C193.632 76.3551 194.28 75.2299 193.768 74.3092C193.564 73.9682 193.257 73.6954 193.018 73.3886C192.438 72.5361 192.575 71.4109 192.677 70.3879C193.154 65.4778 191.961 60.3971 189.335 56.203C188.313 54.5663 187.085 53.1001 185.789 51.668C184.323 50.0995 182.789 48.5991 180.981 47.4398C177.776 45.3257 173.889 44.3369 170.104 44.5756C168.604 44.6778 167.103 44.9847 165.773 45.7008C162.091 47.7126 160.522 53.8503 162.602 57.4647C165.91 63.125 172.423 61.9998 177.401 65.2391Z" fill="#C6B697"/>
<path d="M86.018 82.1177C86.2567 82.6633 86.5295 83.3111 86.2908 83.8908C86.1204 84.2318 85.8134 84.4704 85.5065 84.7091C79.0279 89.2783 72.4469 94.0521 65.6955 98.2121C65.2522 98.4848 64.7749 98.7917 64.2293 98.9281C63.1722 99.2009 62.4562 100.053 61.5696 99.3714C60.6831 98.7235 59.2168 96.1662 58.6371 95.2455C57.7847 93.8816 56.6254 92.0403 56.0116 90.6081C55.807 90.1649 55.6365 89.6534 55.7047 89.176C55.7729 88.5282 56.2844 88.0167 56.7618 87.5393C58.3303 86.039 60.4102 85.0501 62.0469 83.6521C64.3997 81.6403 66.8889 80.1741 69.5145 78.5033C71.3217 77.3439 73.0947 75.8095 75.0042 74.8207C76.3 74.1728 77.8345 73.0135 79.2325 72.7066C80.2554 72.502 80.7328 73.218 81.2443 73.9682C83.0174 76.5597 84.7223 79.2534 86.018 82.1177Z" fill="#FF8FA0"/>
<path d="M84.5505 82.22C84.7551 82.6974 84.9938 83.277 84.7892 83.7544C84.6528 84.0613 84.38 84.2659 84.1414 84.4364C78.7197 88.3236 73.7073 91.9721 68.047 95.4842C67.6719 95.7229 66.4443 96.6776 66.0011 96.7799C65.1145 97.0186 65.3532 97.0186 64.603 96.4389C63.8529 95.8593 62.5912 93.677 62.1138 92.8586C61.3978 91.6993 60.409 90.0967 59.8634 88.8009C59.6929 88.3918 59.5224 87.9826 59.5906 87.5734C59.6588 86.9937 60.068 86.5504 60.443 86.1754C61.7388 84.8796 63.0004 84.5046 64.3985 83.3111C66.3761 81.5721 68.4561 80.3446 70.6384 78.9125C72.1387 77.9236 73.6391 76.5938 75.2076 75.7754C76.2647 75.2299 77.5603 74.2069 78.7538 74.0023C79.6062 73.8318 80.0154 74.4797 80.4587 75.1276C81.959 77.378 83.4253 79.7308 84.5505 82.22Z" fill="white"/>
<path d="M84.5505 82.22C84.7551 82.6974 84.9938 83.277 84.7892 83.7544C84.6528 84.0613 84.38 84.2659 84.1414 84.4364C78.7197 88.3236 73.7073 91.9721 68.047 95.4842C67.6719 95.7229 66.4443 96.6776 66.0011 96.7799C65.1145 97.0186 65.3532 97.0186 64.603 96.4389C63.8529 95.8593 62.5912 93.677 62.1138 92.8586C61.3978 91.6993 60.409 90.0967 59.8634 88.8009C59.6929 88.3918 59.5224 87.9826 59.5906 87.5734C59.6588 86.9937 60.068 86.5504 60.443 86.1754C61.7388 84.8796 63.0004 84.5046 64.3985 83.3111C66.3761 81.5721 68.4561 80.3446 70.6384 78.9125C72.1387 77.9236 73.6391 76.5938 75.2076 75.7754C76.2647 75.2299 77.5603 74.2069 78.7538 74.0023C79.6062 73.8318 80.0154 74.4797 80.4587 75.1276C81.959 77.378 83.4253 79.7308 84.5505 82.22Z" fill="white"/>
<path d="M84.5505 82.22C84.7551 82.6974 84.9938 83.277 84.7892 83.7544C84.6528 84.0613 84.38 84.2659 84.1414 84.4364C78.7197 88.3236 73.7073 91.9721 68.047 95.4842C67.6719 95.7229 66.4443 96.6776 66.0011 96.7799C65.1145 97.0186 65.3532 97.0186 64.603 96.4389C63.8529 95.8593 62.5912 93.677 62.1138 92.8586C61.3978 91.6993 60.409 90.0967 59.8634 88.8009C59.6929 88.3918 59.5224 87.9826 59.5906 87.5734C59.6588 86.9937 60.068 86.5504 60.443 86.1754C61.7388 84.8796 63.0004 84.5046 64.3985 83.3111C66.3761 81.5721 68.4561 80.3446 70.6384 78.9125C72.1387 77.9236 73.6391 76.5938 75.2076 75.7754C76.2647 75.2299 77.5603 74.2069 78.7538 74.0023C79.6062 73.8318 80.0154 74.4797 80.4587 75.1276C81.959 77.378 83.4253 79.7308 84.5505 82.22Z" fill="white"/>
<path d="M61.093 92.3812C60.7521 92.1766 60.3429 92.1084 59.9678 92.2107C59.5246 92.3471 59.2177 92.7222 59.0813 93.1655C58.979 93.6088 59.0472 94.0861 59.2177 94.4953C59.2859 94.6658 59.3882 94.8363 59.5246 94.9727C59.7632 95.1773 60.0701 95.2114 60.3429 95.1773C60.6157 95.1432 60.8885 95.0068 61.1272 94.8363C61.3659 94.6658 61.6045 94.4612 61.7409 94.1884C62.1501 93.4724 61.7068 92.7563 61.093 92.3812Z" fill="#E5E5E5"/>
<path d="M84.0748 79.1511C84.1429 79.2534 84.2112 79.3557 84.2112 79.4921C84.2112 79.6285 84.1089 79.7308 83.9725 79.7308C83.8702 79.7308 83.802 79.6285 83.7679 79.5262C83.461 79.0148 83.1541 78.5033 82.8131 77.9577C82.7449 77.8213 82.6085 77.5485 82.8131 77.4462C83.0177 77.378 83.1541 77.6167 83.2223 77.7531C83.5292 78.2305 83.802 78.7079 84.0748 79.1511Z" fill="#8A8A8A"/>
<path d="M82.6435 76.8666C82.5753 76.7643 82.4389 76.7643 82.3366 76.8325C82.2684 76.9007 82.2684 77.0712 82.3706 77.1394C82.4729 77.2076 82.6093 77.1734 82.6775 77.0712C82.6775 77.003 82.6776 76.9348 82.6435 76.8666Z" fill="#8A8A8A"/>
<defs>
<linearGradient id="paint0_linear_517_551" x1="108.439" y1="348.77" x2="383.308" y2="348.77" gradientUnits="userSpaceOnUse">
<stop stop-color="#4D4D4D"/>
<stop offset="1"/>
</linearGradient>
<linearGradient id="paint1_linear_517_551" x1="108.439" y1="348.77" x2="383.308" y2="348.77" gradientUnits="userSpaceOnUse">
<stop/>
<stop offset="1"/>
</linearGradient>
</defs>
</svg>
