<svg width="482" height="350" viewBox="0 0 482 350" fill="none" xmlns="http://www.w3.org/2000/svg">
<circle cx="227" cy="238" r="98" fill="#DF77C1"/>
<circle cx="202" cy="132" r="98" fill="#DF77C1"/>
<circle cx="324.5" cy="157.5" r="157.5" fill="#D449AD"/>
<circle cx="121.5" cy="228.5" r="121.5" fill="#644BB1"/>
<path d="M284.976 227.741C282.346 233.215 283.519 241.851 284.693 249.352C285.583 254.988 287.121 260.989 291.573 264.517C294.083 266.504 297.199 267.477 300.315 268.247C314.562 271.693 329.739 271.207 343.703 266.868C346.495 265.976 349.328 264.922 351.635 263.138C355.318 260.259 357.301 255.718 358.758 251.258C360.742 245.176 365.639 231.471 359.568 228.106C354.225 225.146 337.065 228.796 330.67 228.755C325.813 228.755 320.957 228.674 316.181 227.538C310.717 226.281 305.375 223.646 299.87 222.632C291.371 221.051 287.04 223.443 284.976 227.741Z" fill="#2F3F47"/>
<path d="M319.703 276.154C319.743 275.667 319.783 275.18 319.824 274.653C315.615 271.775 308.208 272.707 303.756 274.167C298.98 275.707 298.98 278.708 299.021 283.654C299.061 286.452 299.304 289.655 301.449 291.439C303.109 292.858 305.456 293.021 307.601 293.183C309.544 293.304 311.486 293.426 313.429 293.507C314.765 293.588 316.262 293.629 317.315 292.737C318.367 291.845 318.529 290.304 318.65 288.966C319.014 284.709 319.338 280.451 319.703 276.154Z" fill="#2F3F47"/>
<path d="M323.587 276.154C323.547 275.667 323.507 275.18 323.466 274.653C327.675 271.775 335.082 272.707 339.534 274.167C344.31 275.707 344.309 278.708 344.269 283.655C344.228 286.452 343.986 289.655 341.841 291.439C340.181 292.858 337.834 293.021 335.689 293.183C333.746 293.304 331.803 293.426 329.861 293.507C328.525 293.588 327.028 293.629 325.975 292.737C324.923 291.845 324.761 290.304 324.64 288.966C324.275 284.709 323.952 280.451 323.587 276.154Z" fill="#2F3F47"/>
<path d="M221.636 72.8143C221.757 73.828 221.879 74.8822 221.515 75.8553C221.231 76.6256 220.665 77.2338 220.098 77.842C217.71 80.3153 215.12 82.6264 212.327 84.6537C209.17 84.2077 206.094 83.3564 203.18 82.059C202.654 81.8157 202.088 81.5319 201.723 81.0453C201.44 80.6804 201.359 80.1938 201.278 79.7478C200.186 74.5579 199.093 69.3273 198 64.1374C199.619 63.0426 201.4 62.1507 203.221 61.4614C203.949 64.5835 204.678 67.7461 205.406 70.8682C206.094 73.8686 207.228 77.3555 210.182 78.207C211.963 76.6663 213.744 75.0849 215.525 73.5441C215.848 73.2603 216.132 72.9765 216.334 72.6116C216.536 72.1656 216.456 71.6385 216.375 71.1114C215.929 68.0705 215.241 65.0293 214.31 62.0695C215.808 61.7856 217.265 61.502 218.763 61.2182C220.624 64.7457 221.15 68.8408 221.636 72.8143Z" fill="#2F3F47"/>
<path d="M207.794 84.7349C207.754 84.8971 207.794 85.0593 207.835 85.2215C208.28 87.0866 208.725 88.9518 209.17 90.8169C212.084 90.1276 214.958 89.1951 217.751 88.1004C217.467 86.4785 217.022 84.8971 216.415 83.3969C216.293 83.0725 216.091 82.7075 215.767 82.5859C215.565 82.5048 215.322 82.5453 215.12 82.5859C212.813 82.9913 210.546 83.5592 208.361 84.289C208.118 84.4106 207.875 84.5322 207.794 84.7349Z" fill="#2F3F47"/>
<path d="M208.401 92.6008C208.118 96.0473 212.853 102.413 214.31 105.251C216.253 109.103 218.195 112.995 220.948 116.28C223.7 119.604 227.342 122.321 231.552 123.213C233.939 123.7 236.408 123.578 238.837 123.254C246.122 122.321 253.204 119.686 259.356 115.631C259.842 115.307 260.368 114.942 260.571 114.374C260.773 113.806 260.571 113.158 260.368 112.549C259.599 110.238 258.83 107.684 257.657 105.576C255.592 101.845 256.888 102.494 253.569 102.778C251.019 102.981 247.376 105.657 244.665 106.346C241.508 107.116 238.229 107.522 235.032 107.927C233.008 108.17 230.742 108.373 229.042 107.238C228.111 106.589 227.464 105.657 226.857 104.684C223.214 99.0071 219.895 93.128 216.981 87.0866C216.496 86.0324 209.049 90.4113 208.563 92.0737C208.441 92.2359 208.401 92.3981 208.401 92.6008Z" fill="#516770"/>
<g opacity="0.15">
<path opacity="0.15" d="M238.796 121.024C237.258 117.294 236.57 113.563 236.368 109.59C236.328 108.819 235.275 108.698 235.154 109.509C234.466 113.766 235.154 118.104 236.651 122.118C237.137 123.578 239.363 122.483 238.796 121.024Z" fill="#272525"/>
<path opacity="0.15" d="M231.794 121.308C230.742 117.496 231.147 114.455 232.401 110.766C232.563 110.279 231.835 109.914 231.592 110.36C230.458 112.225 229.204 113.726 228.84 115.956C228.475 118.064 228.556 120.132 229.325 122.159C229.811 123.578 232.199 122.767 231.794 121.308Z" fill="#272525"/>
</g>
<path d="M269.678 88.8706C264.173 91.5467 262.838 98.7233 262.352 104.846C259.195 142.473 260.409 180.505 265.914 217.848C266.602 222.389 267.573 227.336 271.135 230.215C273.442 232.08 276.477 232.728 279.391 233.256C309.058 238.689 339.696 238.729 369.362 233.377C370.334 233.215 371.386 233.012 372.196 232.363C373.288 231.512 373.693 230.093 374.017 228.755C384.661 187.033 382.152 143.243 379.44 100.305C379.359 98.8045 379.238 97.2637 378.55 95.9662C377.7 94.3849 376.121 93.3305 374.503 92.5196C365.275 87.6541 354.468 87.2488 344.067 87.0866C321.726 86.6811 299.385 86.8839 277.044 87.6137C274.534 87.6542 271.904 87.7759 269.678 88.8706Z" fill="#EAF1F2"/>
<path d="M285.097 76.95C309.503 81.9372 334.434 81.5316 358.758 75.774C363.898 74.5576 369.443 72.7736 372.924 66.9755C378.914 56.9606 375.029 39.9718 367.501 32.5519C359.973 25.1319 350.38 24.6047 341.355 24.3209C326.866 23.8749 312.295 23.4289 297.968 26.4294C289.671 28.1728 280.969 31.5381 275.425 40.7826C269.88 50.0271 269.515 66.7323 276.598 73.3007C279.067 75.6119 282.143 76.3418 285.097 76.95Z" fill="#EAF1F2"/>
<path d="M298.899 64.8269C315.008 66.9758 331.399 66.8136 347.467 64.2997C350.867 63.7726 354.509 63.0022 356.776 60.4884C360.742 56.1499 358.152 48.8109 353.214 45.6078C348.276 42.4046 341.922 42.1613 335.973 42.0397C326.421 41.8369 316.829 41.6344 307.358 42.9724C301.894 43.7428 296.147 45.1618 292.505 49.1758C288.862 53.1899 288.619 60.4072 293.274 63.2049C294.933 64.2591 296.957 64.5836 298.899 64.8269Z" fill="#2F3F47"/>
<path d="M302.259 89.2762C300.235 89.2762 297.847 89.5194 296.876 91.3035C296.39 92.1955 296.39 93.2496 296.431 94.2633C297.119 118.834 297.847 143.446 298.535 168.017C314.036 172.153 330.549 176.288 345.807 171.342C347.872 144.378 348.357 117.334 347.224 90.2898C340.91 88.9112 334.354 88.9518 327.878 89.0329C319.379 89.114 310.839 89.1951 302.259 89.2762Z" fill="#E2ECED"/>
<path d="M348.6 90.2896C348.56 89.722 348.195 89.1138 347.629 88.9921C340.667 87.573 333.625 87.6135 326.583 87.6946C318.488 87.7757 310.394 87.8568 302.299 87.8973C296.916 88.0595 295.055 90.3302 295.176 95.6418C295.419 103.67 295.621 111.698 295.864 119.767C296.309 135.823 296.795 151.92 297.24 167.976C297.24 168.584 297.645 169.111 298.211 169.274C313.793 173.45 330.266 177.504 346.172 172.598C346.779 172.396 347.103 171.909 347.143 171.301C349.207 144.378 349.693 117.334 348.6 90.2896ZM344.593 170.328C329.74 174.585 314.441 170.855 299.911 166.962C299.547 154.069 299.183 141.175 298.818 128.281C298.616 121.672 298.454 115.064 298.252 108.414C298.171 105.089 298.049 101.805 297.968 98.4801C297.928 97.0609 297.888 95.6419 297.847 94.2228C297.766 91.4251 300.033 90.6546 302.339 90.5735C309.544 90.4924 316.748 90.4519 323.952 90.3708C331.318 90.2897 338.765 90.0464 346.05 91.3845C346.981 117.74 346.536 144.054 344.593 170.328Z" fill="#2F3F47"/>
<path opacity="0.2" d="M325.773 164.043C326.137 163.476 326.34 162.867 326.542 162.259C326.785 161.408 326.987 160.516 326.825 159.624C326.704 158.934 326.339 158.326 325.975 157.678C325.854 157.475 325.732 157.232 325.611 157.029C325.408 156.705 325.247 156.34 324.963 156.056C324.275 155.285 323.183 155.042 322.171 154.839C321.442 154.718 320.714 154.596 319.945 154.677C318.285 154.88 316.869 156.137 316.302 157.718C315.735 159.259 315.938 161.043 316.626 162.543C317.516 164.449 319.338 166.03 321.442 166.192C323.183 166.314 324.882 165.462 325.773 164.043Z" fill="#272525"/>
<path d="M324.599 163.8C324.963 163.232 325.166 162.624 325.368 162.016C325.611 161.165 325.813 160.272 325.651 159.38C325.53 158.691 325.166 158.083 324.842 157.434C324.72 157.232 324.599 156.988 324.478 156.786C324.275 156.461 324.113 156.096 323.83 155.812C323.142 155.042 322.049 154.799 321.037 154.596C320.309 154.474 319.58 154.353 318.811 154.434C317.152 154.637 315.735 155.894 315.169 157.475C314.602 159.056 314.805 160.8 315.493 162.3C316.383 164.206 318.204 165.787 320.309 165.949C322.009 166.111 323.709 165.219 324.599 163.8Z" fill="#83959E"/>
<path opacity="0.2" d="M321.321 161.164C321.645 160.718 321.685 160.191 321.685 159.664C321.685 159.502 321.685 159.299 321.645 159.137C321.564 158.894 321.361 158.691 321.119 158.529C320.43 158.083 319.459 158.043 318.731 158.489C318.042 158.935 317.638 159.908 317.921 160.678C318.366 161.165 318.892 161.57 319.54 161.732C320.188 161.854 320.916 161.692 321.321 161.164Z" fill="black"/>
<path opacity="0.2" d="M326.138 223.16C326.502 222.592 326.704 221.984 326.907 221.376C327.149 220.524 327.352 219.632 327.19 218.74C327.069 218.051 326.704 217.443 326.38 216.794C326.259 216.591 326.138 216.348 326.016 216.145C325.814 215.821 325.652 215.456 325.369 215.172C324.681 214.402 323.588 214.158 322.576 213.956C321.847 213.834 321.119 213.712 320.35 213.794C318.691 213.996 317.274 215.253 316.707 216.835C316.141 218.375 316.343 220.159 317.031 221.66C317.922 223.565 319.743 225.146 321.848 225.309C323.507 225.471 325.247 224.619 326.138 223.16Z" fill="#272525"/>
<path d="M324.964 222.957C325.328 222.389 325.53 221.781 325.733 221.173C325.976 220.322 326.178 219.429 326.016 218.537C325.895 217.848 325.53 217.24 325.166 216.591C325.045 216.389 324.923 216.145 324.802 215.942C324.599 215.618 324.438 215.253 324.154 214.969C323.466 214.199 322.373 213.956 321.362 213.753C320.633 213.631 319.905 213.51 319.136 213.591C317.476 213.793 316.06 215.05 315.493 216.632C314.926 218.172 315.129 219.956 315.817 221.457C316.707 223.362 318.529 224.944 320.633 225.106C322.333 225.227 324.073 224.376 324.964 222.957Z" fill="#83959E"/>
<path opacity="0.2" d="M321.686 220.322C322.01 219.876 322.009 219.348 322.05 218.821C322.05 218.659 322.05 218.456 322.009 218.294C321.928 218.051 321.726 217.848 321.483 217.686C320.795 217.24 319.824 217.199 319.095 217.645C318.407 218.091 318.003 219.065 318.286 219.835C318.731 220.322 319.257 220.727 319.905 220.889C320.512 221.011 321.281 220.849 321.686 220.322Z" fill="black"/>
<path d="M381.019 168.179C381.545 167.287 382.071 166.395 382.921 165.827C383.609 165.381 384.419 165.26 385.228 165.097C388.628 164.57 392.068 164.327 395.508 164.368C397.775 166.598 399.717 169.193 401.255 171.99C401.538 172.517 401.822 173.085 401.822 173.653C401.822 174.099 401.62 174.545 401.417 174.991C399.151 179.816 396.884 184.6 394.618 189.425C392.675 189.344 390.732 188.979 388.83 188.371C390.125 185.452 391.461 182.492 392.756 179.572C394.011 176.775 395.225 173.328 393.403 170.855C391.056 171.017 388.709 171.179 386.321 171.341C385.916 171.382 385.471 171.382 385.147 171.585C384.702 171.828 384.459 172.274 384.216 172.72C382.719 175.437 381.464 178.275 380.412 181.154C379.036 180.505 377.7 179.816 376.324 179.167C376.931 175.234 378.995 171.666 381.019 168.179Z" fill="#2F3F47"/>
<path d="M399.272 167.084C399.393 167.003 399.474 166.841 399.555 166.679C400.324 164.935 401.093 163.151 401.862 161.408C399.11 160.191 396.277 159.178 393.363 158.367C392.594 159.826 392.027 161.327 391.582 162.908C391.501 163.232 391.42 163.638 391.622 163.922C391.744 164.124 391.946 164.205 392.149 164.327C394.213 165.422 396.358 166.314 398.584 167.044C398.786 167.125 399.069 167.206 399.272 167.084Z" fill="#2F3F47"/>
<path d="M403.522 160.434C405.788 157.88 405.869 149.933 406.436 146.811C407.205 142.594 408.014 138.296 407.812 133.999C407.609 129.701 406.395 125.322 403.562 122.078C401.943 120.253 399.92 118.834 397.774 117.658C391.38 114.009 384.176 111.82 376.85 111.293C376.283 111.252 375.636 111.252 375.15 111.536C374.624 111.86 374.381 112.509 374.219 113.117C373.45 115.428 372.519 117.902 372.155 120.294C371.548 124.511 370.9 123.173 373.734 124.997C375.879 126.376 380.412 126.457 383.002 127.552C385.997 128.849 388.83 130.511 391.623 132.133C393.403 133.188 395.306 134.363 395.994 136.309C396.358 137.364 396.277 138.54 396.196 139.675C395.67 146.406 394.779 153.096 393.444 159.705C393.201 160.84 401.781 161.854 403.157 160.84C403.238 160.718 403.36 160.597 403.522 160.434Z" fill="#516770"/>
<g opacity="0.15">
<path opacity="0.15" d="M396.439 119.402C395.427 123.294 393.727 126.7 391.501 130.025C391.056 130.674 391.866 131.404 392.432 130.836C395.549 127.835 397.613 123.984 398.827 119.888C399.272 118.348 396.844 117.861 396.439 119.402Z" fill="#272525"/>
<path opacity="0.15" d="M402.186 123.375C400.729 127.065 398.584 129.255 395.347 131.444C394.901 131.728 395.266 132.458 395.751 132.255C397.815 131.444 399.677 131.039 401.336 129.457C402.874 127.998 404.089 126.254 404.696 124.227C405.141 122.808 402.712 121.997 402.186 123.375Z" fill="#272525"/>
</g>
<path d="M119.461 290.336C119.422 289.76 119.345 289.146 119.307 288.57C124.39 285.116 133.325 286.229 138.717 287.995C144.494 289.875 144.494 293.406 144.417 299.392C144.379 302.769 144.071 306.569 141.452 308.756C139.449 310.444 136.638 310.675 134.019 310.828C131.669 310.982 129.359 311.097 127.009 311.25C125.392 311.327 123.582 311.365 122.311 310.329C121.04 309.255 120.847 307.451 120.693 305.801C120.27 300.62 119.846 295.478 119.461 290.336Z" fill="#2F3F47"/>
<path d="M113.26 290.336C113.299 289.76 113.376 289.146 113.414 288.57C108.331 285.116 99.3954 286.229 94.0036 287.995C88.2267 289.875 88.2268 293.406 88.3038 299.392C88.3423 302.769 88.6505 306.569 91.2694 308.756C93.272 310.444 96.0835 310.675 98.7023 310.828C101.052 310.982 103.362 311.097 105.712 311.25C107.329 311.327 109.139 311.365 110.41 310.329C111.681 309.255 111.874 307.451 112.028 305.801C112.413 300.62 112.836 295.478 113.26 290.336Z" fill="#2F3F47"/>
<path d="M156.625 277.518C157.896 277.787 159.129 278.17 160.322 278.669C161.208 279.015 162.094 279.475 162.71 280.166C163.557 281.164 163.789 282.545 163.943 283.889C164.135 285.654 164.212 287.419 164.174 289.184C164.174 290.681 164.058 292.216 163.288 293.483C162.209 295.248 160.091 296.054 158.089 296.553C154.276 297.512 150.309 297.742 146.381 297.934C122.618 299.085 98.7788 298.318 75.1318 295.67C74.169 295.555 73.0906 295.401 72.4359 294.672C72.0507 294.25 71.8581 293.674 71.6656 293.137C70.4331 289.223 69.6243 283.889 72.2817 280.243C74.5539 277.134 78.7518 278.9 81.9099 278.861C85.145 278.823 88.4187 278.554 91.6538 278.439C97.9699 278.17 104.286 277.902 110.602 277.71C119.499 277.403 128.434 277.134 137.33 276.904C143.338 276.789 150.425 276.137 156.625 277.518Z" fill="#516770"/>
<path d="M105.557 193.283C89.4203 193.36 73.3219 193.706 57.185 194.051C57.5701 185.493 58.1862 176.935 60.0349 168.569C63.2314 153.91 70.5489 139.596 82.9116 131.038C101.86 117.914 131.939 119.64 152.351 132.611C160.939 138.061 167.833 145.544 171.453 154.716C175.612 165.192 176.729 176.628 177.384 187.873C177.461 189.369 177.538 190.827 177.615 192.324C153.66 191.403 129.551 193.207 105.557 193.283Z" fill="#EAF1F2"/>
<path d="M106.866 197.581C130.513 197.543 154.237 195.855 177.884 196.699C179.039 222.257 177.961 247.931 174.649 273.335C174.187 276.827 173.609 280.473 171.298 283.236C167.717 287.496 161.516 285.615 156.702 285.615C148.576 285.615 140.218 285.961 132.015 286.153C116.533 286.498 101.166 286.536 85.761 284.81C78.4435 284.004 63.6547 286.229 60.15 279.667C57.2615 274.333 58.4555 263.511 58.0318 257.563C57.5312 250.502 57.1459 243.479 56.9148 236.418C56.4912 223.715 56.5683 211.013 57.069 198.272C73.6296 197.965 90.2671 197.581 106.866 197.581Z" fill="#E2ECED"/>
<path d="M51.0228 238.951C50.7147 238.682 50.6761 238.222 50.6375 237.838C49.8288 227.208 49.1357 216.577 48.635 205.947C48.5965 205.026 48.5965 203.952 49.3282 203.338C49.8674 202.916 50.5607 202.877 51.2539 202.877C53.6417 202.839 55.9909 202.801 58.3787 202.801C59.8807 214.889 60.497 227.054 60.1889 239.219C57.5315 239.219 54.9127 239.258 52.2553 239.258C51.8316 239.258 51.3694 239.258 51.0228 238.951Z" fill="#2F3F47"/>
<path d="M38.7377 263.434C38.4296 262.552 38.0829 261.631 37.3896 260.978C36.8504 260.479 36.1189 260.172 35.4257 259.942C32.4216 258.867 29.3406 258.062 26.221 257.524C23.7947 259.174 21.5994 261.132 19.7123 263.396C19.3657 263.818 19.019 264.279 18.942 264.816C18.865 265.238 18.9804 265.66 19.096 266.082C20.3284 270.802 21.5223 275.523 22.7547 280.243C24.5649 280.473 26.3751 280.512 28.1467 280.281C27.4534 277.403 26.7601 274.525 26.1054 271.685C25.4506 268.96 24.9499 265.622 27.0296 263.703C29.1478 264.24 31.2276 264.816 33.3458 265.353C33.6924 265.43 34.0776 265.545 34.3857 265.775C34.7323 266.082 34.8863 266.543 35.0404 266.965C35.9262 269.651 36.581 272.414 37.0431 275.216C38.3911 274.832 39.739 274.486 41.0869 274.103C41.2025 270.457 39.9701 266.888 38.7377 263.434Z" fill="#2F3F47"/>
<path d="M22.3698 259.29C22.2543 259.175 22.2158 259.021 22.1773 258.906C21.7922 257.179 21.407 255.452 20.9834 253.764C23.6793 253.15 26.452 252.727 29.1864 252.497C29.6101 253.917 29.8798 255.414 29.9953 256.91C30.0338 257.217 30.0339 257.601 29.8028 257.831C29.6487 257.985 29.4561 258.023 29.2635 258.1C27.2224 258.714 25.1041 259.174 22.9474 259.443C22.7933 259.405 22.5624 259.443 22.3698 259.29Z" fill="#516770"/>
<path d="M19.6733 252.574C18.0557 249.849 19.3651 242.673 19.3651 239.795C19.4036 235.842 19.4036 231.851 20.3279 228.013C21.2523 224.176 23.1395 220.415 26.2591 217.997C28.0307 216.616 30.1104 215.733 32.2671 215.004C38.6988 212.817 45.5924 212.088 52.3322 212.893C52.8714 212.97 53.4491 213.047 53.8342 213.431C54.2579 213.814 54.335 214.428 54.412 215.004C54.7201 217.192 55.1437 219.609 55.0281 221.835C54.8356 225.749 55.6443 224.675 52.7943 225.788C50.5991 226.632 46.4783 225.941 43.9749 226.517C41.048 227.169 38.198 228.167 35.3481 229.165C33.538 229.779 31.6122 230.546 30.6879 232.196C30.1873 233.079 30.0332 234.154 29.9176 235.19C29.2244 241.33 28.9163 247.508 28.9548 253.687C28.9548 254.761 21.0213 254.224 19.9815 253.034C19.8659 252.881 19.7888 252.727 19.6733 252.574Z" fill="#E2ECED"/>
<g opacity="0.15">
<path opacity="0.15" d="M33.1533 216.769C33.3843 220.453 34.3472 223.792 35.8107 227.169C36.0802 227.822 35.2715 228.321 34.8478 227.745C32.5371 224.521 31.3431 220.684 30.9194 216.769C30.7654 215.388 33.0377 215.349 33.1533 216.769Z" fill="#272525"/>
<path opacity="0.15" d="M27.2612 219.417C27.9159 222.986 29.5335 225.327 32.0753 227.86C32.4219 228.205 31.96 228.781 31.5749 228.512C29.8418 227.438 28.2242 226.747 26.9918 225.02C25.8364 223.408 25.0662 221.681 24.8351 219.724C24.681 218.381 26.9916 218.074 27.2612 219.417Z" fill="#272525"/>
</g>
<path d="M181.659 203.108C181.967 203.376 182.005 203.837 182.044 204.221C182.852 214.851 183.546 225.481 184.046 236.111C184.085 237.032 184.085 238.106 183.353 238.72C182.814 239.142 182.121 239.181 181.427 239.181C179.04 239.219 176.69 239.258 174.303 239.258C172.801 227.169 172.184 215.004 172.492 202.839C175.15 202.839 177.769 202.801 180.426 202.801C180.85 202.801 181.35 202.801 181.659 203.108Z" fill="#2F3F47"/>
<path d="M211.506 190.022C211.391 190.943 211.275 191.94 211.622 192.784C211.891 193.475 212.392 194.051 212.931 194.588C215.126 196.852 217.514 198.963 220.095 200.844C223.022 200.46 225.872 199.654 228.529 198.464C229.03 198.234 229.569 198.004 229.877 197.543C230.108 197.198 230.224 196.776 230.301 196.353C231.302 191.595 232.342 186.798 233.343 182.039C231.841 181.042 230.223 180.197 228.529 179.583C227.874 182.461 227.181 185.34 226.526 188.218C225.872 190.942 224.832 194.166 222.136 194.934C220.48 193.514 218.862 192.094 217.206 190.674C216.936 190.444 216.628 190.175 216.474 189.83C216.282 189.408 216.359 188.909 216.436 188.448C216.86 185.647 217.476 182.884 218.323 180.159C216.937 179.89 215.589 179.622 214.202 179.353C212.431 182.615 211.968 186.376 211.506 190.022Z" fill="#2F3F47"/>
<path d="M224.293 200.959C224.331 201.112 224.293 201.266 224.293 201.381C223.869 203.108 223.446 204.796 223.06 206.523C220.365 205.871 217.707 205.026 215.127 204.029C215.358 202.57 215.782 201.112 216.359 199.731C216.475 199.424 216.629 199.117 216.937 199.001C217.129 198.925 217.322 198.963 217.553 199.001C219.671 199.347 221.751 199.884 223.792 200.575C223.985 200.652 224.216 200.767 224.293 200.959Z" fill="#516770"/>
<path d="M223.715 208.173C223.985 211.32 219.594 217.153 218.285 219.763C216.513 223.293 214.703 226.862 212.161 229.894C209.619 232.926 206.269 235.458 202.379 236.226C200.184 236.686 197.912 236.571 195.678 236.264C188.938 235.382 182.429 233.002 176.768 229.28C176.306 228.973 175.844 228.666 175.651 228.129C175.459 227.591 175.651 227.016 175.805 226.44C176.537 224.329 177.192 221.988 178.308 220.031C180.234 216.616 179.002 217.23 182.083 217.46C184.432 217.652 187.821 220.108 190.325 220.722C193.251 221.451 196.255 221.797 199.221 222.18C201.108 222.411 203.188 222.603 204.767 221.528C205.614 220.952 206.23 220.07 206.77 219.187C210.12 214.006 213.163 208.595 215.897 203.031C216.359 202.072 223.215 206.063 223.638 207.598C223.677 207.828 223.715 207.981 223.715 208.173Z" fill="#E2ECED"/>
<g opacity="0.15">
<path opacity="0.15" d="M195.716 234.269C197.141 230.853 197.757 227.438 197.988 223.754C198.027 223.024 198.99 222.948 199.105 223.677C199.722 227.591 199.105 231.544 197.719 235.228C197.218 236.571 195.139 235.573 195.716 234.269Z" fill="#272525"/>
<path opacity="0.15" d="M202.148 234.537C203.149 231.045 202.764 228.244 201.608 224.828C201.454 224.368 202.109 224.061 202.379 224.444C203.419 226.171 204.574 227.515 204.921 229.587C205.229 231.544 205.152 233.424 204.458 235.266C203.996 236.61 201.801 235.842 202.148 234.537Z" fill="#272525"/>
</g>
<path d="M166.869 168.186C166.831 169.644 166.754 171.141 166.138 172.484C164.559 175.823 160.399 176.897 156.74 177.511C135.828 181.003 114.453 182.193 93.4251 179.545C90.6522 179.2 87.8791 178.778 85.3372 177.626C82.7954 176.475 80.5232 174.518 79.5988 171.947C79.0211 170.296 78.9827 168.531 78.9442 166.766C78.9057 165.001 78.9056 163.197 78.8671 161.432C78.8671 160.626 78.8672 159.82 79.1753 159.052C79.5219 158.247 80.215 157.594 80.9467 157.095C83.7196 155.215 87.2243 154.793 90.5749 154.447C112.835 152.221 135.366 150.264 157.51 153.258C158.435 153.373 159.398 153.526 160.052 154.179C160.399 154.486 160.63 154.908 160.977 155.215C161.631 155.714 162.517 155.675 163.287 155.944C165.444 156.635 166.214 159.283 166.484 161.547C166.792 163.734 166.908 165.96 166.869 168.186Z" fill="#2F3F47"/>
<path opacity="0.2" d="M138.986 171.409C138.254 170.066 138.139 168.493 138.293 166.958C138.37 166.037 138.601 165.077 139.179 164.387C140.411 162.928 142.683 163.082 144.571 162.736C146.227 163.427 147.613 164.77 148.306 166.42C148.73 167.418 148.923 168.493 148.807 169.567C148.537 171.755 146.727 173.635 144.571 174.019C142.375 174.479 140.026 173.366 138.986 171.409Z" fill="#EAF1F2"/>
<path opacity="0.2" d="M102.322 171.409C101.59 170.066 101.475 168.493 101.629 166.958C101.706 166.037 101.937 165.077 102.515 164.387C103.747 162.928 106.019 163.082 107.906 162.736C109.562 163.427 110.949 164.77 111.642 166.42C112.066 167.418 112.258 168.493 112.143 169.567C111.873 171.755 110.063 173.635 107.906 174.019C105.749 174.479 103.4 173.366 102.322 171.409Z" fill="#EAF1F2"/>
</svg>
