<svg width="24" height="24" viewBox="0 0 24 24" fill="none" xmlns="http://www.w3.org/2000/svg">
<path d="M24 7.03175C24 5.69875 23.466 4.42875 22.494 3.45675C17.885 -1.15225 6.115 -1.15225 1.506 3.45675C0.534 4.42875 0 5.69875 0 7.03075V10.0398L4.154 10.0037L1.525 14.8208C0.527 16.6518 0 18.7217 0 20.8067V23.9967H24V20.8067C24 18.7217 23.473 16.6518 22.474 14.8208L19.842 9.99675H24V7.03175ZM21.596 15.2998C22.515 16.9848 23 18.8887 23 20.8067V22.9967H1V20.8067C1 18.8887 1.485 16.9838 2.403 15.2998L5.297 9.99475H5.306L6.628 7.42175C7.131 7.13275 9.286 5.99675 11.999 5.99675C14.712 5.99675 16.867 7.13275 17.37 7.42175L18.694 9.99675H18.702L21.594 15.2998H21.596ZM23 8.99675H19.305L18.133 6.71575C18.133 6.71575 15.393 4.99675 12 4.99675C8.607 4.99675 5.867 6.71575 5.867 6.71575L4.693 8.99875L1 9.03075V7.03075C1 5.96575 1.43 4.94775 2.213 4.16375C4.317 2.05975 8.158 1.00775 12 1.00775C15.842 1.00775 19.684 2.05975 21.787 4.16375C22.57 4.94675 23.001 5.96475 23 7.03075V8.99675ZM12 8.99675C8.691 8.99675 6 11.6877 6 14.9967C6 18.3057 8.691 20.9967 12 20.9967C15.309 20.9967 18 18.3057 18 14.9967C18 11.6877 15.309 8.99675 12 8.99675ZM12 19.9967C9.243 19.9967 7 17.7537 7 14.9967C7 12.2397 9.243 9.99675 12 9.99675C14.757 9.99675 17 12.2397 17 14.9967C17 17.7537 14.757 19.9967 12 19.9967ZM12 12.9967C10.897 12.9967 10 13.8937 10 14.9967C10 16.0997 10.897 16.9967 12 16.9967C13.103 16.9967 14 16.0997 14 14.9967C14 13.8937 13.103 12.9967 12 12.9967ZM12 15.9967C11.448 15.9967 11 15.5477 11 14.9967C11 14.4457 11.448 13.9967 12 13.9967C12.552 13.9967 13 14.4457 13 14.9967C13 15.5477 12.552 15.9967 12 15.9967Z" fill="#3D1E9D"/>
</svg>
