<svg width="24" height="24" viewBox="0 0 24 24" fill="none" xmlns="http://www.w3.org/2000/svg">
<path d="M15.4698 5C17.1515 5 18.7314 5.656 19.9191 6.847C20.1137 7.042 20.1137 7.359 19.9191 7.554C19.7244 7.749 19.4081 7.749 19.2134 7.554C18.2134 6.552 16.884 6 15.4698 6C14.0555 6 12.7261 6.552 11.7271 7.554C11.6293 7.652 11.5015 7.7 11.3738 7.7C11.246 7.7 11.1183 7.651 11.0205 7.554C10.8258 7.359 10.8258 7.042 11.0205 6.847C12.2081 5.656 13.788 5 15.4698 5ZM7.43846 4.5C7.5722 4.5 7.70494 4.447 7.80374 4.341C9.77988 2.218 12.5744 1 15.4698 1C18.3651 1 21.1596 2.218 23.1368 4.341C23.3234 4.544 23.6408 4.554 23.8414 4.366C24.043 4.178 24.054 3.861 23.8653 3.659C21.7016 1.333 18.6416 0 15.4698 0C12.298 0 9.23794 1.333 7.07317 3.659C6.88554 3.861 6.89652 4.177 7.09812 4.366C7.19394 4.456 7.3167 4.5 7.43846 4.5ZM23.9532 19.5V20.5C23.9532 22.43 22.3862 24 20.46 24H3.49317C1.56694 24 0 22.43 0 20.5V19.5C0 17.57 1.56694 16 3.49317 16H14.9707V10.5C14.9707 10.224 15.1943 10 15.4698 10C15.7452 10 15.9688 10.224 15.9688 10.5V16H20.46C22.3862 16 23.9532 17.57 23.9532 19.5ZM22.9551 19.5C22.9551 18.121 21.8363 17 20.46 17H3.49317C2.11786 17 0.998049 18.121 0.998049 19.5V20.5C0.998049 21.879 2.11786 23 3.49317 23H20.46C21.8363 23 22.9551 21.879 22.9551 20.5V19.5ZM3.9922 19C3.44127 19 2.99415 19.448 2.99415 20C2.99415 20.552 3.44127 21 3.9922 21C4.54312 21 4.99024 20.552 4.99024 20C4.99024 19.448 4.54312 19 3.9922 19ZM7.98439 19C7.43347 19 6.98634 19.448 6.98634 20C6.98634 20.552 7.43347 21 7.98439 21C8.53531 21 8.98244 20.552 8.98244 20C8.98244 19.448 8.53531 19 7.98439 19Z" fill="#3D1E9D"/>
</svg>
