<svg width="24" height="24" viewBox="0 0 24 24" fill="none" xmlns="http://www.w3.org/2000/svg">
<path d="M19.5 6.00022H13.137L17.869 0.838215C18.056 0.634215 18.042 0.318215 17.838 0.131215C17.634 -0.0547848 17.318 -0.0417848 17.131 0.162215L12 5.76022L6.869 0.162215C6.683 -0.0417848 6.366 -0.0547848 6.162 0.131215C5.958 0.318215 5.945 0.634215 6.131 0.838215L10.863 6.00022H4.5C2.019 6.00022 0 8.01922 0 10.5002V19.5002C0 21.9812 2.019 24.0002 4.5 24.0002H19.5C21.981 24.0002 24 21.9812 24 19.5002V10.5002C24 8.01922 21.981 6.00022 19.5 6.00022ZM23 19.5002C23 21.4302 21.43 23.0002 19.5 23.0002H4.5C2.57 23.0002 1 21.4302 1 19.5002V10.5002C1 8.57022 2.57 7.00022 4.5 7.00022H19.5C21.43 7.00022 23 8.57022 23 10.5002V19.5002ZM15.5 10.0002H5.5C4.673 10.0002 4 10.6732 4 11.5002V18.5002C4 19.3272 4.673 20.0002 5.5 20.0002H15.5C16.327 20.0002 17 19.3272 17 18.5002V11.5002C17 10.6732 16.327 10.0002 15.5 10.0002ZM16 18.5002C16 18.7762 15.776 19.0002 15.5 19.0002H5.5C5.224 19.0002 5 18.7762 5 18.5002V11.5002C5 11.2242 5.224 11.0002 5.5 11.0002H15.5C15.776 11.0002 16 11.2242 16 11.5002V18.5002ZM21 11.0002C21 11.5522 20.552 12.0002 20 12.0002C19.448 12.0002 19 11.5522 19 11.0002C19 10.4482 19.448 10.0002 20 10.0002C20.552 10.0002 21 10.4482 21 11.0002ZM21 15.0002C21 15.5522 20.552 16.0002 20 16.0002C19.448 16.0002 19 15.5522 19 15.0002C19 14.4482 19.448 14.0002 20 14.0002C20.552 14.0002 21 14.4482 21 15.0002ZM21 19.0002C21 19.5522 20.552 20.0002 20 20.0002C19.448 20.0002 19 19.5522 19 19.0002C19 18.4482 19.448 18.0002 20 18.0002C20.552 18.0002 21 18.4482 21 19.0002Z" fill="#3D1E9D"/>
</svg>
