<svg width="473" height="389" viewBox="0 0 473 389" fill="none" xmlns="http://www.w3.org/2000/svg">
<path d="M100.009 288.527L372.311 100.009" stroke="#CE33A2" stroke-width="200" stroke-linecap="round"/>
<path d="M236.553 91.6363C237.152 86.408 241.854 82.6502 247.082 83.2493C252.311 83.8483 256.068 88.5502 255.469 93.7785C254.87 99.0068 250.168 102.765 244.94 102.166C239.712 101.585 235.954 96.8646 236.553 91.6363Z" fill="#FCC9A7"/>
<path d="M242.38 89.4578L231.396 111.587L240.401 116.362L249.405 100.332L242.38 89.4578Z" fill="#FCC9A7"/>
<path d="M169.71 126.837L219.07 152.778C221.031 153.904 223.536 153.142 224.534 151.108L247.426 109.554L234.229 100.968L215.839 131.738L181.092 109.79C175.937 105.815 168.439 107.576 165.589 113.421C163.247 118.304 165.044 124.15 169.71 126.837Z" fill="#F9A772"/>
<path d="M177.625 254.276C177.625 254.276 165.281 275.534 158.182 289.295C157.075 291.437 155.26 293.016 153.644 294.813C148.779 300.223 144.168 306.069 138.776 316.507C130.752 332.065 117.373 363.435 117.373 363.435L108.023 359.967L118.099 325.439C118.099 325.439 119.787 295.086 139.248 278.802C139.248 278.802 144.531 269.616 149.069 251.716L177.625 254.276Z" fill="#F2C09E"/>
<path d="M194.907 245.09C194.907 245.09 182.09 326.22 184.232 366.104L173.158 366.503L169.909 331.466C169.909 331.466 160.251 307.376 170.036 286.445L165.516 239.354L194.907 245.09Z" fill="#FCC9A7"/>
<path d="M162.901 92.9617C162.901 92.9617 150.575 103.963 153.697 120.247C156.82 136.549 165.897 143.556 164.372 154.303L199.572 153.033L198.846 133.082C198.846 133.082 210.283 124.35 198.029 110.426L187.481 98.4078L178.023 99.6241L162.901 92.9617Z" fill="#F9A772"/>
<path d="M181.218 90.2566L188.352 94.4138L193.127 102.456L183.287 99.4424L181.218 90.2566Z" fill="#F7EBE7"/>
<path d="M178.043 99.6239C175.919 99.6057 173.668 98.7343 171.998 97.8629C170.346 97.0097 169.329 95.2851 169.329 93.4153L169.674 59.2861L184.596 59.3587L184.252 93.0522C184.233 96.9553 181.438 99.642 178.043 99.6239Z" fill="#FCC9A7"/>
<path d="M184.342 83.6123L178.188 74.8984C178.188 74.8984 174.412 84.8467 184.306 87.9329L184.342 83.6123Z" fill="#F2C09E"/>
<path d="M197.776 59.4313C197.721 69.5974 189.443 77.7848 179.295 77.7485C169.129 77.694 160.923 69.4159 160.978 59.2679C161.032 49.1018 169.31 40.8962 179.477 40.9507C189.625 41.0052 197.83 49.2651 197.776 59.4313Z" fill="#FCC9A7"/>
<path d="M185.667 83.7212C180.839 83.703 176.954 79.7637 176.972 74.9347L177.026 62.336L197.776 59.4314L197.722 71.776C197.685 78.4021 192.294 83.7393 185.667 83.7212Z" fill="#FCC9A7"/>
<path d="M197.212 63.5525L201.206 69.4888C201.769 70.4509 201.024 71.6309 199.844 71.6309L195.179 72.4842L197.212 63.5525Z" fill="#FCC9A7"/>
<path d="M169.092 87.0979L187.5 98.4259L183.506 106.286L162.901 92.9797C162.901 92.9616 165.479 88.4594 169.092 87.0979Z" fill="#F7EBE7"/>
<path d="M164.389 154.322L161.865 162.926L200.097 161.547L199.571 153.051L164.389 154.322Z" fill="#F7EBE7"/>
<path d="M200.097 161.546L201.84 258.288C201.84 258.288 163.318 265.876 142.114 252.733C142.114 252.733 150.392 221.617 148.849 208.891C145.981 185.564 149.267 175.489 161.902 162.908L200.097 161.546Z" fill="#E49258"/>
<path d="M169.763 361.275C170.036 360.312 171.052 359.913 171.796 360.494C173.231 361.656 175.772 363.017 179.403 362.491C183.179 361.928 184.504 359.641 184.958 358.007C185.194 357.154 185.993 356.682 186.737 357.008L210.246 367.501C211.68 368.137 212.824 369.408 213.441 371.005C214.022 372.512 213.078 374.2 211.626 374.236L171.869 374.981C170.308 375.017 169.037 373.528 169.092 371.749L169.346 362.963C169.346 362.818 169.364 362.672 169.418 362.527L169.763 361.275Z" fill="#1F252A"/>
<path d="M106.479 353.25C107.006 352.397 108.095 352.27 108.639 353.033C109.71 354.539 111.798 356.518 115.447 356.972C119.223 357.444 121.111 355.574 122.001 354.122C122.454 353.359 123.344 353.123 123.979 353.632L143.876 369.97C145.092 370.969 145.855 372.475 146.036 374.2C146.2 375.816 144.838 377.195 143.44 376.832L104.9 367.011C103.393 366.63 102.558 364.869 103.066 363.162L105.644 354.757C105.68 354.612 105.753 354.485 105.826 354.358L106.479 353.25Z" fill="#1F252A"/>
<path d="M177.042 67.383L184.867 67.0925C184.867 67.0925 185.538 60.303 187.063 58.6691C188.588 57.0353 189.369 49.7738 189.369 49.7738C189.369 49.7738 190.767 54.2941 189.696 58.9777L200.987 58.5784C200.987 58.5784 203.438 38.6818 178.604 37.7196C153.769 36.7575 154.441 60.2485 159.324 64.914C163.209 68.6174 169.509 75.2072 169.509 75.2072C169.509 75.2072 169.218 67.6553 177.042 67.383Z" fill="#4C1827"/>
<path d="M182.707 64.9684C182.816 67.873 180.547 70.3057 177.642 70.4146C174.738 70.5235 172.305 68.2543 172.196 65.3497C172.087 62.4451 174.356 60.0125 177.261 59.9035C180.166 59.8128 182.598 62.0638 182.707 64.9684Z" fill="#FCC9A7"/>
<path d="M162.774 68.708C163.01 75.2615 157.89 80.7803 151.337 81.0163C144.783 81.2523 139.264 76.1329 139.028 69.5612C138.792 63.0077 143.912 57.489 150.465 57.253C157.037 57.017 162.538 62.1363 162.774 68.708Z" fill="#4C1827"/>
<path d="M175.937 174.617C181.111 175.525 184.578 180.445 183.689 185.637C182.781 190.811 177.861 194.278 172.669 193.389C167.495 192.481 164.028 187.561 164.917 182.369C165.825 177.177 170.763 173.71 175.937 174.617Z" fill="#FCC9A7"/>
<path d="M179.168 175.816L157.729 163.544L152.428 172.239L167.895 182.188L179.168 175.816Z" fill="#FCC9A7"/>
<path d="M156.493 100.877L122.091 146.08C120.639 147.822 120.948 150.418 122.781 151.762L159.96 180.445L170.707 168.953L143.349 146.588L171.27 115.091C176.081 110.716 175.663 103.019 170.399 99.1884C166.024 95.9933 159.96 96.7558 156.493 100.877Z" fill="#F9A772"/>
<path d="M258.971 70.4148L248.696 97.6999C248.423 98.4442 247.606 98.8255 246.862 98.5895L233.156 94.2688C232.339 94.0147 231.903 93.107 232.23 92.3082L242.85 65.3862C243.141 64.6782 243.903 64.2969 244.647 64.5148L258.009 68.4541C258.844 68.7083 259.279 69.5978 258.971 70.4148Z" fill="#1C2226"/>
<path d="M255.505 71.5767L247.753 93.6154C247.572 94.1237 247.027 94.4141 246.5 94.2871L236.225 91.6185C235.608 91.4551 235.281 90.8015 235.517 90.2206L244.322 67.9822C244.522 67.4739 245.084 67.2016 245.611 67.365L254.833 70.2514C255.396 70.4148 255.704 71.0139 255.505 71.5767Z" fill="#EFEFEF"/>
<path d="M302.573 185.933C307.275 183.101 313.392 184.608 316.224 189.328C319.056 194.03 317.55 200.148 312.83 202.98C308.128 205.812 302.01 204.305 299.178 199.585C296.346 194.901 297.871 188.783 302.573 185.933Z" fill="#FCC9A7"/>
<path d="M313.847 186.641C313.52 186.387 296.056 165.873 296.056 165.873L288.922 174.514L304.679 194.465L313.847 186.641Z" fill="#FCC9A7"/>
<path d="M299.126 346.576L294.678 366.89L280.627 364.784L285.165 344.743L299.126 346.576Z" fill="#FCC9A7"/>
<path d="M362.119 344.761L362.283 365.565L348.141 366.618L348.104 346.068L362.119 344.761Z" fill="#FCC9A7"/>
<path d="M296.456 363.586C296.166 362.733 295.131 362.37 294.386 362.914C292.934 363.967 290.374 365.202 286.671 364.766C282.822 364.312 281.443 362.279 280.971 360.827C280.717 360.064 279.9 359.665 279.155 359.955L255.32 369.504C253.867 370.085 252.705 371.211 252.106 372.645C251.525 373.988 252.506 375.495 253.976 375.495L294.477 375.785C296.075 375.804 297.346 374.478 297.273 372.881L296.928 365.057C296.928 364.93 296.892 364.802 296.855 364.675L296.456 363.586Z" fill="#0C0C0C"/>
<path d="M346.707 363.586C346.997 362.733 348.05 362.37 348.776 362.914C350.228 363.967 352.788 365.202 356.491 364.766C360.34 364.312 361.702 362.279 362.192 360.827C362.446 360.064 363.263 359.665 364.007 359.955L387.843 369.504C389.295 370.085 390.457 371.211 391.056 372.645C391.637 373.988 390.657 375.495 389.186 375.495L348.685 375.785C347.088 375.804 345.817 374.478 345.89 372.881L346.234 365.057C346.234 364.93 346.271 364.802 346.307 364.675L346.707 363.586Z" fill="#0C0C0C"/>
<path d="M346.525 83.9453L333.944 85.0345L313.938 96.3081V176.475H367.329V96.3081L346.525 83.9453Z" fill="#54585A"/>
<path d="M343.075 92.0237H339.463C335.723 92.0237 332.691 88.9921 332.691 85.2524V71.6733H349.829V85.2524C349.847 88.9921 346.815 92.0237 343.075 92.0237Z" fill="#FCC9A7"/>
<path d="M332.691 78.5899C332.691 78.5899 335.36 83.9452 341.423 83.9452C347.487 83.9452 349.829 78.481 349.829 78.481L332.691 78.5899Z" fill="#F4BE9A"/>
<path d="M341.46 80.8048H340.897C332.165 80.8048 324.976 73.9063 324.631 65.1743L324.322 56.4787C323.959 47.2384 331.348 39.5593 340.588 39.5593H341.768C348.757 39.5593 358.397 47.2384 358.034 56.4787L357.725 65.1743C357.38 73.9063 350.192 80.8048 341.46 80.8048Z" fill="#FCC9A7"/>
<path d="M329.624 63.0682C329.824 66.0091 327.609 68.5506 324.668 68.7503C321.727 68.95 319.186 66.7353 318.986 63.7944C318.786 60.8534 321.001 58.3119 323.942 58.1122C326.883 57.9307 329.425 60.1454 329.624 63.0682Z" fill="#FCC9A7"/>
<path d="M363.354 63.0682C363.554 66.0091 361.339 68.5506 358.398 68.7503C355.457 68.95 352.915 66.7353 352.716 63.7944C352.516 60.8534 354.731 58.3119 357.672 58.1122C360.613 57.9307 363.154 60.1454 363.354 63.0682Z" fill="#FCC9A7"/>
<path d="M313.939 176.094L280.735 352.603L299.815 352.422L348.358 176.439L313.939 176.094Z" fill="#0C0C0C"/>
<path d="M367.328 176.475L365.24 352.785H345.071L337.029 177.582L367.328 176.475Z" fill="#0C0C0C"/>
<path d="M313.938 96.3079C313.938 96.3079 269.353 123.212 258.515 141.874C256.391 145.523 259.15 150.243 262.89 152.185C267.029 154.346 272.13 152.875 274.508 148.863L315.754 124.936C315.772 124.936 313.938 104.386 313.938 96.3079Z" fill="#54585A"/>
<path d="M323.396 46.6028L324.649 59.964H326.664L326.918 52.9567C326.918 52.9567 327.971 50.2699 332.673 44.497C332.673 44.497 335.741 52.3394 354.748 50.8145L355.855 59.6736L357.816 59.4557L358.851 49.9431C359.541 46.7299 359.777 43.7345 359.196 40.5032C358.016 33.9678 352.697 30.3552 337.339 34.9662C336.068 35.3475 338.664 35.0933 337.339 34.9662C332.945 34.4761 321.363 34.4216 323.396 46.6028Z" fill="#2E2A33"/>
<path d="M346.017 175.204L341.697 221.424C341.533 223.167 342.713 224.746 344.438 225.073L397.447 235.203C399.39 235.584 401.241 234.204 401.459 232.244L406.306 188.311C406.488 186.605 405.38 185.026 403.692 184.626L350.156 172.209C348.16 171.737 346.217 173.153 346.017 175.204Z" fill="#AFAFAF"/>
<path d="M348.959 176.021L344.638 222.241C344.475 223.984 345.655 225.563 347.379 225.89L400.388 236.02C402.331 236.383 404.183 235.021 404.4 233.061L409.247 189.128C409.429 187.422 408.322 185.843 406.633 185.443L353.098 173.026C351.119 172.554 349.158 173.97 348.959 176.021Z" fill="#D1D1D1"/>
<path d="M376.55 223.203C381.815 224.764 384.829 230.301 383.267 235.566C381.706 240.83 376.169 243.844 370.905 242.301C365.64 240.739 362.626 235.203 364.17 229.938C365.749 224.655 371.268 221.642 376.55 223.203Z" fill="#FCC9A7"/>
<path d="M383.649 231.989C383.613 231.572 381.906 203.869 381.906 203.869L372.484 205.575L373.737 229.193L383.649 231.989Z" fill="#FCC9A7"/>
<path d="M367.33 96.3079C367.33 96.3079 381.599 106.528 382.506 121.088L386.972 155.126C387.226 157.123 387.335 159.12 387.263 161.135L385.538 212.91H365.95L365.587 156.869L367.33 96.3079Z" fill="#54585A"/>
<path d="M335.45 83.9453C333.926 85.0527 326.573 89.1918 326.573 89.1918C326.573 89.1918 326.773 99.5394 342.349 98.7043C356.055 97.9782 355.964 89.573 355.964 89.573L346.506 83.9453H335.45V83.9453Z" fill="#FCC9A7"/>
<path d="M280.48 135.157L307.13 177.746L294.495 189.709L258.587 147.792L280.48 135.157Z" fill="#54585A"/>
<path d="M365.567 175.912V156.851L361.138 122.086" stroke="#424647" stroke-width="0.7693" stroke-miterlimit="10" stroke-linecap="round" stroke-linejoin="round"/>
</svg>
