<svg width="40" height="40" viewBox="0 0 40 40" fill="none" xmlns="http://www.w3.org/2000/svg">
<g clip-path="url(#clip0_127_34)">
<path d="M0 20C0 23.9556 1.17298 27.8224 3.37061 31.1114C5.56824 34.4004 8.69181 36.9638 12.3463 38.4776C16.0009 39.9913 20.0222 40.3874 23.9018 39.6157C27.7814 38.844 31.3451 36.9392 34.1421 34.1421C36.9392 31.3451 38.844 27.7814 39.6157 23.9018C40.3874 20.0222 39.9913 16.0009 38.4776 12.3463C36.9638 8.69181 34.4004 5.56824 31.1114 3.37061C27.8224 1.17298 23.9556 0 20 0C14.6974 0.00573514 9.61368 2.11471 5.8642 5.8642C2.11471 9.61368 0.00573514 14.6974 0 20ZM29.0233 17.6433C29.6482 18.2684 29.9993 19.1161 29.9993 20C29.9993 20.8839 29.6482 21.7316 29.0233 22.3567L21.9517 29.4283L19.595 27.0717L25 21.6667H10V18.3333H25L19.595 12.9283L21.9517 10.5717L29.0233 17.6433Z" fill="#C91C98"/>
</g>
<defs>
<clipPath id="clip0_127_34">
<rect width="40" height="40" fill="white"/>
</clipPath>
</defs>
</svg>
