<svg width="80" height="80" viewBox="0 0 80 80" fill="none" xmlns="http://www.w3.org/2000/svg">
<path d="M73.3333 80H6.66663V8.33333C6.66663 3.74 10.4066 0 15 0H65C69.5933 0 73.3333 3.74 73.3333 8.33333V80ZM9.99996 76.6667H70V8.33333C70 5.57667 67.7566 3.33333 65 3.33333H15C12.2433 3.33333 9.99996 5.57667 9.99996 8.33333V76.6667ZM60 16.6667H36.6666V20H60V16.6667ZM60 36.6667H36.6666V40H60V36.6667ZM60 56.6667H36.6666V60H60V56.6667ZM30 23.3333H20V13.3333H30V23.3333ZM23.3333 20H26.6666V16.6667H23.3333V20ZM30 43.3333H20V33.3333H30V43.3333ZM23.3333 40H26.6666V36.6667H23.3333V40ZM30 63.3333H20V53.3333H30V63.3333ZM23.3333 60H26.6666V56.6667H23.3333V60Z" fill="#3D1E9D"/>
</svg>
